<svg width="120" height="120" fill="none" xmlns="http://www.w3.org/2000/svg"><mask id="mask0" maskUnits="userSpaceOnUse" x="0" y="0" width="120" height="120"><circle cx="60" cy="60" r="60" fill="#74D1DE"/></mask><g mask="url(#mask0)"><circle cx="60" cy="60" r="60" fill="#74D1DE"/><path d="M77.842 23.834c-.138.034-.24-.139-.138-.277 1.035-1.21 3.93-5.113 2.035-9.708-2.31-5.493-7.206-.345-10.757 1.21-3.551 1.554-11.136-2.074-16.825 2.59-6.516 5.32-4.447 15.305-12.584 17.31-8.136 1.968-13.48 2.901-17.445 10.122-3.965 7.186 2.379 22.215-2.137 27.742C15.474 78.351 9.266 80.05 6.56 88.76c-4.103 11.124 4.093 21.714 14.298 23.614 16.756 3.11 18.783-9.286 48.364-2.687 29.581 6.599 41.726-1.778 43.415-15.701 1.69-13.958-11.145-16.844-10.938-25.101.242-8.257.69-15.409-7.102-19.313-7.792-3.904-8.722-8.948-8.24-14.234.345-5.251-.276-13.197-8.516-11.505z" fill="#6A325E"/><path d="M32.76 144.547h61.782c.276 0 .552.103.793.276 1.655 1.244 9.55 6.461 23.1 2.695 13.859-3.87 17.824-28.123-1.965-37.071-4.379-1.969-7.999-5.217-10.378-9.397-5.964-10.468-20.03-28.814-45.647-28.814-38.442 0-57.093 31.44-61.92 50.994-3.69 14.994-2.723 30.567 12.48 30.567 19.708 0 19.708-5.033 20.617-8.49a1.21 1.21 0 011.138-.76z" fill="#fff"/><path opacity=".5" d="M49.706 123.722c-10.91-9.165-18.654-14.183-16.245-19.134 2.41-4.984 4.956-7.191 2.995-8.396-1.515-.936-8.88-1.806-5.748-8.162 3.132-6.355 9.843-14.116 22.647-15.621 13.181-1.572 23.782 3.311 29.288 10.303 5.989 7.626-.034 8.295-2.925 10.236-2.513 1.672 3.166 3.01 3.992 11.005.964 9.065-16.004 13.915-23.438 37.833-.172.535-.963.535-1.135-.034-1.17-4.214-4.234-13.648-9.43-18.03z" fill="#74D1DE"/><path d="M46.653 74.748c-1.585 1.059-2.308 2.972-1.929 4.816 1.24 6.217 4.168 19.573 8.405 31.973 4.168 12.195 5.65 19.539 6.166 22.647a.295.295 0 00.586 0c2.997-13.697 17.017-32.451 13.572-51.99-1.205-6.797-10.024-10.281-14.502-10.452-4.168-.137-8.75.58-12.298 3.006z" fill="#1B5FC5"/><path d="M41.14 123.671s5.619-5.113 4.55-10.917c-1.034-5.804-7.792-8.776-11.274-18.415-3.275-9.086-.62-26.844 24.134-28.951 26.03-2.212 34.442 20.072 28.409 30.195" stroke="#BD4780" stroke-miterlimit="10" stroke-linecap="round" stroke-linejoin="round"/><path d="M49.537 74.676c1.827-2.073 4.62-11.47 4.62-28.261h10.55s-.862 22.56-.276 25.842c.276 1.52.758 2.488 1.206 3.11.621.864.966 1.934.897 3.005-.207 3.213-1.069 9.536-4.482 14.546 0 0-7.413-4.492-12.895-15.997-.275-.725-.172-1.623.38-2.245z" fill="#F4ADAD"/><path d="M71.016 27.15c1.31-.69 2.93.277 3 1.762.378 6.772.723 26.568-7.138 30.23-4.964 2.315-11.066-3.42-12.584-9.846a.504.504 0 00-.654-.345c-.897.345-2.862.656-4.758-2.073-1.414-2.004-1.965-5.114-.931-6.772 1.551-2.522 3.965-.484 4.965.553a.346.346 0 00.586-.138c.62-2.246 2.31-5.563 7.515-6.6 5.206-1.035 7.137-5.25 9.999-6.77z" fill="#FBC9BE"/><path d="M73.168 130.063c-2.275-1.279-3.586-3.801-3.275-6.392.965-7.946 4-24.391 13.308-27.742 11.446-4.146 13.48 20.314 5.24 33.166-1.172 1.831-3.24 2.937-5.413 2.937" stroke="#BD4780" stroke-miterlimit="10" stroke-linecap="round" stroke-linejoin="round"/><path d="M59.604 40.97a2.871 2.871 0 011-1.762c.517-.45 1.207-.726 1.896-.795a3.05 3.05 0 011.965.484 2.902 2.902 0 011.242 1.554.474.474 0 01-.345.587c-.173.07-.38 0-.517-.138l-.035-.034c-.586-.691-1.413-1.037-2.24-.968a2.521 2.521 0 00-2 1.313v.035c-.138.242-.449.345-.69.207a.424.424 0 01-.276-.484zm14.066.069c-.31-.622-.827-1.002-1.344-1.037-.517-.034-1.034.208-1.482.76l-.035.035c-.172.173-.448.207-.62.07a.397.397 0 01-.138-.415c.103-.484.413-.968.827-1.279.448-.31 1.034-.483 1.586-.414s1.069.345 1.448.725c.345.38.586.899.62 1.382 0 .242-.172.45-.413.45a.538.538 0 01-.448-.277z" fill="#513259"/><path d="M62.362 49.33c.897-.138 3.724-.414 7.275.622.138.035.207.207.138.346-.345.725-1.414 2.694-3.448 2.694-2.138-.034-3.62-2.418-4.068-3.316-.104-.139-.035-.346.103-.346z" fill="#fff"/></g></svg>