<svg width="407" height="236" fill="none" xmlns="http://www.w3.org/2000/svg"><path opacity=".5" d="M406 65.655V47.184c0-19.66-12.657-37.087-31.353-43.168a45.395 45.395 0 00-35.609 3.225L306.35 24.89a100 100 0 01-64.024 10.635L138.588 18.16a98.994 98.994 0 00-46.334 3.292L45.51 36.31C4.343 49.395-12.008 98.89 13.262 133.923a63.468 63.468 0 018.599 16.651l5.534 16.235c18.792 55.128 80.532 82.596 134.062 59.642l7.698-3.3a99.935 99.935 0 0122.475-6.649l69.747-11.985a99.997 99.997 0 0066.463-43.374l10.684-16.148a60.29 60.29 0 0128.734-23.038C390.591 113.031 406 90.637 406 65.655z" stroke="#DEE2E9" stroke-width="2"/></svg>