<svg width="463" height="556" fill="none" xmlns="http://www.w3.org/2000/svg"><path d="M104.653 501.741s2.114-15.237-18.376-16.703c-22.44-1.548-33.905-8.881-33.905-19.473 0-7.822 9.106-7.089 20.977-3.504 5.773 1.711 8.538-7.74-5.203-14.503-13.741-6.762-32.523-12.629-34.393-24.769-1.22-7.74 5.935-5.377 9.269-9.614 3.333-4.237-6.342-8.881-24.23-22.569C.66 376.592-3.161 358.178 2.287 352.719c5.447-5.459 12.114-4.481 30.246 17.599 14.554 17.681 20.49 15.399 20.896 10.103.57-6.681 1.545-12.71 5.61-12.955 4.147-.244 8.456 6.682 9.35 19.718.57 8.473 4.635 8.392 6.424 6.762 2.764-2.525.488-12.303 7.724-13.036 5.285-.57 10.733 3.015 15.855 14.992 3.822 8.881 5.692 18.495 5.692 28.191l.569 77.648z" fill="#FF804A"/><path d="M39.282 454.076c1.3-.325 1.626-1.711.975-2.851-2.439-4.319-8.13-9.289-15.286-8.555-8.13.814 7.806 12.873 14.31 11.406z" fill="#FF6E3A"/><path d="M19.85 418.389c1.707.408 3.008-1.303 2.357-2.933-1.626-3.829-4.472-7.414-8.944-7.985-5.61-.814-1.057 8.963 6.586 10.918z" fill="#FF804A"/><path d="M37.33 389.546c13.578 16.296 56.915 33.162 67.079 72.189m-52.037-34.954c16.993 4.481 33.743 3.83 46.996 21.673m-38.215-54.182s.488 10.511 5.61 18.658m16.75-10.755s-1.789 19.555 13.09 41.309" stroke="#E25839" stroke-miterlimit="10" stroke-linecap="round" stroke-linejoin="round"/><path d="M341.339 556H149.616c-25.449 0-46.102-20.695-46.102-46.198V46.197C103.514 20.695 124.167 0 149.616 0h191.723c25.449 0 46.101 20.695 46.101 46.197v463.605c0 25.503-20.652 46.198-46.101 46.198z" fill="#112440"/><path d="M337.193 12.547h-24.799c-3.984 0-7.481 2.852-8.294 6.763-1.463 7.007-7.643 12.059-14.798 12.059H201.49c-7.155 0-13.334-5.052-14.798-12.059-.813-3.91-4.309-6.763-8.293-6.763H153.6c-20.164 0-36.426 16.377-36.426 36.502v457.82c0 20.207 16.343 36.502 36.426 36.502h183.43c20.164 0 36.426-16.377 36.426-36.502V49.049c.162-20.125-16.099-36.502-36.263-36.502z" fill="#74D1DE"/><path d="M223.162 62.783h29.292c5.016 0 12.19 7.516 13.214 4.32 17.696-55.21 15.949 14.608 19.138 14.608 3.19 0 5.013-17.803 8.658-25.107 4.557-7.76 3.616 10.638 8.658 6.18 9.569-8.462 9.114-3.015 20.805-3.015 14.96-.245 52.687 0 52.687 0" stroke="#fff" stroke-miterlimit="10" stroke-linecap="round"/><path d="M221.455 65.716c1.572 0 2.846-1.313 2.846-2.933 0-1.62-1.274-2.933-2.846-2.933s-2.846 1.313-2.846 2.933c0 1.62 1.274 2.933 2.846 2.933z" fill="#fff"/><path d="M440.128 84.492s9.35.244 10.407-16.621c.976-15.155-4.472-42.939-2.195-54.834.244-1.304-1.057-2.363-2.358-1.874a540.883 540.883 0 01-6.098 2.77c-.732.326-1.545.163-1.952-.49l-3.252-3.91c-.569-.652-1.464-.815-2.195-.326l-6.424 4.074c-.731.489-1.707.326-2.195-.407l-3.496-4.482c-.569-.733-1.545-.814-2.277-.326l-6.83 4.645c-.731.489-1.788.325-2.357-.408l-2.44-3.503c-.569-.815-1.707-.978-2.439-.326l-4.472 3.748c-.732.652-1.87.489-2.439-.326l-1.87-2.689c-.732-1.06-2.277-.978-2.846.163-.976 1.956-2.114 4.97-1.951 8.718.244 6.518.569 40.168.569 40.168l35.856 21.673 13.254 4.563z" fill="#F0EBDA"/><path d="M416.549 85.306l6.341-54.182h-58.134S345.16 29.82 344.754 47.99c-.325 18.17 0 37.235 0 37.235l-.163 45.22 58.786 7.17s14.635.977 13.903-25.747l-.731-26.562z" fill="#F0EBDA"/><path d="M354.43 201.493c13.09 0 19.27-8.962 19.27-24.28v-38.294l10.244-62.82h-65.696s-22.604-2.443-22.604 22.489v102.905h58.786z" fill="#F0EBDA"/><path d="M337.518 177.376c1.138-.734 2.683 0 2.764 1.385.407 6.844 2.602 22.732 13.335 22.732h-58.054v-27.051l4.716 4.156a3.667 3.667 0 004.553.244l2.439-1.711c1.301-.896 3.09-.896 4.31.082l2.52 1.874a3.675 3.675 0 004.147.163l3.74-2.282a3.668 3.668 0 014.228.245l3.09 2.444c1.219.978 3.008 1.059 4.309.163l3.903-2.444zm65.859-39.598s-12.684.326-11.383-16.703c1.545-20.288 6.992-44.975-8.05-44.975-11.708 0-10.082 15.888-10.244 27.865v34.953l29.677-1.14zm13.171-52.472s-2.601-34.22-2.683-37.723c-.081-3.504-1.138-14.91 9.025-16.377 10.245-1.467 12.034 9.858 10.245 24.687-1.463 12.303-3.821 25.177 6.993 28.599l-23.58.814z" fill="#238CA3"/><path d="M281.578 137.207c-.325.082-.569-.326-.325-.651 2.439-2.852 9.269-12.059 4.797-22.896-5.447-12.954-16.993-.814-25.368 2.852-8.375 3.667-26.262-4.889-39.678 6.111-15.367 12.547-10.489 36.094-29.677 40.82-19.189 4.644-31.791 6.844-41.142 23.873-9.35 16.947 5.61 52.39-5.041 65.426-10.651 13.036-25.292 17.041-31.671 37.583-9.676 26.236 9.653 51.21 33.72 55.691 39.515 7.333 44.296-21.9 114.058-6.338 69.762 15.562 98.403-4.193 102.387-37.028 3.984-32.917-26.283-39.723-25.795-59.197.569-19.473 1.626-36.338-16.749-45.545-18.376-9.207-20.571-21.103-19.433-33.569.813-12.384-.65-31.124-20.083-27.132z" fill="#6A325E"/><path d="M175.259 421.889h145.703c.651 0 1.301.244 1.87.651 3.903 2.934 22.523 15.237 54.476 6.356 32.686-9.126 42.036-66.323-4.634-87.425-10.326-4.645-18.863-12.303-24.474-22.162-14.066-24.688-47.239-67.952-107.651-67.952-90.658 0-134.645 74.144-146.028 120.26-8.7 35.361-6.422 72.087 29.432 72.087 46.479 0 46.479-11.868 48.623-20.023.407-1.059 1.464-1.792 2.683-1.792z" fill="#fff"/><path opacity=".5" d="M215.224 372.779c-25.73-21.616-43.992-33.449-38.311-45.124 5.682-11.755 11.688-16.961 7.062-19.801-3.572-2.209-20.941-4.26-13.555-19.249 7.386-14.989 23.214-33.291 53.408-36.841 31.087-3.707 56.086 7.81 69.073 24.298 14.123 17.986-.081 19.564-6.899 24.14-5.925 3.944 7.467 7.1 9.415 25.954 2.273 21.379-37.743 32.817-55.275 89.222-.405 1.263-2.272 1.263-2.678-.079-2.76-9.939-9.984-32.186-22.24-42.52z" fill="#74D1DE"/><path d="M208.023 257.281c-3.737 2.497-5.443 7.009-4.549 11.359 2.925 14.661 9.83 46.159 19.822 75.402 9.83 28.759 13.324 46.079 14.542 53.41.163.805 1.219.805 1.381 0 7.068-32.304 40.133-76.53 32.009-122.609-2.844-16.031-23.641-24.248-34.202-24.651-9.83-.322-20.635 1.369-29.003 7.089z" fill="#1B5FC5"/><path d="M195.019 372.658s13.253-12.059 10.733-25.747c-2.439-13.688-18.376-20.695-26.588-43.427-7.724-21.429-1.463-63.308 56.916-68.278 61.387-5.215 81.226 47.338 66.997 71.211" stroke="#BD4780" stroke-width="2" stroke-miterlimit="10" stroke-linecap="round" stroke-linejoin="round"/><path d="M214.824 257.111c4.31-4.889 10.896-27.051 10.896-66.649h24.88s-2.033 53.205-.651 60.945c.651 3.585 1.789 5.867 2.846 7.333 1.464 2.037 2.277 4.563 2.114 7.089-.488 7.577-2.52 22.487-10.57 34.302 0 0-17.481-10.592-30.409-37.724-.65-1.711-.406-3.83.894-5.296z" fill="#F4ADAD"/><path d="M265.479 145.029c3.09-1.629 6.911.652 7.074 4.156.894 15.969 1.707 62.656-16.831 71.292-11.708 5.459-26.1-8.066-29.677-23.221-.163-.652-.894-1.059-1.545-.815-2.114.815-6.748 1.548-11.22-4.888-3.334-4.726-4.635-12.059-2.196-15.97 3.659-5.948 9.351-1.14 11.709 1.304a.815.815 0 001.382-.326c1.463-5.296 5.447-13.118 17.725-15.562 12.277-2.445 16.831-12.385 23.579-15.97z" fill="#FBC9BE"/><path d="M189.491 392.375c6.511 0 11.789-5.289 11.789-11.814s-5.278-11.814-11.789-11.814c-6.512 0-11.79 5.289-11.79 11.814s5.278 11.814 11.79 11.814z" fill="#BD4780"/><path d="M190.026 387.1c3.775 0 6.835-3.065 6.835-6.847 0-3.782-3.06-6.847-6.835-6.847s-6.835 3.065-6.835 6.847c0 3.782 3.06 6.847 6.835 6.847z" stroke="#F17FB6"/><path d="M270.554 387.731c-5.366-3.015-8.456-8.963-7.724-15.074 2.276-18.739 9.432-57.522 31.385-65.426 26.994-9.777 31.791 47.909 12.358 78.218-2.764 4.319-7.643 6.926-12.765 6.926" stroke="#BD4780" stroke-width="2" stroke-miterlimit="10" stroke-linecap="round" stroke-linejoin="round"/><path d="M147.177 436.392s7.724.896 7.968-6.681c.244-9.126 2.764-14.096.975-19.392-2.52-7.414-10.813-11.244-13.253-14.258l-4.878 2.118s2.276 5.785-1.789 6.926c-4.065 1.14-10.814-3.26-10.814-3.26s-5.736-2.966-8.299.915c-.309.468-.305 1.058-.101 1.582 2.277 5.85 12.707 33.663 30.191 32.05z" fill="#EE9C9C"/><path d="M120.606 379.798l26.75 39.435c1.789 2.608 3.171 5.378 4.309 8.311l1.301 3.503c.244.734-.569 1.304-1.138.734l-3.008-2.689c-2.277-2.037-4.228-4.4-6.017-6.844l-26.994-39.272c-.813-1.222-.569-2.933.569-3.829 1.382-1.06 3.334-.734 4.228.651z" fill="#2C326A"/><path d="M124.004 409.911s17.237 5.948 20.571 11.326c2.602 4.155-1.708 5.051-3.822 5.214-.325 0-.325.408-.081.571 1.708.977 5.285 3.096 6.017 4.481.976 1.874-.732 3.259-.488 3.585.244.326 2.195 1.629.732 3.585-1.464 1.955-15.693.407-18.782-1.548-5.285-3.341-4.147-10.755-4.147-13.77 0-3.096-3.577-5.214-4.472-9.288-.976-4.889 2.846-4.889 4.472-4.156z" fill="#FBC9BE"/><path d="M118.394 398.179c-2.439 1.14-2.927 4.399-.976 6.273 2.114 2.037 5.61 4.808 10.082 6.763 7.643 3.341 8.619-.163 7.074-2.607-1.963-3.705-10.163-9.126-12.603-10.429-1.138-.571-2.357-.571-3.577 0zm22.994 12.28c-1.34-.913-1.068-3.598-2.857-7.998-1.789-4.399-2.846-6.029-.325-7.495 2.521-1.467 6.017-.326 7.968 6.599 1.87 6.926-2.753 10.279-4.786 8.894z" fill="#FBC9BE"/><path d="M172.71 425.445s5.013-23.281-13.419-38.347c-8.453-6.6-17.515-14.215-14.832-15.518 2.683-1.304 10.964 3.262 19.138 13.694 4.553 7.007 5.289 2.639 1.223-4.776-4.146-7.333-11.871-16.295-9.269-17.843 2.602-1.548 8.619 10.836 12.522 8.392 1.448-3.576-8.782-16.357-8.782-34.617m212.856 4.351s-15.123-5.052-29.026 10.266c-9.839 10.836-6.668-2.119.894-8.718 7.236-6.274.887-5.797-2.343-3.998-5.854 3.259-7.115 6.702-10.936 10.043-4.557 2.673-.625-6.778-3.552-12.4" stroke="#74D1DE" stroke-miterlimit="10" stroke-linecap="round" stroke-linejoin="round"/><path d="M248.73 510.128c18.141 0 32.848-14.737 32.848-32.916 0-18.18-14.707-32.917-32.848-32.917-18.142 0-32.848 14.737-32.848 32.917 0 18.179 14.706 32.916 32.848 32.916z" fill="#EF5F79"/><path d="M252.389 488.455h-16.343a3.091 3.091 0 01-3.09-3.096v-16.377a3.091 3.091 0 013.09-3.096h16.343a3.091 3.091 0 013.089 3.096v16.377a3.091 3.091 0 01-3.089 3.096zm6.667-8.881l5.285 5.296c.894.897 2.439.245 2.439-.977V470.53c0-1.303-1.545-1.874-2.439-.977l-5.285 5.296a3.21 3.21 0 000 4.725zm-84.153 18.414c11.45 0 20.733-9.302 20.733-20.776 0-11.475-9.283-20.777-20.733-20.777-11.451 0-20.734 9.302-20.734 20.777 0 11.474 9.283 20.776 20.734 20.776z" fill="#fff"/><path d="M174.903 482.263a4.203 4.203 0 01-4.228-4.237v-6.192a4.203 4.203 0 014.228-4.237 4.204 4.204 0 014.228 4.237v6.192c0 2.363-1.952 4.237-4.228 4.237z" fill="#74D1DE"/><path d="M184.009 474.278v4.074c0 5.052-4.065 9.207-9.188 9.207a9.187 9.187 0 01-9.187-9.207v-4.074m9.269 13.281v10.103" stroke="#74D1DE" stroke-width="2" stroke-miterlimit="10" stroke-linecap="round" stroke-linejoin="round"/><path d="M322.638 497.907c11.451 0 20.734-9.302 20.734-20.777 0-11.474-9.283-20.776-20.734-20.776-11.45 0-20.733 9.302-20.733 20.776 0 11.475 9.283 20.777 20.733 20.777z" fill="#fff"/><path d="M328.249 482.263h-10.164a2.9 2.9 0 00-2.195.978l-1.545 1.711c-.244.326-.732.081-.732-.326v-12.221c0-1.874 1.464-3.341 3.334-3.341h11.302c1.87 0 3.333 1.467 3.333 3.341v6.518c0 1.874-1.463 3.34-3.333 3.34z" fill="#74D1DE"/><path d="M238.566 177.62c.244-1.548 1.057-3.096 2.358-4.155 1.22-1.059 2.846-1.711 4.472-1.874a7.194 7.194 0 014.635 1.14c1.382.815 2.439 2.2 2.927 3.667a1.118 1.118 0 01-.813 1.385c-.407.163-.895 0-1.22-.326l-.081-.081c-1.383-1.63-3.334-2.445-5.285-2.282a5.946 5.946 0 00-4.716 3.096v.082c-.325.57-1.057.815-1.626.489-.488-.163-.732-.652-.651-1.141zm33.174.163c-.732-1.466-1.951-2.363-3.171-2.444-1.22-.082-2.439.489-3.496 1.792l-.082.082c-.406.407-1.057.489-1.463.163-.325-.245-.407-.652-.325-.978.244-1.141.975-2.281 1.951-3.014 1.057-.734 2.439-1.141 3.74-.978 1.301.163 2.521.815 3.415 1.711.813.896 1.382 2.118 1.464 3.259 0 .57-.407 1.059-.976 1.059-.407 0-.813-.244-1.057-.652z" fill="#513259"/><path d="M245.071 197.337c2.114-.326 8.781-.977 17.156 1.467.325.081.488.489.325.815-.813 1.711-3.333 6.355-8.131 6.355-5.041-.081-8.537-5.703-9.594-7.822-.244-.326-.081-.815.244-.815z" fill="#fff"/><path d="M451.104 194.421c-9.106-8.555-18.863-12.955-21.871-9.777l-8.863 9.37 32.848 31.124 8.863-9.37c3.09-3.178-1.87-12.71-10.977-21.347z" fill="#FFD873"/><path d="M453.349 225.157c3.021-3.207-1.889-12.768-10.967-21.356-9.078-8.588-18.886-12.95-21.907-9.743-3.022 3.207 1.889 12.768 10.967 21.356 9.078 8.588 18.886 12.95 21.907 9.743z" fill="#B8701C"/><path d="M437.526 207.93c-11.383-10.755-25.124-14.585-30.816-8.555l-42.036 44.649 41.142 38.946 42.036-44.649c5.691-6.03 1.057-19.636-10.326-30.391z" fill="#FF814A"/><path d="M399.421 206.419l-26.669 28.354c4.716-4.97 15.123-3.177 24.961 3.83 1.626 1.14 3.822.896 5.122-.571l21.954-23.302c1.3-1.304.975-3.504-.488-4.563-9.92-6.926-20.246-8.718-24.88-3.748z" fill="#F0EBDA" stroke="#F0EBDA" stroke-linecap="round" stroke-linejoin="round"/><path d="M153.844 221.699H68.959c-10.083 0-18.213-8.148-18.213-18.251v-141.2c0-10.103 8.13-18.25 18.212-18.25h84.886c10.082 0 18.212 8.147 18.212 18.25v141.2c0 10.022-8.13 18.251-18.212 18.251zm278.885 119.283c-.325.489-1.057.326-1.22-.244-1.301-5.622-6.098-27.458-2.358-29.169 2.602-1.222 2.765 8.392 4.391 8.636 1.707.245 5.691-7.496 9.432-6.436 4.878 1.385-4.879 20.613-10.245 27.213zm19.757-48.968c0 .245.326.326.488.163 1.708-1.874 8.7-8.473 7.155-11.977-.975-2.281-3.821 1.385-4.959 3.178-.244.326-.732.244-.813-.163-.407-1.548-1.22-4.237-2.358-4.156-1.464.082.081 10.429.487 12.955z" fill="#EF5F79"/><path d="M58.924 308.281c7.562 3.34 29.596 15.236 47.24 50.026.244.408-.082.978-.569.897-4.228-.245-20.083-2.363-31.222-22.569-9.107-16.622-12.44-23.466-16.018-27.621-.244-.408.163-.978.569-.733zm8.781 43.834c3.334.245 18.457 1.956 24.88 12.385.163.244 0 .489-.243.57-2.928.326-16.587.978-24.962-12.384-.081-.245.081-.571.325-.571z" fill="#B3BE37"/><path d="M79.088 299.318c.813 2.852 0 10.837 6.668 15.562.243.163.569 0 .569-.326.719-2.774 1.138-10.592-6.668-15.562-.325-.163-.65 0-.569.326z" fill="#5A7A30"/><path d="M36.971 314.88c3.253.081 19.677 1.304 25.53 17.11.082.244-.08.407-.325.407-2.601-.163-15.692-1.874-25.449-17.11-.081-.081 0-.407.244-.407zm62.316-165.532s-1.058 2.607-10.083 11.081c-9.106 8.473-37.645 14.34-38.377 43.019 0 10.185 8.212 18.333 18.294 18.333h84.642c10.163 0 18.294-8.229 18.294-18.333 0 0 2.602-21.184-15.611-31.287-18.213-10.103-27.645-14.177-34.881-21.347l-22.278-1.466z" fill="#B3BE37"/><path d="M112.562 155.205s-1.026 16.929 0 34.351c1.025 17.422 0 32.296 0 32.296" stroke="#5A7A30" stroke-miterlimit="10" stroke-linecap="round" stroke-linejoin="round"/><path d="M99.287 149.348s-3.415 7.821-2.196 16.621c.163.896 1.139 1.467 1.952 1.059 2.845-1.303 8.7-4.563 13.253-11.244 0 0 7.236 11.977 11.22 11.977 3.009 0-1.951-16.947-1.951-16.947s-9.757 6.437-22.278-1.466z" fill="#5A7A30"/><path d="M97.742 94.432c-.57-3.177-5.692-33.568-3.985-46.197 0-.326.488-.326.57 0 .325 1.303.894 3.503 1.22 5.459.08.244.406.325.487.081 1.707-3.83 9.188-18.821 23.579-24.443.244-.082.488.163.325.407-.569 1.223-2.032 4.074-4.553 7.252-.162.244.082.57.407.407 5.122-3.91 18.701-13.28 31.303-13.607.244 0 .325.245.244.408-.602 3.647-6.261 9.37-12.846 16.784-.244.245.081.652.406.408 3.252-2.526 8.863-7.17 12.44-11.489.163-.163.407-.081.488.082.732 2.852 3.659 16.947-6.505 30.146-.162.245.082.57.326.408 1.057-.49 2.683-1.467 4.309-2.933.244-.245.569 0 .406.325-.894 1.793-2.845 5.46-6.423 9.94-5.854 7.415-5.122 17.763-4.96 19.474 0 .163-.081.244-.244.326l-36.67 7.17c-.08-.163-.243-.245-.325-.408z" fill="#4F253E"/><path d="M99.043 91.662a.61.61 0 01-1.057 0c-1.22-2.119-4.716-7.17-8.375-3.993-4.147 3.585.57 16.866 6.098 18.74 1.87.652 3.334-.081 3.984-.815.325-.407.976-.163 1.057.326.732 6.763 2.521 28.925-1.463 43.346 0 0 10.082 8.392 22.278 1.467-1.626-2.363-5.692-9.615-6.667-33.325 0 0 6.504 5.867 13.009.978 8.049-6.029 12.277-36.013 4.716-58.012-.651-1.955-3.009-2.607-4.716-1.385-3.415 2.526-9.676 6.355-18.294 8.393-11.953 2.851-3.415 13.606-10.57 24.28z" fill="#FBC9BE"/><path d="M96.517 101.367c1.446-.724 1.887-2.78.984-4.59-.903-1.813-2.807-2.695-4.253-1.971-1.447.724-1.887 2.779-.985 4.59.903 1.812 2.807 2.694 4.254 1.971z" fill="#fff"/><path d="M94.002 99.647s-9.35 10.429-8.944 31.694c.406 21.184 22.047 54.237 16.112 89.598 0 0 6.835-19.172 23.241-45.682 34.718-48.397 10.895-62.656 10.488-72.27" stroke="#fff" stroke-miterlimit="10" stroke-linecap="round" stroke-linejoin="round"/><path d="M150.205 211.81h-16.049a2 2 0 00-2 2v8.042h20.049v-8.042a2 2 0 00-2-2z" fill="#5A7A30"/><path d="M272.018 391.577a2.687 2.687 0 002.683-2.689 2.686 2.686 0 00-2.683-2.688 2.686 2.686 0 00-2.684 2.688 2.687 2.687 0 002.684 2.689zm20.164 3.829a2.685 2.685 0 002.683-2.688 2.686 2.686 0 00-2.683-2.689 2.686 2.686 0 00-2.683 2.689 2.685 2.685 0 002.683 2.688z" fill="#BD4780"/><path d="M405.868 282.948c5.672-6.021 1.058-19.617-10.306-30.367-11.364-10.75-25.174-14.584-30.846-8.563-5.672 6.021-1.058 19.617 10.305 30.367 11.364 10.75 25.175 14.584 30.847 8.563z" fill="#E2583A"/><path d="M406.873 281.992s5.366-5.947 6.586-9.451c2.439-6.926-4.391-19.147-4.228-24.362.162-4.807 8.131 2.445 10.651 10.266.081.163.26.383.715 0 1.207-1.818 2.036-4.984-.647-13.458-3.496-10.999-.976-12.547 1.464-12.547.569 0 .975-.408.975-.978 0-2.281-1.463-6.844-.975-8.8.487-1.955 2.817-3.22 8.753 3.299 5.447 5.947 7.746 10.042 8.66 14.804.325.733 1.301.815 1.707.081.732-1.385 1.301-3.474.569-5.756-1.301-3.911-9.35-16.242-8.456-20.479.895-4.237 14.473 10.347 17.563 20.858 2.033 7.17-.84 23.288-21.41 46.183-20.002 22.243-22.578 86.462-31.847 107.075-9.269 20.614-29.596 20.614-35.694 8.718-6.098-11.895-2.52-34.872 11.709-55.323 11.545-16.539 19.026-30.309 22.766-43.508 2.964-10.099 4.365-9.834 11.139-16.622z" fill="#FBC9BE"/><path d="M311.236 404.447c.759 4.26 4.01 13.877 10.936 18.259" stroke="#74D1DE" stroke-linecap="round"/><ellipse cx="107.549" cy="172.552" rx="1.823" ry="1.826" fill="#5A7A30"/><ellipse cx="105.727" cy="199.941" rx="1.823" ry="1.826" fill="#5A7A30"/></svg>