<svg width="73" height="71" fill="none" xmlns="http://www.w3.org/2000/svg"><path d="M23.284 10.52c7.92 3.513 31.002 16.021 49.484 52.602.255.429-.085 1.028-.596.943-4.43-.257-21.037-2.485-32.706-23.73-9.539-17.478-13.031-24.674-16.779-29.043-.255-.429.17-1.028.597-.771zm9.198 46.091c3.492.258 19.334 2.056 26.062 13.022.17.257 0 .514-.255.6-3.066.343-17.375 1.028-26.148-13.022-.085-.257.086-.6.341-.6z" fill="#EF5F79"/><path d="M44.406 1.097c.852 2.998 0 11.394 6.984 16.363.255.171.596 0 .596-.343C52.739 14.2 53.178 5.98 45.002.754c-.34-.171-.681 0-.596.343z" fill="#BD4780"/><path d="M.287 17.46c3.407.085 20.612 1.37 26.744 17.99.085.258-.085.429-.34.429-2.726-.171-16.438-1.97-26.66-17.99-.084-.087 0-.43.256-.43z" fill="#EF5F79"/></svg>