<svg width="111" height="161" fill="none" xmlns="http://www.w3.org/2000/svg"><path d="M1.065 160.403s-2.215-16.02 19.249-17.562c23.507-1.628 35.516-9.339 35.516-20.476 0-8.224-9.54-7.453-21.974-3.684-6.047 1.799-8.943-8.138 5.45-15.249 14.395-7.11 34.07-13.279 36.028-26.044 1.278-8.139-6.218-5.654-9.71-10.11-3.491-4.454 6.644-9.337 25.382-23.73 18.993-14.735 22.996-34.097 17.289-39.837-5.706-5.74-12.69-4.712-31.683 18.505-15.246 18.59-21.463 16.192-21.89 10.623-.596-7.025-1.618-13.365-5.876-13.622-4.344-.257-8.858 7.025-9.795 20.733-.596 8.91-4.855 8.824-6.728 7.11-2.896-2.655-.511-12.936-8.092-13.707-5.536-.6-11.242 3.17-16.608 15.764-4.003 9.338-5.962 19.447-5.962 29.642l-.596 81.644zm68.477-50.117c-1.362-.343-1.703-1.799-1.022-2.999 2.555-4.541 8.517-9.767 16.012-8.995 8.517.856-8.176 13.536-14.99 11.994zm20.356-37.524c-1.789.428-3.151-1.37-2.47-3.084 1.703-4.027 4.684-7.797 9.369-8.396 5.877-.857 1.107 9.424-6.9 11.48z" fill="#74D1DE"/><path d="M71.586 42.434C57.363 59.568 11.966 77.302 1.32 118.34m54.51-36.754c-17.801 4.712-35.346 4.026-49.23 22.789m40.031-56.971s-.51 11.05-5.877 19.617M23.21 55.714s1.873 20.56-13.713 43.434" stroke="#3FA4BC" stroke-miterlimit="10" stroke-linecap="round" stroke-linejoin="round"/></svg>