<svg width="620" height="404" fill="none" xmlns="http://www.w3.org/2000/svg"><path d="M87.042 351.555s1.758-12.66-15.284-13.879c-18.664-1.287-28.2-7.38-28.2-16.182 0-6.499 7.575-5.89 17.448-2.911 4.801 1.422 7.1-6.432-4.328-12.052-11.429-5.619-27.05-10.494-28.605-20.582-1.015-6.432 4.936-4.468 7.709-7.989 2.773-3.521-5.275-7.38-20.152-18.754C.55 247.56-2.63 232.259 1.902 227.723c4.53-4.537 10.076-3.724 25.156 14.624 12.105 14.692 17.042 12.796 17.38 8.395.473-5.551 1.285-10.562 4.666-10.765 3.449-.203 7.033 5.552 7.777 16.385.473 7.041 3.855 6.974 5.342 5.619 2.3-2.098.406-10.223 6.425-10.832 4.395-.474 8.926 2.505 13.186 12.457 3.179 7.38 4.734 15.369 4.734 23.426l.474 64.523zm-54.371-39.607c1.082-.271 1.353-1.422.812-2.37-2.029-3.588-6.763-7.718-12.714-7.109-6.762.677 6.492 10.698 11.902 9.479zm-16.162-29.655c1.42.339 2.502-1.083 1.961-2.437-1.352-3.183-3.72-6.162-7.439-6.636-4.666-.677-.879 7.448 5.478 9.073z" fill="#B3BE37"/><path d="M31.048 258.326c11.294 13.541 47.337 27.556 55.79 59.987m-43.279-29.046c14.133 3.724 28.064 3.182 39.087 18.009m-31.784-45.024s.406 8.734 4.666 15.505m13.932-8.937s-1.488 16.249 10.887 34.326" stroke="#5A7A30" stroke-miterlimit="10" stroke-linecap="round" stroke-linejoin="round"/><path d="M535.295 388.971h-421.86c-15.598 0-28.271-12.692-28.271-28.314V73.603c0-15.622 12.673-28.315 28.271-28.315h421.86c15.598 0 28.272 12.693 28.272 28.315v287.054c0 15.622-12.674 28.314-28.272 28.314z" fill="#112440"/><path d="M532.016 379.208H116.803c-11.344 0-20.472-9.143-20.472-20.504V75.556c0-11.362 9.128-20.504 20.472-20.504h415.213c11.344 0 20.473 9.142 20.473 20.504v283.148c0 11.273-9.217 20.504-20.473 20.504z" fill="#74D1DE"/><path d="M124.602 167.512s57.341-54.943 110.074-57.251c13.205-.621 24.638 2.219 34.475 6.746 27.12 12.515 43.959 40.386 43.338 70.387l-1.595 84.856-145.612 31.688s10.369-86.809 13.028-107.312c.177-1.154-1.152-1.864-2.039-1.154-3.722 2.84-11.344 8.432-19.941 13.58l-31.728-41.54z" fill="#238CA3"/><path d="M220.584 195.855c4.993 0 9.04-4.411 9.04-9.852 0-5.442-4.047-9.853-9.04-9.853-4.992 0-9.04 4.411-9.04 9.853 0 5.441 4.048 9.852 9.04 9.852z" fill="#23607A"/><path d="M220.516 191.522c2.779 0 5.032-2.46 5.032-5.495s-2.253-5.495-5.032-5.495c-2.78 0-5.033 2.46-5.033 5.495s2.253 5.495 5.033 5.495z" stroke="#238CA3"/><path d="M217.394 178.724s-21.802-61.778 11.344-67.547m25.967 1.864s17.991 3.018 22.689 27.871" stroke="#23607A" stroke-width="2" stroke-miterlimit="10" stroke-linecap="round" stroke-linejoin="round"/><path d="M327.467 234.349s36.603-102.608 121.861-92.933c85.258 9.675 76.928 114.325 64.697 171.221-12.23 56.896-190.369-56.541-186.558-78.288z" fill="#CBF3FF"/><path d="M523.384 187.843s.532 1.952-12.674 39.143c-13.205 37.191-3.633 77.134 8.42 88.673 0 0 31.728-3.551 47.06-50.239 15.332-46.688-27.74-27.871-22.865-73.317l-19.941-4.26z" fill="#CBF3FF"/><path d="M519.736 198.391c.152 2.748-3.386 17.218-11.439 36.634-10.065 24.27-11.895 38.924-12.353 42.587-.457 3.664-8.235-3.663 3.203-29.765 11.438-26.102-6.405-2.29-9.15 13.738-2.746 16.027-.915 28.391 4.117 36.176" stroke="#74D1DE"/><path opacity=".5" d="M412.097 221.01c.46.963 3.186.892 3.829.041 2.85-3.775 10.039-9.921 28.173-17.058 30.222-11.894 46.263-23.611 29.513-40.653 0 0 12.082-7.482 3.574-14.405-8.508-6.923-24.777-13.809-46.21-8.701-19.216 4.579-20.444 15.285-16.013 17.86 4.431 2.574-2.832 4.561-5.49 6.868-6.296 5.465-18.964 10.849 2.624 56.048z" fill="#74D1DE"/><path d="M164.041 298.08s-11.699-14.202-4.875-31.155c6.913-16.865 32.349-14.823 37.578-22.812 5.14-7.899-6.204-25.652 12.053-37.812 18.257-12.249 44.047 1.598 50.783-20.859 3.455-11.52 5.125-28.42 11.368-40.17 5.926-11.155 23.686-21.981 35.582-10.532 19.673-6.412 37.624 13.37 39.992 44.134 1.185 15.396-3.457 27.161 14.446 31.155 17.902 3.994 28.271 4.349 34.83 17.486 6.558 13.137-.355 18.64 19.32 19.35 19.675.71 41.477 6.923 34.653 27.605-6.824 20.681-145.524 107.845-285.73 23.61z" fill="#E25839"/><path d="M310.648 143.897c-5.948-5.494-22.785-2.473-29.739 5.953-12.473 15.112 0 48.54-19.674 57.241-15.484 6.848-51.242 2.868-51.242 22.896 0 26.56-8.236 31.597-26.537 36.634-18.301 5.038-11.438 20.607-6.863 26.56" stroke="#FF804A"/><path d="M307.902 149.851c-6.71-1.832-27.451.916-27.451 27.476 0 34.648-5.948 43.502-26.994 48.54-21.046 5.037-28.366 3.663-29.281 23.812-.915 20.149-22.419 20.607-20.131 32.055m98.825-121.809c-4.271-1.068-13.177-.183-14.641 11.906-1.83 15.112 3.203 45.335-4.575 59.073-7.778 13.738-43.007 6.411-36.602 40.297m64.968-126.845c7.931.305 24.34 6.869 26.537 30.681 2.745 29.765-.458 46.708 22.418 54.035 22.876 7.327 31.569 9.617 32.942 20.607 1.372 10.99 35.229 3.663 36.602 23.354M318.883 154.43c4.423 2.137 13.268 12.914 13.268 38.924 0 32.513-5.948 44.877 18.759 54.493 24.706 9.617 27.451 16.486 26.993 25.186" stroke="#FF804A"/><path d="M552.489 358.704v-24.587c-42.629-37.99-120.532-84.767-239.911-75.181-134.711 10.829-193.027 63.731-216.247 95.596v4.083c0 11.362 9.128 20.504 20.472 20.504h415.213c11.256.089 20.473-9.142 20.473-20.415z" fill="#1B5FC4"/><path d="M254.085 330.655s-39.084-77.932 45.554-76.512c84.637 1.42 101.565 41.008 87.651 83.081" stroke="#fff" stroke-width="2" stroke-miterlimit="10"/><path d="M285.638 261.336s14.801-1.508 13.826-27.516c-.975-26.007-4.077-45.889-4.077-45.889h18.434s2.039 60.713 25.259 71.009c0 0-5.85 25.829-19.321 44.824.089-.088-13.56-15.444-34.121-42.428z" fill="#F4ADAD"/><path d="M293.612 184.466s-6.115-6.125-8.419-5.148c-2.216 1.065-1.064 6.302 1.861 11.272 2.836 4.971 8.419 7.811 9.217 2.93 0 0 7.267 14.113 21.979 15.355 2.038.178 3.988-.71 5.229-2.308 3.102-4.26 8.065-14.734 5.761-37.102-3.279-31.599-23.22-27.96-23.22-27.96s3.811 10.119-6.293 16.599c-11.876 7.633-3.456 19.616-6.115 26.362z" fill="#FBC9BE"/><path d="M307.795 184.801c4.061-.65 6.613-5.807 5.702-11.519-.912-5.713-4.942-9.817-9.002-9.167-4.06.65-6.613 5.807-5.701 11.52.911 5.712 4.941 9.816 9.001 9.166z" stroke="#fff" stroke-miterlimit="10"/><path d="M305.925 179.93c.914-.146 1.487-1.316 1.28-2.612-.207-1.296-1.115-2.229-2.029-2.083-.914.147-1.487 1.316-1.28 2.613.207 1.296 1.115 2.229 2.029 2.082zm15.773-4.03c.765-.122 1.245-1.102 1.072-2.189-.173-1.086-.935-1.867-1.7-1.745-.766.123-1.246 1.103-1.073 2.189.174 1.086.935 1.868 1.701 1.745z" fill="#4F253E"/><path d="M323.908 179.938c3.722-.596 6.063-5.317 5.229-10.545-.835-5.228-4.528-8.984-8.25-8.388-3.721.595-6.062 5.317-5.228 10.545.834 5.228 4.527 8.983 8.249 8.388z" stroke="#fff" stroke-miterlimit="10"/><path d="M307.615 192.809s9.926-3.284 15.687-4.083c0 0-1.152 7.722-6.293 9.054-5.051 1.243-9.394-4.971-9.394-4.971zm-44.667 169.623c8.369 0 15.155-7.869 15.155-17.575s-6.786-17.575-15.155-17.575c-8.37 0-15.156 7.869-15.156 17.575s6.786 17.575 15.156 17.575z" fill="#fff"/><path d="M337.571 379.208s9.394-41.363 43.515-41.985c34.121-.621 20.473 41.985 20.473 41.985" stroke="#fff" stroke-width="2" stroke-miterlimit="10" stroke-linecap="round" stroke-linejoin="round"/><path d="M260.032 355.521c4.895 0 8.863-4.729 8.863-10.563 0-5.833-3.968-10.562-8.863-10.562-4.894 0-8.862 4.729-8.862 10.562 0 5.834 3.968 10.563 8.862 10.563z" stroke="#A6CCEF"/><path d="M441.042 64.677s1.598-16.754 14.183-25.187c12.496-8.432 37.175-12.22 41.872 31.184 0 0-9.837 34.439-29.424 34.173-19.586-.266-26.011-20.022-26.631-40.17z" fill="#4F253E"/><path d="M457.393 155.441s-15.598 33.463-38.818 56.629c0 0-1.152-34.972 13.471-62.221 0 .089 11.344-5.503 25.347 5.592z" fill="#EF5F79"/><path d="M432.046 149.938s20.384-26.54 28.715-63.82l14.8-2.929s-2.57 32.664-18.168 72.341c0-.089-15.421 2.396-25.347-5.592z" fill="#F4ADAD"/><path d="M470.864 241.628l-19.32-1.243c-2.748-.178-4.875-2.574-4.697-5.326l2.392-37.546c.178-2.751 2.571-4.882 5.318-4.704l19.32 1.243c2.748.177 4.875 2.574 4.698 5.325l-2.393 37.546c-.178 2.752-2.57 4.882-5.318 4.705z" fill="#fff"/><path d="M521.523 185.979s6.469 12.16 24.638 7.722c0 0-3.014-15.001 6.026-18.64 9.04-3.639 31.108-.533 35.008-7.012 3.899-6.48-20.384.976-28.804-3.994-8.331-4.971 22.777 1.686 30.222-11.007 6.115-10.385-15.865 3.373-26.943 1.775-11.078-1.597 22.334-5.592 23.663-16.864 1.064-9.054-20.649 8.965-32.171 9.231 0 0 11.61-6.036 7.445-14.823-4.166-8.788-16.8-6.479-16.623-2.041.266 4.438 6.342 4.792 6.874 6.923.443 2.13-4.166 10.74-16.485 12.781-12.319 2.042-11.499-8.166-5.029-12.781 6.469-4.616 2.459-9.764-5.428-6.924-7.888 2.841-14.89 10.652-8.154 24.41 6.736 13.669 16.484 15.888 5.761 31.244z" fill="#1B5FC4"/><path d="M531.272 105.65c-1.596 0-2.482 1.864-1.507 3.106 1.861 2.308 2.836 5.237 2.836 8.255v61.156c0 3.196 2.481 5.947 5.583 6.036 3.279.089 5.938-2.485 5.938-5.769v-61.423c0-3.018 1.064-5.947 2.836-8.255.975-1.242.089-3.106-1.506-3.106h-14.18z" fill="#fff"/><path opacity=".5" d="M536.625 100.498a2.396 2.396 0 002.393-2.397 2.395 2.395 0 00-2.393-2.397 2.395 2.395 0 00-2.393 2.397 2.395 2.395 0 002.393 2.397zm-8.458-11.557a5.587 5.587 0 005.583-5.592 5.587 5.587 0 00-5.583-5.592 5.588 5.588 0 00-5.584 5.592c0 3.089 2.5 5.592 5.584 5.592zm13.775-14.273a2.838 2.838 0 002.836-2.84 2.838 2.838 0 00-2.836-2.84 2.838 2.838 0 00-2.836 2.84c0 1.569 1.27 2.84 2.836 2.84z" fill="#fff"/><path opacity=".5" d="M538.45 181.363c-2.038 0-3.633-1.598-3.633-3.639v-41.629h7.267v41.629c0 2.041-1.595 3.639-3.634 3.639z" fill="#74D1DE"/><path d="M463.774 196.271l.356-8.61" stroke="#23607A" stroke-width="2" stroke-miterlimit="10" stroke-linecap="round" stroke-linejoin="round"/><path d="M512.873 404H155.09c-34.919 0-69.75-2.929-104.136-8.876h-.266c-3.81-.621-3.368-6.302.532-6.302h565.61c3.9 0 4.343 5.592.532 6.302l-.266.089A621.863 621.863 0 01512.873 404z" fill="#A6CCEF"/><path d="M355.828 103.677c17.914 0 32.437-14.545 32.437-32.487s-14.523-32.486-32.437-32.486c-17.915 0-32.437 14.544-32.437 32.486 0 17.942 14.522 32.487 32.437 32.487z" fill="#fff"/><path d="M495.651 72.506s2.215-8.788 6.292-17.131c7.179-14.735 20.65-15.356 22.688 0 2.127 15.355-15.864 29.113-28.98 17.13z" fill="#4F253E"/><path d="M473.789 84.698s-9.572 23.166-27.829 25.474-9.359-54.703 6.062-61.981c15.421-7.279 29.034 13.606 23.362 28.696 0 0 8.419-7.723 12.674-2.93 4.254 4.882-11.788 20.593-14.269 10.74z" fill="#FBC9BE"/><path d="M493.529 74.917s1.3-7.972-4.389-8.591c-3.251-.355-47.873-4.518-60.878-5.758-1.95-.177-3.739 1.418-3.901 3.543-.488 6.643-.813 19.309 4.714 20.194 7.478 1.24 17.15-12.311 19.913-10.185 2.682 2.037 3.251 13.374 12.598 11.957 9.347-1.417 14.685-9.953 18.345-14.99" stroke="#fff" stroke-miterlimit="10" stroke-linecap="round"/><path d="M459.431 89.935c-.177-.266-.531-.444-.797-.266-3.191 1.331-9.217 3.462-14.003 2.574-.443-.089-.798.177-.975.621-.177.444-.089 1.154.354 1.42a7.959 7.959 0 004.432 1.332c2.658 0 6.204-1.154 10.812-4.527.355-.355.355-.888.177-1.154z" fill="#EF5F79"/><path d="M462.267 71.029c-2.747-.888-7.622-1.953-10.28 1.597-.266.267-.178.71 0 .977a.802.802 0 00.62.266c.089 0 .266 0 .355-.089 1.418-.71 4.519-1.952 8.951-1.509.354 0 .62-.177.709-.532.177-.266 0-.621-.355-.71zm-19.941-2.309c-2.392-.532-3.988 2.042-4.076 2.131-.089.178-.089.444.088.533.178.177.355.177.532 0 2.216-1.775 4.609.444 4.697.532.089.09.177.09.266.09h.177a.487.487 0 00.266-.445c.177-.799-.266-2.485-1.95-2.84z" fill="#4F253E"/><path d="M129.211 167.69s8.951 6.391 15.598 16.066c7.09 10.385 14.978 21.48 11.522 25.296-6.736 7.368-26.588-21.568-31.64-36.924-1.329-3.994-.532-6.569 4.52-4.438z" fill="#23607A"/><path d="M169.713 78.041c2.659.8 6.913 1.51 12.585.267 1.95-.444 3.013 2.218 1.329 3.284-4.254 2.84-12.496 5.77-28.183 5.414-2.215-.089-4.165 1.065-5.406 2.93-7.267 11.538-32.526 53.256-33.235 80.239 0 0 .798 7.456 12.319-2.485 0 0 10.015 5.769 19.143 21.569 0 0-35.539 28.936-56.188 11.628-20.296-17.042 7.001-78.643 44.578-121.16 1.064-1.153 1.684-2.662 1.862-4.26.531-5.237 5.051-20.149 13.648-35.504 1.152-2.13 4.343-.8 3.722 1.509-.797 3.106-2.215 7.81-2.393 10.03-.088.798.975 1.065 1.33.443 2.659-5.059 9.128-16.864 16.573-25.208 1.595-1.775 4.431.178 3.368 2.308-3.102 5.858-6.559 13.137-7.622 18.019-.177.798.886 1.242 1.329.532 2.748-4.615 8.951-14.29 16.307-20.947 1.862-1.687 4.432.798 3.014 2.751-3.811 5.06-8.243 11.361-10.724 16.953-.355.8.709 1.42 1.241.71 3.013-3.639 8.153-9.32 13.648-13.225 2.039-1.42 4.343 1.332 2.659 3.107-7.622 7.988-19.321 21.569-26.765 36.392-.975 1.864-.089 4.083 1.861 4.704z" fill="#81565D"/><path d="M124.929 90.124c-1.152-.976-1.241-2.662-.355-3.727l7.799-9.32c.975-1.154 2.659-1.243 3.723-.355 1.152.976 1.24 2.662.354 3.728l-7.799 9.32c-.886 1.153-2.57 1.242-3.722.355z" fill="#112440"/><path d="M129.831 87.36s8.331 8.788 15.067 11.185l3.368-5.592s-7.356-2.22-14.358-10.385l-4.077 4.793z" fill="#112440"/><path d="M164.041 71.472c-12.94-1.509-18.168 11.717-18.168 11.717m3.367-22.812s10.104 4.882 25.347.622" stroke="#66465C" stroke-miterlimit="10" stroke-linecap="round" stroke-linejoin="round"/><path d="M236.094 45.2s-2.659-32.487-2.393-37.458c.177-4.97 5.938.71 6.736 0 .797-.71 1.684-4.793 2.747-4.882 1.064-.089 4.874 3.373 5.761 2.308.886-.976 2.747-5.503 3.811-5.148 1.152.266 2.836 5.947 4.431 5.06 1.595-.888 2.127-4.084 3.368-3.818 1.241.178 6.381 12.605 7.976 23.788 1.507 11.273-32.437 20.15-32.437 20.15z" fill="#352248"/><path d="M224.75 113.101s19.32 20.149 27.474 36.836c0 0 10.457-17.929 10.28-28.403 0-.444-.177-.799-.354-1.154-1.596-2.397-9.395-10.74-37.4-7.279z" fill="#fff"/><path d="M224.75 113.102s6.026.621 8.951-18.729c2.924-19.35 2.836-38.167 2.836-38.167s-4.432 1.242-7.356-9.231c-2.925-10.474 5.672-8.788 7.976-3.995 0 0 3.545-1.952 3.988-10.562.443-8.61.621-10.208 4.609-11.805 3.988-1.598 16.75-2.22 20.295-1.42 3.545.798 6.824 39.232 2.836 48.907-2.304 5.68-11.964 8.787-19.763 6.035 0 0-2.748 33.907 11.61 47.31.088 0-14.712 8.788-35.982-8.343z" fill="#81565D"/><path d="M251.627 41.322c-.772 0-1.373-.572-1.373-1.308V38.05c0-.736.601-1.308 1.373-1.308S253 37.314 253 38.05v1.963c0 .736-.601 1.308-1.373 1.308zm10.066-.915c-.772 0-1.373-.458-1.373-1.047v-1.57c0-.589.601-1.047 1.373-1.047s1.372.458 1.372 1.047v1.57c-.086.589-.686 1.047-1.372 1.047zm-14.029-7.377c4.935-2.814 12.277-5.628 22.026-6.003.843 0 .963-2.063.12-2.251-5.295-1.5-13.721-1.876-22.868 6.19-.722.563-.241 2.44.722 2.064zm12.979 12.871c-3.975 0-8.946 2.147-10.192 6.754-1.595 5.77-1.609 12.645-3.19 13.936-1.582 1.291-5.949-4.172-7.987-26.185l-2.288 1.832s1.767 10.062 2.83 17.43c1.064 7.367 4.077 12.515 9.483 15.355 5.583 2.84 14.003 3.196 18.966-2.84 1.799-2.342 3.613-9.19 3.036-15.31 0-6.85-3.379-11.197-10.658-10.971zm4.71 22.439c-2.865 2.473-14.951 3.235-13.726-3.206.266-1.952.93-5.519 1.373-9.158.669-5.495 12.72-6.411 14.183-1.832 1.418 4.438 1.892 11-1.83 14.196z" fill="#352248"/><path d="M260.289 61.322h-.532c-3.191-.267-5.14-2.575-5.406-2.84-.709-.889-.621-2.131.266-2.93.886-.71 2.127-.621 2.836.266 0 .09 1.152 1.243 2.57 1.332.975.089 2.038-.355 3.102-1.332.886-.799 2.127-.71 2.924.178.798.887.709 2.13-.177 2.929-1.772 1.598-3.633 2.397-5.583 2.397z" fill="#714253"/><path d="M276.791 265.706c9.121 12.721 30.44 40.82 44.034 53.308a.966.966 0 001.446-.156c6.358-8.895 19.112-30.913 24.064-54.983" stroke="#1651A8" stroke-linecap="round"/><path opacity=".25" d="M220.058 119.627c7.359 9.28 23.522 30.33 31.223 42.656.383.613 1.264.644 1.667.044 6.864-10.215 18.308-31.539 15.15-44.531" stroke="#23607A" stroke-linecap="round"/><path d="M349.032 62.254V81.87c0 1.065 1.152 1.775 2.127 1.242l16.13-9.763c.886-.533.886-1.864 0-2.397l-16.13-9.764c-.975-.71-2.127 0-2.127 1.066z" fill="#74D1DE"/><path d="M597.58 226.122c-7.248 3.2-28.369 14.592-45.281 47.91-.234.39.078.936.546.858 4.052-.234 19.25-2.263 29.927-21.614 8.729-15.918 11.924-22.472 15.353-26.451.234-.39-.156-.937-.545-.703zm-8.417 41.98c-3.196.234-17.692 1.872-23.849 11.86-.155.234 0 .468.234.546 2.806.312 15.899.936 23.926-11.86.078-.234-.078-.546-.311-.546z" fill="#EF5F79"/><path d="M578.252 217.539c-.78 2.731 0 10.378-6.391 14.904-.234.156-.546 0-.546-.313-.689-2.656-1.091-10.143 6.391-14.903.312-.156.623 0 .546.312z" fill="#BD4780"/><path d="M618.622 232.442c-3.117.078-18.86 1.249-24.471 16.386-.078.234.077.39.311.39 2.494-.156 15.042-1.794 24.394-16.385.078-.078 0-.391-.234-.391z" fill="#EF5F79"/><path d="M242.076 121.935c-.152-.763-.091-2.747 1.373-4.579 1.83-2.289 4.975 11.43 2.23 7.767-2.703-3.609 2.288-10.075 4.632-9.599 2.635.536 2.231 8.683.859 6.393-1.268-2.114 2.344-4.561 3.717-5.019" stroke="#66465C" stroke-linecap="round"/></svg>