<svg width="1440" height="831" fill="none" xmlns="http://www.w3.org/2000/svg"><path d="M504 627.655v-18.471c0-19.661-12.657-37.087-31.353-43.168a45.394 45.394 0 00-35.609 3.225l-32.688 17.65a100 100 0 01-64.024 10.635l-103.738-17.367a99.003 99.003 0 00-46.334 3.292L143.51 598.31c-41.167 13.085-57.518 62.58-32.248 97.613a63.495 63.495 0 018.599 16.651l16.501 48.409c12.561 36.849 54.972 53.879 89.529 35.949a63.647 63.647 0 0116.837-5.916l118.428-23.662a99.996 99.996 0 0063.803-42.88l11.565-17.479a60.29 60.29 0 0128.734-23.038c23.333-8.926 38.742-31.32 38.742-56.302zM85.754 36.073L208.826 6.892a55.221 55.221 0 0166.758 65.188l-13.433 63.328 2.816 14.521c8.831 45.553-26.062 87.86-72.463 87.86-6.47 0-12.912-.85-19.16-2.53l-73.13-19.656a99.997 99.997 0 00-63.044 3.704l-58.186 23.236a49.482 49.482 0 01-41.366-2.15c-30.696-16.129-35.711-58.011-9.691-80.932L42.724 58.337a100 100 0 0143.03-22.264zm999.006 283.386l-89.027 33.711a82.886 82.886 0 01-66.314-3.327c-44.405-22.124-59.559-78.04-32.402-119.559l19.719-30.146a99.999 99.999 0 0139.503-34.97l121.621-59.901a99.985 99.985 0 0157.41-9.411l63.31 8.449a99.986 99.986 0 0066.48-14.479l44.85-28.213c23.14-14.564 53.15-11.995 73.48 6.294a61.182 61.182 0 0118.8 58.845l-15.18 67.853a95.209 95.209 0 00-.37 39.842c12.07 59.004-33.02 114.237-93.24 114.237h-8.05c-8.33 0-16.62-1.04-24.69-3.097l-115.79-29.51a100.002 100.002 0 00-60.11 3.382zm157.3 391.899l-28.83 33.751a17.626 17.626 0 00-4.23 11.454c0 10.767 9.57 19.021 20.22 17.444l72.38-10.716a80.743 80.743 0 0039.73-17.725l35.5-29.44a100 100 0 0022.77-26.98l11.23-19.448a69.734 69.734 0 0133.38-29.411l37.3-15.663c14.17-5.951 21-22.128 15.38-36.432a28.298 28.298 0 00-20.16-17.256l-80.42-17.992c-45.32-15.366-94.96 5.611-115.53 48.817l-.83 1.732a96.394 96.394 0 00-7.33 21.733l-8.72 41.66a99.9 99.9 0 01-21.84 44.472zm-681.343 14.527l2.622-14.547a11.158 11.158 0 00-14.163-12.675l-12.664 3.766-18.155 4.204A30.163 30.163 0 00495 736.018v12.843a16.304 16.304 0 0029.647 9.374l5.32-7.572a20.172 20.172 0 0113.702-8.38 20.17 20.17 0 0017.048-16.398z" opacity=".5" stroke="#DEE2E9" stroke-width="2"/></svg>