<svg width="1440" height="941" fill="none" xmlns="http://www.w3.org/2000/svg"><g style="mix-blend-mode:overlay" opacity=".25" stroke="#fff" stroke-width="2"><path d="M1364.17 642h100.65c18.3 0 32.38-15.254 32.38-33.414v-95.157c0-18.887-14.78-33.414-32.38-33.414h-100.65V375.414c0-18.886-14.79-33.414-32.38-33.414h-92.21c-18.3 0-32.38 15.254-32.38 33.414v104.601c0 89.346 70.39 161.985 156.97 161.985z"/><path d="M1238.87 342h93.62c17.6 0 32.38 14.528 32.38 33.414v104.601h-107.69c-27.46 0-49.98-23.245-49.98-51.574v-53.027c0-18.886 14.08-33.414 31.67-33.414z"/></g><g style="mix-blend-mode:overlay" opacity=".5" stroke="#fff" stroke-width="2"><path d="M854.489 216h33.552c6.1 0 10.793-5.085 10.793-11.138v-31.719c0-6.296-4.928-11.138-10.793-11.138h-33.552v-34.867c0-6.295-4.927-11.138-10.793-11.138H812.96c-6.1 0-10.793 5.085-10.793 11.138v34.867c0 29.782 23.463 53.995 52.322 53.995z"/><path d="M812.725 116h31.206c5.865 0 10.793 4.843 10.793 11.138v34.867h-35.898c-9.151 0-16.659-7.748-16.659-17.191v-17.676c0-6.295 4.693-11.138 10.558-11.138z"/></g><g style="mix-blend-mode:overlay" opacity=".5" stroke="#fff" stroke-width="2"><path d="M1153.09 539.424h-134.82c-24.345 0-43.07 20.339-43.07 44.552v126.877c0 25.181 19.661 44.552 43.07 44.552h134.82v138.499c0 25.181 19.66 44.552 43.06 44.552h122.65c24.34 0 43.07-20.339 43.07-44.552V755.405c0-119.128-93.63-215.981-208.78-215.981z"/><path d="M1319.74 939.424h-124.52c-23.41 0-43.07-19.37-43.07-44.552V755.405h143.24c36.52 0 66.48 30.993 66.48 68.765v70.702c0 24.213-18.73 44.552-42.13 44.552z"/></g><g style="mix-blend-mode:overlay" opacity=".5" stroke="#fff" stroke-width="2"><path d="M608.838 760h-33.705c-6.085 0-10.766 5.078-10.766 11.122v31.675c0 6.287 4.915 11.122 10.766 11.122h33.705v34.577c0 6.286 4.915 11.122 10.767 11.122h30.662c6.085 0 10.766-5.078 10.766-11.122v-34.577c0-29.74-23.406-53.919-52.195-53.919z"/><path d="M650.501 859.86h-31.13c-5.852 0-10.767-4.836-10.767-11.123v-34.818h35.811c9.128 0 16.618 7.738 16.618 17.168v17.65c0 6.045-4.681 11.123-10.532 11.123z"/></g><g style="mix-blend-mode:overlay" opacity=".25" stroke="#fff" stroke-width="2"><path d="M392.334 176h16.876c3.047 0 5.391-2.542 5.391-5.569v-15.86c0-3.147-2.461-5.569-5.391-5.569h-16.876V131.69c0-3.148-2.461-5.569-5.391-5.569h-15.352c-3.047 0-5.391 2.542-5.391 5.569v17.312c0 14.891 11.719 26.998 26.134 26.998z"/><path d="M371.473 126h15.587c2.93 0 5.391 2.421 5.391 5.569v17.433h-17.93c-4.571 0-8.321-3.874-8.321-8.595v-8.838c0-3.027 2.344-5.569 5.273-5.569z"/></g><g style="mix-blend-mode:overlay" opacity=".25" stroke="#fff" stroke-width="2"><path d="M213.462 735.86h33.705c6.085 0 10.767-5.078 10.767-11.123v-31.674c0-6.287-4.916-11.123-10.767-11.123h-33.705v-34.576c0-6.286-4.915-11.122-10.766-11.122h-30.662c-6.086 0-10.767 5.077-10.767 11.122v34.576c0 29.741 23.406 53.92 52.195 53.92z"/><path d="M171.8 636h31.13c5.851 0 10.766 4.836 10.766 11.122v34.818h-35.811c-9.128 0-16.618-7.737-16.618-17.167v-17.651c0-6.044 4.681-11.122 10.533-11.122z"/></g><g style="mix-blend-mode:overlay" opacity=".5" stroke="#fff" stroke-width="2"><path d="M62.573 673H-6.956c-12.554 0-22.21 10.475-22.21 22.944v65.342c0 12.968 10.14 22.944 22.21 22.944h69.529v71.327c0 12.968 10.14 22.944 22.21 22.944h63.252c12.554 0 22.211-10.474 22.211-22.944V784.23c0-61.351-48.284-111.23-107.673-111.23z"/><path d="M148.518 879H84.301c-12.071 0-22.21-9.976-22.21-22.944V784.23h73.874c18.83 0 34.281 15.961 34.281 35.414v36.412c0 12.469-9.657 22.944-21.728 22.944z"/></g><g style="mix-blend-mode:overlay" opacity=".25" stroke="#fff" stroke-width="2"><path d="M150.643 107h-67.41c-12.17 0-21.533 10.155-21.533 22.245v63.349c0 12.573 9.83 22.245 21.534 22.245h67.409v69.152c0 12.574 9.83 22.245 21.533 22.245H233.5c12.171 0 21.533-10.155 21.533-22.245v-69.152c0-59.481-46.812-107.839-104.39-107.839z"/><path d="M233.968 306.72h-62.26c-11.703 0-21.533-9.672-21.533-22.245v-69.636h71.622c18.257 0 33.236 15.475 33.236 34.335v35.301c0 12.09-9.362 22.245-21.065 22.245z"/></g><g style="mix-blend-mode:overlay" opacity=".25" stroke="#fff" stroke-width="2"><path d="M1135.68 1h-101.11c-18.26 0-32.3 15.254-32.3 33.414v95.157c0 18.886 14.74 33.414 32.3 33.414h101.11v103.874c0 18.886 14.75 33.414 32.3 33.414h91.99c18.25 0 32.3-15.254 32.3-33.414V162.985C1292.27 73.639 1222.05 1 1135.68 1z"/><path d="M1260.67 300.999h-93.39c-17.56 0-32.3-14.527-32.3-33.413V162.985h107.43c27.39 0 49.86 23.245 49.86 51.574v53.027c0 18.159-14.05 33.413-31.6 33.413z"/></g></svg>