<svg width="715" height="918" fill="none" xmlns="http://www.w3.org/2000/svg"><path opacity=".5" d="M714 714.655v-18.471c0-19.661-12.657-37.087-31.353-43.168a45.394 45.394 0 00-35.609 3.225l-32.688 17.65a100 100 0 01-64.024 10.635l-103.738-17.367a99.003 99.003 0 00-46.334 3.292L353.51 685.31c-41.167 13.085-57.518 62.58-32.248 97.613a63.495 63.495 0 018.599 16.651l16.501 48.409c12.561 36.849 54.972 53.879 89.529 35.949a63.647 63.647 0 0116.837-5.916l118.428-23.662a99.996 99.996 0 0063.803-42.88l11.565-17.479a60.29 60.29 0 0128.734-23.038c23.333-8.926 38.742-31.32 38.742-56.302zm-499.283-60.77l2.622-14.547a11.158 11.158 0 00-14.163-12.675l-12.664 3.766-18.155 4.204A30.163 30.163 0 00149 664.018v12.843a16.304 16.304 0 0029.647 9.374l5.32-7.572a20.172 20.172 0 0113.702-8.38 20.17 20.17 0 0017.048-16.398zm-2.963-617.812L334.826 6.892a55.221 55.221 0 0166.758 65.188l-13.433 63.328 2.816 14.521c8.831 45.553-26.062 87.861-72.463 87.86-6.47 0-12.912-.85-19.16-2.53l-73.13-19.656a99.998 99.998 0 00-63.044 3.704l-58.186 23.236a49.482 49.482 0 01-41.366-2.15c-30.696-16.129-35.711-58.011-9.691-80.932L168.724 58.337a100.002 100.002 0 0143.03-22.264z" stroke="#DEE2E9" stroke-width="2"/></svg>