<svg width="239" height="50" fill="none" xmlns="http://www.w3.org/2000/svg"><path d="M13.755 21.274H4.088A3.08 3.08 0 001 24.362v8.794a3.08 3.08 0 003.088 3.089h9.667v9.6a3.08 3.08 0 003.088 3.088h8.795a3.08 3.08 0 003.088-3.088v-9.6c0-8.258-6.713-14.971-14.97-14.971z" stroke="#fff" stroke-width="2"/><path d="M25.705 49h-8.929a3.08 3.08 0 01-3.088-3.088v-9.667h10.271c2.619 0 4.767 2.148 4.767 4.766v4.9c0 1.68-1.343 3.089-3.021 3.089zm10.54-20.274h9.6a3.08 3.08 0 003.088-3.088v-8.795a3.08 3.08 0 00-3.088-3.088h-9.6V4.088A3.08 3.08 0 0033.156 1h-8.794a3.08 3.08 0 00-3.088 3.088v9.667c0 8.258 6.713 14.97 14.97 14.97z" stroke="#fff" stroke-width="2"/><path d="M24.295 1h8.929a3.08 3.08 0 013.088 3.088v9.667H26.04c-2.618 0-4.766-2.148-4.766-4.766v-4.9c0-1.746 1.343-3.089 3.02-3.089z" stroke="#fff" stroke-width="2"/><path fill-rule="evenodd" clip-rule="evenodd" d="M65.811 33.704c-2.698 0-4.878-2.143-4.878-4.805V16h2.587v12.9c0 1.22 1.035 2.254 2.291 2.254v2.55zm19.11-4.953c0 2.883 2.365 5.249 5.248 5.249 2.402 0 3.88 0 6.172-1.294l-1.256-2.254c-1.738.96-2.625.96-4.953.96a2.65 2.65 0 01-2.661-2.66v-.185h9.572v-3.364c0-2.883-2.365-5.248-5.248-5.248h-1.626c-2.883 0-5.249 2.365-5.249 5.248v3.549zm9.498-2.771h-6.948v-.777a2.65 2.65 0 012.66-2.66h1.627a2.65 2.65 0 012.661 2.66v.777zM153.261 34h-1.589c-2.809 0-5.101-2.366-5.101-5.248v-3.549c0-2.883 2.292-5.248 5.101-5.248h1.589c2.44 0 3.955 1.146 4.953 3.215l-2.255 1.146c-.591-1.182-1.219-1.774-2.735-1.774h-1.589c-1.442 0-2.587 1.183-2.587 2.661v3.549c0 1.478 1.182 2.66 2.587 2.66h1.589c1.516 0 2.144-.59 2.735-1.773l2.255 1.145c-.998 2.07-2.513 3.216-4.953 3.216zm65.051 0h-1.589c-2.809 0-5.1-2.366-5.1-5.248v-3.549c0-2.883 2.291-5.248 5.1-5.248h1.589c2.44 0 3.955 1.146 4.953 3.215l-2.254 1.146c-.592-1.182-1.22-1.774-2.735-1.774h-1.59c-1.441 0-2.587 1.183-2.587 2.661v3.549c0 1.478 1.183 2.66 2.587 2.66h1.59c1.515 0 2.143-.59 2.735-1.773l2.254 1.145c-.998 2.07-2.513 3.216-4.953 3.216zm-93.548 0c-2.883 0-5.248-2.366-5.248-5.248v-3.549c0-2.883 2.365-5.248 5.248-5.248h1.626c2.883 0 5.249 2.365 5.249 5.248v3.364h-9.536v.184a2.65 2.65 0 002.661 2.662c2.329 0 3.216 0 4.953-.961l1.257 2.254C128.645 34 127.167 34 124.764 34zm-2.698-8.02h6.949v-.777a2.65 2.65 0 00-2.661-2.66h-1.627a2.65 2.65 0 00-2.661 2.66v.777zm75.844 2.771c0 2.883 2.366 5.249 5.249 5.249 2.439 0 3.917 0 6.209-1.294l-1.257-2.254c-1.737.96-2.624.96-4.952.96a2.65 2.65 0 01-2.662-2.66v-.185h9.536v-3.364c0-2.883-2.365-5.248-5.248-5.248h-1.626c-2.883 0-5.249 2.365-5.249 5.248v3.549zm9.536-2.771h-6.949v-.777a2.65 2.65 0 012.662-2.66h1.626a2.65 2.65 0 012.661 2.66v.777zm-23.803 7.724h-2.587v-8.723a2.461 2.461 0 00-2.44-2.439h-1.33a2.461 2.461 0 00-2.44 2.44v8.722h-2.587v-8.723a5.032 5.032 0 015.027-5.026h1.33a5.032 5.032 0 015.027 5.027v8.722zm10.164 0h2.588v-8.723a5.032 5.032 0 00-5.027-5.026h-1.331a5.031 5.031 0 00-5.026 5.027v8.722h2.587v-8.723a2.461 2.461 0 012.439-2.439h1.331a2.46 2.46 0 012.439 2.44v8.722zm36.666-13.675v2.44h-3.364v6.43c0 1.257 1.035 2.255 2.292 2.255v2.55c-2.698 0-4.879-2.18-4.879-4.805V16h2.587v4.029h3.364zM142.432 16v3.179c0 .277.009.554.018.831.009.277.019.555.019.832-.74-.591-1.664-.924-2.736-.924h-1.626c-2.883 0-5.248 2.365-5.248 5.248v3.549c0 2.883 2.365 5.248 5.248 5.248h1.626c2.883 0 5.249-2.366 5.249-5.248V16h-2.55zm-2.662 15.413h-1.626a2.65 2.65 0 01-2.661-2.662v-3.548a2.65 2.65 0 012.661-2.66h1.626a2.65 2.65 0 012.662 2.66v3.549a2.65 2.65 0 01-2.662 2.66zM164.091 34h1.626c2.883 0 5.248-2.366 5.248-5.248v-3.549c0-2.883-2.365-5.248-5.248-5.248h-1.626c-2.883 0-5.249 2.365-5.249 5.248v3.549c0 2.883 2.366 5.248 5.249 5.248zm-2.662-8.797a2.65 2.65 0 012.662-2.66h1.626a2.65 2.65 0 012.661 2.66v3.549a2.65 2.65 0 01-2.661 2.66h-1.626a2.65 2.65 0 01-2.662-2.66v-3.549zm-90.887-4.99h-2.587v13.491h2.587v-13.49zm41.286-.258h1.368c2.661 0 4.804 2.144 4.878 4.805v8.944h-2.587V24.76a2.264 2.264 0 00-2.255-2.255h-1.367a2.264 2.264 0 00-2.255 2.255v8.944h-2.587V24.76a2.264 2.264 0 00-2.255-2.255h-1.367a2.264 2.264 0 00-2.255 2.255v8.981h-2.587v-8.944c0-2.662 2.181-4.842 4.842-4.842h1.367c1.553 0 2.736.776 3.512 1.959.813-1.183 1.959-1.96 3.548-1.96zm-29.532.259l-3.807 10.423-3.844-10.423h-2.809L77.16 34h2.624l5.322-13.786h-2.809zm152.501-.222h-2.291v.332h.924v2.107h.443v-2.107h.924v-.332zm2.883.739v1.737h.444v-2.44h-.37l-1.109 1.664-1.109-1.663h-.369v2.44h.406v-1.701l.961 1.404h.185l.961-1.441z" fill="#fff"/></svg>