<svg width="592" height="120" fill="none" xmlns="http://www.w3.org/2000/svg"><path d="M31.845 50.685H7.71c-4.358 0-7.71 3.525-7.71 7.72v21.987c0 4.363 3.52 7.72 7.71 7.72h24.135v24c0 4.364 3.52 7.72 7.71 7.72H61.51c4.358 0 7.71-3.524 7.71-7.72v-24c0-20.643-16.76-37.427-37.375-37.427z" fill="#FF4C77"/><path opacity=".25" d="M61.677 120H39.386a7.694 7.694 0 01-7.71-7.72V88.112H57.32c6.537 0 11.9 5.37 11.9 11.916v12.252c0 4.196-3.352 7.72-7.542 7.72z" fill="#83003F"/><path d="M87.99 69.315h23.968c4.358 0 7.71-3.525 7.71-7.72V39.607c0-4.363-3.52-7.72-7.71-7.72H87.991V7.72c0-4.363-3.52-7.72-7.71-7.72H58.325c-4.358 0-7.71 3.524-7.71 7.72v24.168c0 20.643 16.76 37.427 37.376 37.427z" fill="#00AED5"/><path opacity=".25" d="M58.157 0H80.45c4.19 0 7.71 3.357 7.71 7.72v24.168H62.514c-6.537 0-11.9-5.37-11.9-11.916V7.72c0-4.363 3.352-7.72 7.542-7.72z" fill="#112440"/><path fill-rule="evenodd" clip-rule="evenodd" d="M161.807 81.76c-6.736 0-12.18-5.359-12.18-12.011V37.5h6.459v32.249c0 3.049 2.584 5.636 5.721 5.636v6.376zm47.708-12.381c0 7.207 5.905 13.121 13.103 13.121 5.998 0 9.689 0 15.41-3.234l-3.137-5.637c-4.337 2.403-6.552 2.403-12.365 2.403a6.62 6.62 0 01-6.644-6.653v-.462h23.899v-8.409c0-7.207-5.905-13.12-13.103-13.12h-4.06c-7.198 0-13.103 5.913-13.103 13.12v8.87zm23.715-6.93h-17.348v-1.94a6.62 6.62 0 016.644-6.654h4.06a6.62 6.62 0 016.644 6.653v1.94zM380.133 82.5h-3.967c-7.013 0-12.735-5.914-12.735-13.121v-8.87c0-7.208 5.722-13.122 12.735-13.122h3.967c6.091 0 9.874 2.865 12.366 8.04l-5.629 2.864c-1.477-2.957-3.045-4.436-6.829-4.436h-3.968c-3.598 0-6.459 2.957-6.459 6.653v8.87c0 3.697 2.953 6.654 6.459 6.654h3.968c3.784 0 5.352-1.479 6.829-4.435l5.629 2.864c-2.492 5.174-6.275 8.039-12.366 8.039zm162.407 0h-3.968c-7.013 0-12.734-5.914-12.734-13.121v-8.87c0-7.208 5.721-13.122 12.734-13.122h3.968c6.09 0 9.873 2.865 12.365 8.04l-5.629 2.864c-1.477-2.957-3.045-4.436-6.829-4.436h-3.968c-3.598 0-6.459 2.957-6.459 6.653v8.87c0 3.697 2.953 6.654 6.459 6.654h3.968c3.784 0 5.352-1.479 6.829-4.435l5.629 2.864c-2.492 5.174-6.275 8.039-12.365 8.039zm-233.552 0c-7.198 0-13.103-5.914-13.103-13.121v-8.87c0-7.208 5.905-13.122 13.103-13.122h4.06c7.198 0 13.103 5.914 13.103 13.121v8.409h-23.807v.462a6.62 6.62 0 006.644 6.653c5.813 0 8.028 0 12.365-2.403l3.137 5.637c-5.813 3.234-9.504 3.234-15.502 3.234zm-6.736-20.051H319.6v-1.94a6.62 6.62 0 00-6.644-6.654h-4.06a6.62 6.62 0 00-6.644 6.653v1.94zm189.351 6.93c0 7.207 5.906 13.121 13.104 13.121 6.09 0 9.781 0 15.502-3.234l-3.137-5.637c-4.337 2.403-6.552 2.403-12.365 2.403a6.62 6.62 0 01-6.644-6.653v-.462h23.807v-8.409c0-7.207-5.906-13.12-13.103-13.12h-4.06c-7.198 0-13.104 5.913-13.104 13.12v8.87zm23.808-6.93h-17.348v-1.94a6.62 6.62 0 016.644-6.654h4.06a6.62 6.62 0 016.644 6.653v1.94zM455.984 81.76h-6.459V59.954c0-3.327-2.769-6.099-6.09-6.099h-3.322c-3.322 0-6.091 2.772-6.091 6.099V81.76h-6.459V59.954c0-6.93 5.629-12.567 12.55-12.567h3.322c6.92 0 12.549 5.637 12.549 12.567V81.76zm25.377 0h6.459V59.954c0-6.93-5.629-12.567-12.55-12.567h-3.322c-6.92 0-12.549 5.637-12.549 12.567V81.76h6.459V59.954c0-3.327 2.768-6.099 6.09-6.099h3.322c3.322 0 6.091 2.772 6.091 6.099V81.76zm91.538-34.19v6.1h-8.398v16.078c0 3.141 2.584 5.636 5.722 5.636v6.376c-6.737 0-12.181-5.452-12.181-12.012V37.5h6.459v10.072h8.398zM353.096 37.5v7.947c0 .693.023 1.386.046 2.079.023.693.046 1.386.046 2.079-1.845-1.479-4.152-2.31-6.828-2.31h-4.06c-7.198 0-13.103 5.913-13.103 13.12v8.872c0 7.207 5.905 13.12 13.103 13.12h4.06c7.197 0 13.103-5.913 13.103-13.12V37.5h-6.367zm-6.644 38.532h-4.06a6.62 6.62 0 01-6.644-6.653v-8.87a6.62 6.62 0 016.644-6.654h4.06a6.62 6.62 0 016.644 6.653v8.87a6.62 6.62 0 01-6.644 6.654zM407.17 82.5h4.06c7.198 0 13.104-5.914 13.104-13.121v-8.87c0-7.208-5.906-13.122-13.104-13.122h-4.06c-7.197 0-13.103 5.914-13.103 13.121v8.87c0 7.208 5.906 13.122 13.103 13.122zm-6.644-21.992a6.62 6.62 0 016.644-6.653h4.06a6.62 6.62 0 016.644 6.653v8.87a6.62 6.62 0 01-6.644 6.654h-4.06a6.62 6.62 0 01-6.644-6.653v-8.87zM173.619 48.034h-6.46V81.76h6.46V48.034zm103.073-.647h3.414c6.644 0 11.996 5.36 12.181 12.012v22.362h-6.46V59.399c0-3.141-2.583-5.636-5.629-5.636h-3.414c-3.137 0-5.629 2.587-5.629 5.636v22.362h-6.459V59.399c0-3.141-2.584-5.636-5.629-5.636h-3.414c-3.137 0-5.629 2.587-5.629 5.636v22.454h-6.459V59.492c0-6.653 5.444-12.105 12.088-12.105h3.414c3.876 0 6.829 1.94 8.766 4.897 2.031-2.956 4.891-4.897 8.859-4.897zm-73.73.647l-9.504 26.057-9.597-26.057h-7.013L190.136 82.5h6.552l13.287-34.466h-7.013zm380.733-.554h-5.721v.831h2.307v5.267h1.107v-5.267h2.307v-.831zm7.198 1.848v4.342H592v-6.098h-.923l-2.768 4.158-2.768-4.158h-.923v6.098h1.015v-4.25l2.399 3.511h.462l2.399-3.603z" fill="#112440"/></svg>