<svg width="36" height="36" fill="none" xmlns="http://www.w3.org/2000/svg"><path d="M9.566 15.206h-7.25A2.31 2.31 0 000 17.522v6.596a2.31 2.31 0 002.316 2.316h7.25v7.2a2.31 2.31 0 002.316 2.316h6.596a2.31 2.31 0 002.316-2.317v-7.2c0-6.192-5.035-11.227-11.228-11.227z" fill="#FF4D77"/><path d="M18.529 36h-6.697a2.31 2.31 0 01-2.316-2.316v-7.25h7.704a3.589 3.589 0 013.574 3.574v3.676c0 1.259-1.007 2.316-2.265 2.316z" fill="#C5005E"/><path d="M26.433 20.794h7.2a2.31 2.31 0 002.317-2.316v-6.596a2.31 2.31 0 00-2.317-2.316h-7.2v-7.25A2.31 2.31 0 0024.117 0h-6.595a2.31 2.31 0 00-2.316 2.316v7.25c0 6.193 5.035 11.228 11.227 11.228z" fill="#00AED5"/><path opacity=".25" d="M17.471 0h6.697a2.31 2.31 0 012.316 2.316v7.25H18.78a3.589 3.589 0 01-3.574-3.574V2.316C15.206 1.007 16.213 0 17.47 0z" fill="#112440"/></svg>