<svg width="39" height="44" fill="none" xmlns="http://www.w3.org/2000/svg"><path d="M.845 5.631a1.191 1.191 0 00-.833 1.305L2.067 23.24C3.761 35.571 15.954 42.486 18.62 43.875c.333.167.722.167 1.028 0 2.694-1.389 14.859-8.276 16.553-20.636l2.055-16.303a1.191 1.191 0 00-.833-1.305L19.843.104a2.46 2.46 0 00-1.417 0L.846 5.631z" fill="url(#paint0_radial)"/><path d="M30.674 9.575L24.897 7.88c-.417-.111-.861 0-1.194.305-.834.806-1.889 1.278-3 1.278h-3.11c-1.111 0-2.139-.472-3-1.278a1.273 1.273 0 00-1.194-.305L7.622 9.575c-.167.055-.194.305-.028.389l2.416 1.222a6.835 6.835 0 004.555.61c1.111-.25 2.25-.36 3.389-.36h2.388c1.139 0 2.277.11 3.389.36a6.835 6.835 0 004.554-.61l2.417-1.222c.138-.084.138-.334-.028-.39z" fill="#fff"/><path d="M17.981 7.936l.778.445c.25.139.527.139.777 0l.778-.445a.792.792 0 00.389-.694.818.818 0 00-.417-.694l-.777-.417a.727.727 0 00-.75 0l-.778.417a.818.818 0 00-.417.694c.028.278.167.555.417.694zm6.804 14.804a3.09 3.09 0 00-1.11-.89c-.112-.055-.223-.083-.334-.138l-.166-.056-.14-.055-.527-.167-1.055-.333-2.111-.694-4.222-1.361-.25-.084a1.354 1.354 0 01-.194-.083c-.139-.056-.278-.111-.389-.194a2.056 2.056 0 01-.639-.556 2.464 2.464 0 01-.389-.694c-.027-.056-.027-.111-.055-.195 0-.027-.028-.055-.028-.083l-.028-.139c-.027-.194-.055-.36-.083-.555l-.056-.25v-.111c0-.056 0-.14.056-.223a.722.722 0 01.417-.388c.027 0 .055-.028.083-.028 0 0 .028 0 .028-.028h.055l.278-.083c.167-.056.361-.111.528-.167.36-.111.694-.25 1.055-.389a.486.486 0 00.306-.5c-.028-.25-.25-.472-.5-.472h-.028c-.361.028-.75.084-1.111.111-.194.028-.361.056-.555.084l-.278.055h-.084c-.027 0-.055 0-.083.028-.055.028-.11.028-.194.056-.5.166-.972.5-1.25 1-.139.25-.25.527-.278.833-.027.138 0 .305 0 .444l.028.278c.028.194.056.36.083.555l.028.139c0 .055.028.111.028.167.028.11.055.222.083.36.14.445.389.862.694 1.223.306.36.667.639 1.056.889.194.11.389.222.61.305.112.056.223.083.306.111l.278.083 4.25 1.306 2.11.639 1.056.333.527.166.14.028.11.028c.056.028.14.055.195.083.5.223.86.667.916 1.111a.792.792 0 010 .361v.111l-.028.14c-.027.11-.027.138-.027.221-.056.223-.195.445-.361.64a1.989 1.989 0 01-.695.444.514.514 0 01-.194.055c-.028 0-.056.028-.111.028h-.056l-.055.028-.556.11-2.166.445-2.166.445-1.084.222-.555.11-.139.029-.083.083c-.028 0-.056 0-.084.028-.11.027-.222.055-.333.11-.444.195-.833.5-1.083.945a3.17 3.17 0 00-.25.722.917.917 0 000 .389v.167l.028.139.055.277c0 .028.028.111.028.167a.39.39 0 00.056.166c.083.223.194.445.333.64.278.388.667.638 1.083.805h.056l3 .777 2.971.778h-.028.028c.305.111.583.333.778.611.194.278.277.611.25.944-.028.14.083.25.194.278h.056c.11 0 .222-.083.25-.222a1.466 1.466 0 000-.694 3.26 3.26 0 00-.25-.667 2.368 2.368 0 00-1.056-.889h-.028l-2.944-.916-2.916-.889h.028l-.056-.028h.028a1.676 1.676 0 01-.639-.527.861.861 0 01-.166-.361c0-.028-.028-.056-.028-.084 0-.028 0-.055-.028-.11l-.027-.279-.028-.139v-.277c.027-.111.055-.223.11-.334.14-.194.334-.36.584-.472a.515.515 0 01.194-.055h.112l.138-.028.556-.083 1.083-.195 2.194-.389 2.194-.388.556-.084h.055l.084-.027c.055 0 .11-.028.166-.028.111-.028.222-.056.334-.111.416-.167.833-.39 1.166-.723a2.85 2.85 0 00.75-1.25c.028-.11.055-.25.083-.333l.028-.138v-.056l.028-.083c.027-.25.055-.5 0-.75a3.062 3.062 0 00-.584-1.306z" fill="#fff"/><path d="M18.592 31.46v.084l.389.11.722.223c0-.139 0-.278.028-.444l.055-1.556.028-1.11-1.277.221.027.89.028 1.582zm.972-5.249l.306-.055c0-.334 0-.64.028-.973l.055-2.305-1.194-.36-.333-.112.055 2.777c0 .417.028.834.028 1.25l1.055-.222zm-.722 11.499c0 .138.139.25.278.25.166 0 .305-.112.305-.25.056-1.223.139-2.473.167-3.694l-.944-.25c.083 1.333.138 2.638.194 3.943zm.722-17.942l.39.11v-.971c0-1.056.027-2.083-.029-3.139a27.152 27.152 0 00-.11-1.555 27.044 27.044 0 00-.195-1.555c-.028-.195-.195-.333-.417-.39a.505.505 0 00-.583.39c-.083.527-.167 1.055-.194 1.555-.056.528-.084 1.056-.111 1.555-.056 1.056-.028 2.083-.028 3.139v.444l1.277.417zm-3.054 13.47c-.445.194-.806.5-1.056.889-.111.194-.223.416-.25.666a1.466 1.466 0 000 .694c.027.111.139.223.25.223h.027c.14-.028.25-.14.223-.278-.056-.333.055-.667.25-.944.194-.278.472-.472.777-.611h.028-.028l1.083-.278-1.305-.361zm-1.528-5.999c.139-.056.278-.111.417-.139.027 0 .055-.028.083-.028h.028l.083-.028.139-.027.555-.111 1.084-.223.11-.027-1.083-.223-.555-.11-.056-.029h-.055c-.028 0-.056-.027-.111-.027a.514.514 0 00-.195-.056c-.25-.11-.5-.25-.694-.444a1.357 1.357 0 01-.361-.639c-.028-.055-.028-.111-.028-.222l-.028-.139v-.111a.792.792 0 010-.361c.056-.472.445-.889.917-1.111.056-.028.139-.056.194-.083l.111-.028.14-.028.527-.167 1.055-.333.75-.222-2.5-.778-.305.111-.139.056-.166.055c-.111.056-.223.084-.334.14a3.09 3.09 0 00-1.11.888c-.306.389-.528.861-.584 1.361-.028.25-.028.5 0 .75l.028.083v.056l.028.139c.027.083.027.222.083.333.139.472.417.916.75 1.25.278.277.61.472.944.639a.609.609 0 01.278-.167zm11.582-12.082a2.409 2.409 0 00-1.25-1c-.055-.027-.111-.027-.194-.055-.028 0-.056-.028-.084-.028h-.083l-.278-.055c-.194-.028-.36-.056-.555-.084-.361-.055-.75-.083-1.111-.11h-.028a.499.499 0 00-.472.333c-.111.25.028.555.278.666.36.139.694.25 1.055.389.167.055.361.111.528.167l.277.083h.056s.028 0 .028.028c.028 0 .055.027.083.027.195.111.333.25.417.39.027.083.055.138.055.221v.111l-.055.25c-.028.195-.056.362-.084.556l-.027.139c0 .028 0 .055-.028.083 0 .056-.028.111-.056.194-.083.25-.222.473-.389.695-.166.222-.388.389-.638.555-.111.084-.25.14-.39.195-.055.027-.138.055-.194.083l-.25.083-2.916.945 1.472.472 1.056.333h.027l.834-.25.277-.083c.111-.028.223-.083.306-.111a6.26 6.26 0 00.61-.306 4 4 0 001.056-.889c.306-.36.556-.777.695-1.222.027-.11.083-.222.083-.36 0-.056.028-.112.028-.167l.027-.14c.028-.194.056-.36.084-.555l.028-.277a1.199 1.199 0 000-.445 2.245 2.245 0 00-.278-.86zm-2.472 13.637a2.197 2.197 0 00-.639-.694l-.333.083h-.028c-.055 0-.083.028-.166.028l-.084.028h-.055l-.556.083-1.166.194.583.111.555.084.14.027h.11c.056.028.14.028.195.056.25.083.444.25.583.472.056.111.111.222.111.334v.277l-.028.14-.027.277c0 .055 0 .083-.028.11 0 .029-.028.056-.028.084-.028.111-.083.25-.167.361-.139.223-.36.39-.638.528h.027l-.055.028h.028l-2.167.666 1.5.473.944-.25h.056a2.587 2.587 0 001.083-.806 2.32 2.32 0 00.333-.639c.028-.055.028-.11.056-.166 0-.056.028-.111.028-.167l.055-.278.028-.139v-.555c-.028-.306-.111-.556-.25-.75z" fill="#fff"/><defs><radialGradient id="paint0_radial" cx="0" cy="0" r="1" gradientUnits="userSpaceOnUse" gradientTransform="translate(19.318 -3.862) scale(50.3459)"><stop stop-color="#FF5B71"/><stop offset="1" stop-color="#C90043"/></radialGradient></defs></svg>