<svg width="219" height="48" fill="none" xmlns="http://www.w3.org/2000/svg"><g clip-path="url(#clip0)"><path d="M.922 6.143a1.3 1.3 0 00-.909 1.424l2.242 17.785c1.848 13.452 15.15 20.997 18.058 22.512a1.22 1.22 0 001.12 0c2.94-1.515 16.21-9.03 18.059-22.512l2.242-17.785a1.3 1.3 0 00-.91-1.424L21.647.113a2.684 2.684 0 00-1.545 0L.922 6.144z" fill="url(#paint0_radial)"/><path d="M33.463 10.445L27.16 8.597a1.39 1.39 0 00-1.302.333c-.91.88-2.06 1.394-3.273 1.394h-3.393c-1.212 0-2.333-.515-3.272-1.394a1.39 1.39 0 00-1.303-.333l-6.302 1.848c-.182.061-.212.334-.03.425l2.636 1.333c1.545.787 3.302 1.03 4.969.666a16.84 16.84 0 013.696-.394h2.606c1.242 0 2.484.122 3.696.394 1.666.364 3.424.121 4.969-.666l2.636-1.333c.151-.091.151-.364-.03-.425z" fill="#fff"/><path d="M19.617 8.658l.848.484a.849.849 0 00.848 0l.849-.484a.864.864 0 00.424-.758.893.893 0 00-.455-.757l-.848-.455a.793.793 0 00-.818 0l-.848.455a.893.893 0 00-.455.757c.03.303.182.606.455.758zm7.422 16.149a3.372 3.372 0 00-1.212-.97c-.122-.06-.243-.09-.364-.151l-.182-.061-.151-.06-.576-.182-1.151-.364-2.303-.757-4.605-1.485-.273-.09c-.09-.031-.151-.062-.212-.092a1.851 1.851 0 01-.424-.212 2.24 2.24 0 01-.697-.606 2.687 2.687 0 01-.424-.757c-.03-.06-.03-.122-.06-.212 0-.03-.031-.061-.031-.091l-.03-.152c-.03-.212-.061-.394-.091-.606l-.06-.272v-.122c0-.06 0-.151.06-.242a.788.788 0 01.454-.424c.03 0 .06-.03.091-.03 0 0 .03 0 .03-.03h.061l.303-.092c.182-.06.394-.12.576-.181.393-.122.757-.273 1.15-.425a.53.53 0 00.334-.545c-.03-.273-.272-.515-.545-.515h-.03c-.394.03-.819.09-1.212.121-.213.03-.394.06-.606.091l-.303.06h-.091c-.03 0-.06 0-.091.03-.06.031-.121.031-.212.062-.546.181-1.06.545-1.364 1.09a2.306 2.306 0 00-.303.91c-.03.15 0 .332 0 .484l.03.303c.031.212.061.394.092.606l.03.151c0 .061.03.122.03.182.03.121.06.243.091.394a3.9 3.9 0 00.757 1.333c.334.394.728.697 1.152.97.212.12.424.242.666.333.122.06.243.09.334.121l.303.091 4.635 1.424 2.303.697 1.151.364.576.181.152.03.12.031c.061.03.152.06.213.09.545.243.939.728 1 1.213a.87.87 0 010 .394v.12l-.03.152c-.031.121-.031.152-.031.243-.06.242-.212.485-.394.697a2.17 2.17 0 01-.757.484.562.562 0 01-.212.061c-.03 0-.061.03-.122.03h-.06l-.06.03-.607.122-2.363.485-2.363.484-1.182.243-.606.12-.151.031-.091.091c-.03 0-.06 0-.091.03-.121.03-.243.061-.364.121-.485.213-.909.546-1.181 1.03a3.462 3.462 0 00-.273.788c-.03.152-.03.273 0 .425v.181l.03.152.06.303c0 .03.031.121.031.182 0 .06.03.12.06.181.092.243.213.485.364.697.303.425.728.697 1.182.879h.06l3.273.848 3.242.849h-.03.03c.333.12.636.363.848.666.212.303.303.667.273 1.03-.03.152.09.273.212.303h.06c.122 0 .243-.09.273-.242a1.6 1.6 0 000-.758 3.55 3.55 0 00-.273-.727 2.583 2.583 0 00-1.151-.97h-.03l-3.212-.999-3.181-.97h.03l-.06-.03h.03a1.827 1.827 0 01-.697-.575.94.94 0 01-.182-.394c0-.03-.03-.061-.03-.091s0-.06-.03-.122l-.03-.303-.031-.151v-.303c.03-.121.06-.242.121-.363.152-.213.364-.394.636-.516a.57.57 0 01.212-.06h.121l.152-.03.606-.091 1.182-.212 2.393-.425 2.394-.424.606-.09h.06l.091-.031c.061 0 .122-.03.182-.03.121-.03.243-.06.364-.122.454-.181.909-.424 1.272-.787a3.11 3.11 0 00.818-1.364c.03-.12.06-.272.091-.363l.03-.152v-.06l.03-.091c.031-.273.061-.546 0-.818-.09-.485-.302-1-.635-1.424z" fill="#fff"/><path d="M20.282 34.32v.091l.424.121.788.243c0-.152 0-.303.03-.485l.061-1.697.03-1.212-1.393.243.03.97.03 1.726zm1.062-5.726l.333-.06c0-.364 0-.697.03-1.061l.061-2.515-1.303-.394-.363-.12.06 3.029c0 .454.03.909.03 1.363l1.152-.242zm-.789 12.543c0 .152.152.273.303.273.182 0 .334-.121.334-.273.06-1.333.151-2.696.181-4.03l-1.03-.272c.091 1.454.152 2.878.212 4.302zm.788-19.572l.424.12v-1.06c0-1.15.03-2.272-.03-3.423a29.115 29.115 0 00-.122-1.697 28.805 28.805 0 00-.212-1.697c-.03-.212-.212-.363-.454-.424a.55.55 0 00-.636.424c-.091.576-.182 1.152-.212 1.697-.061.576-.091 1.151-.122 1.697-.06 1.151-.03 2.272-.03 3.423v.485l1.394.455zM18.01 36.26a2.583 2.583 0 00-1.15.969c-.122.212-.243.454-.273.727a1.6 1.6 0 000 .758c.03.12.151.242.272.242h.03c.152-.03.273-.152.243-.303-.06-.364.06-.727.272-1.03.213-.303.516-.515.849-.667h.03-.03l1.181-.303-1.424-.394zm-1.666-6.545c.152-.06.303-.121.455-.152.03 0 .06-.03.09-.03h.031l.091-.03.152-.03.605-.122 1.182-.242.121-.03-1.181-.243-.606-.12-.06-.031h-.061c-.03 0-.061-.03-.122-.03a.562.562 0 00-.212-.061c-.273-.121-.545-.273-.757-.485a1.48 1.48 0 01-.394-.697c-.03-.06-.03-.12-.03-.242l-.03-.152v-.12a.865.865 0 010-.395c.06-.515.484-.97 1-1.212.06-.03.15-.06.211-.09l.121-.03.152-.031.576-.182 1.15-.363.819-.243-2.727-.848-.333.121-.152.06-.181.061c-.122.06-.243.091-.364.152a3.371 3.371 0 00-1.212.97c-.333.423-.576.939-.636 1.484-.03.273-.03.545 0 .818l.03.09v.061l.03.152c.03.09.03.242.091.363.152.516.455 1 .818 1.364.303.303.667.515 1.03.697a.663.663 0 01.303-.182zm12.634-13.18a2.629 2.629 0 00-1.363-1.09c-.06-.03-.121-.03-.212-.061-.03 0-.06-.03-.091-.03h-.091l-.303-.061c-.212-.03-.394-.06-.606-.09-.394-.061-.818-.092-1.212-.122h-.03a.544.544 0 00-.515.364c-.121.272.03.605.303.727.394.151.757.272 1.151.424.182.06.394.121.576.182l.303.09h.06s.03 0 .03.03c.03 0 .061.031.091.031.213.121.364.273.455.424.03.091.06.152.06.243v.12l-.06.274c-.03.212-.06.393-.09.606l-.031.151c0 .03 0 .06-.03.09 0 .061-.03.122-.061.213a2.69 2.69 0 01-.424.758c-.182.242-.425.424-.697.605a1.828 1.828 0 01-.424.212c-.06.03-.152.061-.212.091l-.273.091-3.181 1.03 1.605.515 1.152.364h.03l.909-.273.303-.09c.121-.03.242-.091.333-.122.212-.09.455-.212.667-.333a4.357 4.357 0 001.151-.97 3.9 3.9 0 00.758-1.333c.03-.12.09-.242.09-.393 0-.061.03-.122.03-.182l.031-.152c.03-.212.06-.394.091-.606l.03-.303c.03-.151.03-.333 0-.485a2.449 2.449 0 00-.303-.939zm-2.696 14.877a2.396 2.396 0 00-.697-.758l-.364.091h-.03c-.06 0-.09.03-.182.03l-.09.03h-.061l-.606.092-1.273.212.637.121.605.09.152.031h.121c.06.03.152.03.212.06.273.092.485.273.637.516.06.121.12.242.12.363v.303l-.03.152-.03.303c0 .06 0 .09-.03.121 0 .03-.03.06-.03.09-.03.122-.091.274-.182.395-.152.242-.394.424-.697.575h.03l-.06.03h.03l-2.363.728 1.636.515 1.03-.273h.06a2.822 2.822 0 001.182-.878 2.56 2.56 0 00.364-.697c.03-.06.03-.121.06-.182 0-.06.03-.121.03-.182l.061-.303.03-.151v-.606c-.03-.333-.12-.606-.272-.818z" fill="#fff"/><path d="M85.394 20.332h-1.408a4.52 4.52 0 00-4.52 4.52v3.074a4.52 4.52 0 004.52 4.521c1.924 0 3.133 0 4.878-.872a.562.562 0 00.238-.754l-.535-.952a.544.544 0 00-.734-.218c-1.23.595-2.022.595-3.847.595a2.344 2.344 0 01-2.34-2.34v-.178h7.734a.554.554 0 00.555-.555v-2.32c-.02-2.499-2.042-4.521-4.54-4.521zm2.34 5.215h-6.088v-.694a2.344 2.344 0 012.34-2.34h1.408a2.344 2.344 0 012.34 2.34v.694zm-21.733-5.215H64.97a.575.575 0 00-.575.575v10.945c0 .318.258.576.575.576h1.031a.575.575 0 00.575-.576V20.907c.02-.318-.238-.575-.575-.575zm-4.204 9.914h-5.235a.618.618 0 01-.614-.614V17.555a.753.753 0 00-.754-.753H54.5a.753.753 0 00-.753.753V29.93a2.488 2.488 0 002.498 2.499h5.533a.669.669 0 00.674-.675v-.813a.657.657 0 00-.655-.694zm16.796-9.914h-.932a.984.984 0 00-.932.654l-3.034 8.23c-.04.078-.139.078-.179 0l-3.014-8.25a.984.984 0 00-.932-.654h-.932a.486.486 0 00-.456.654l4.085 10.787c.159.397.536.675.972.675h.733c.437 0 .814-.258.972-.675l4.085-10.787c.139-.297-.1-.634-.436-.634zm37.834 0h-1.408a4.52 4.52 0 00-4.521 4.52v3.074a4.52 4.52 0 004.521 4.521c1.924 0 3.134 0 4.878-.872a.561.561 0 00.238-.754l-.535-.952a.544.544 0 00-.734-.218c-1.229.595-2.022.595-3.847.595a2.344 2.344 0 01-2.339-2.34v-.178h7.733a.554.554 0 00.555-.555v-2.32c0-2.499-2.042-4.521-4.541-4.521zm2.34 5.215h-6.087v-.694a2.344 2.344 0 012.339-2.34h1.408a2.344 2.344 0 012.34 2.34v.694zm13.544-9.955h-.992c-.337 0-.595.238-.595.516v5.116c-.634-.595-1.408-.912-2.26-.912h-1.587a4.446 4.446 0 00-4.441 4.442v3.232a4.447 4.447 0 004.441 4.442h1.587a4.447 4.447 0 004.442-4.442V16.108c0-.278-.258-.516-.595-.516zm-1.587 12.414a2.26 2.26 0 01-2.26 2.26h-1.587a2.26 2.26 0 01-2.26-2.26v-3.233a2.26 2.26 0 012.26-2.26h1.587a2.26 2.26 0 012.26 2.26v3.233zm-22.427-11.184h-.674a.842.842 0 00-.714.377l-6.206 9.617a.093.093 0 01-.159 0l-6.206-9.617a.866.866 0 00-.714-.377h-.674a.533.533 0 00-.536.535v14.436a.64.64 0 00.635.635h.892a.64.64 0 00.635-.635l-.14-10.172c0-.1.12-.12.16-.06l4.778 7.218c.198.297.535.476.892.476h.655c.357 0 .694-.179.892-.476l4.739-7.159c.06-.079.159-.04.159.06l-.099 10.093c0 .357.297.635.634.635h.893a.638.638 0 00.634-.635V17.337c.06-.277-.178-.515-.476-.515zm32.302 2.181h1.348c1.467 0 2.558.516 3.272 1.606.258.377.734.516 1.13.317l.337-.158c.496-.238.694-.853.397-1.309-1.13-1.705-2.915-2.637-5.136-2.637h-1.348c-2.935 0-5.334 2.578-5.334 5.73v4.145c0 3.172 2.399 5.73 5.334 5.73h1.348c2.221 0 4.006-.931 5.136-2.637.297-.456.099-1.09-.397-1.308l-.337-.16a.92.92 0 00-1.13.318c-.714 1.07-1.805 1.606-3.272 1.606h-1.348c-1.745 0-3.153-1.586-3.153-3.55v-4.144c0-1.963 1.408-3.549 3.153-3.549zm58.298 3.51h1.15c.991 0 1.745.317 2.261.952.257.317.674.436 1.051.257l.456-.218a.842.842 0 00.297-1.289c-.932-1.229-2.32-1.883-4.045-1.883h-1.17c-2.419 0-4.382 2.022-4.382 4.52v3.074c0 2.499 1.963 4.521 4.382 4.521h1.15c1.725 0 3.133-.654 4.045-1.884.317-.436.179-1.05-.297-1.288l-.456-.218c-.357-.179-.793-.06-1.051.257-.516.635-1.25.952-2.261.952h-1.13c-1.21 0-2.201-1.05-2.201-2.34v-3.073c0-1.29.991-2.34 2.201-2.34zm-10.054-2.181h-1.407a4.519 4.519 0 00-4.521 4.52v3.074a4.519 4.519 0 004.521 4.521c1.923 0 3.133 0 4.878-.872a.563.563 0 00.238-.754l-.536-.952a.544.544 0 00-.734-.218c-1.229.595-2.022.595-3.846.595a2.344 2.344 0 01-2.34-2.34v-.178h7.733a.554.554 0 00.555-.555v-2.32a4.548 4.548 0 00-4.541-4.521zm2.34 5.215h-6.087v-.694a2.344 2.344 0 012.34-2.34h1.407a2.344 2.344 0 012.34 2.34v.694zm-25.461-5.215h-1.348a4.32 4.32 0 00-4.323 4.322v7.02c0 .416.337.754.754.754h.654a.753.753 0 00.754-.754v-7.02c0-1.19.951-2.141 2.141-2.141h1.349c1.189 0 2.141.952 2.141 2.141v7.02c0 .416.337.754.754.754h.654a.753.753 0 00.754-.754v-7.02c.039-2.399-1.904-4.322-4.284-4.322zm11.343 0h-1.349a4.32 4.32 0 00-4.322 4.322v7.02c0 .416.337.754.753.754h.655a.753.753 0 00.753-.754v-7.02c0-1.19.952-2.141 2.142-2.141h1.348c1.19 0 2.142.952 2.142 2.141v7.02c0 .416.337.754.753.754h.654a.753.753 0 00.754-.754v-7.02c.04-2.399-1.884-4.322-4.283-4.322zm-22.804 0h-1.586a4.447 4.447 0 00-4.442 4.441v3.233a4.447 4.447 0 004.442 4.441h1.586a4.447 4.447 0 004.442-4.441v-3.233a4.447 4.447 0 00-4.442-4.441zm2.261 7.674a2.26 2.26 0 01-2.261 2.26h-1.586a2.26 2.26 0 01-2.261-2.26v-3.233a2.26 2.26 0 012.261-2.26h1.586a2.26 2.26 0 012.261 2.26v3.233zm54.848-7.416h-3.411v-4.323a.71.71 0 00-.714-.714h-.773a.71.71 0 00-.714.714v11.342a4.832 4.832 0 004.838 4.838h.456a.627.627 0 00.635-.634V30.9a.627.627 0 00-.635-.635h-.456a2.636 2.636 0 01-2.637-2.637V22.79h3.411a.762.762 0 00.773-.773v-.634c0-.456-.337-.794-.773-.794zm6.801.02h-.317l-.952 1.467-.992-1.468h-.317v2.162h.357v-1.488l.853 1.23h.178l.833-1.27v1.528h.377l-.02-2.162zm-4.918.297h.813v1.864h.397v-1.864h.793v-.298h-2.003v.298z" fill="#112440"/></g><defs><radialGradient id="paint0_radial" cx="0" cy="0" r="1" gradientUnits="userSpaceOnUse" gradientTransform="translate(21.074 -4.213) scale(54.9228)"><stop stop-color="#FF5B71"/><stop offset="1" stop-color="#C90043"/></radialGradient><clipPath id="clip0"><path fill="#fff" d="M0 0h218.191v48H0z"/></clipPath></defs></svg>