<svg width="38" height="38" fill="none" xmlns="http://www.w3.org/2000/svg"><path d="M10.566 16.206h-7.25A2.31 2.31 0 001 18.522v6.596a2.31 2.31 0 002.316 2.316h7.25v7.2a2.31 2.31 0 002.316 2.316h6.596a2.31 2.31 0 002.316-2.317v-7.2c0-6.192-5.035-11.227-11.228-11.227z" stroke="#fff" stroke-width="2"/><path d="M19.529 37h-6.697a2.31 2.31 0 01-2.316-2.316v-7.25h7.704a3.589 3.589 0 013.574 3.574v3.676c0 1.259-1.007 2.316-2.265 2.316zm7.904-15.206h7.2a2.31 2.31 0 002.317-2.316v-6.596a2.31 2.31 0 00-2.317-2.316h-7.2v-7.25A2.31 2.31 0 0025.117 1h-6.595a2.31 2.31 0 00-2.316 2.316v7.25c0 6.193 5.035 11.228 11.227 11.228z" stroke="#fff" stroke-width="2"/><path d="M18.471 1h6.697a2.31 2.31 0 012.316 2.316v7.25H19.78a3.589 3.589 0 01-3.574-3.574V3.316C16.206 2.007 17.213 1 18.47 1z" stroke="#fff" stroke-width="2"/></svg>