<svg width="135" height="35" fill="none" xmlns="http://www.w3.org/2000/svg"><path fill-rule="evenodd" clip-rule="evenodd" d="M65.789 26.817s2.151 5.297 2.29 5.635l1.816-5.147h1.014L68.085 35s-2.168-5.364-2.296-5.688L63.492 35l-2.823-7.695h1.012l1.815 5.147 2.226-5.467.067-.168zm-28.799.076s5.289 5.505 5.531 5.761v-5.35h.937v7.622l-5.53-5.748v5.323h-.938v-7.608zm40.334.291c2.079 0 3.771 1.669 3.771 3.726 0 2.045-1.692 3.71-3.77 3.71-2.08 0-3.773-1.665-3.773-3.71 0-2.057 1.693-3.726 3.772-3.726zm-26.355.12v.88h-2.886v1.947h2.8V31h-2.8v2.622h2.886v.878h-3.826v-7.196h3.826zm7.31 0v.88h-1.732v6.317h-.938v-6.316h-1.715v-.88h4.386zm27.194 0c1.796 0 2.668.658 2.668 2.019 0 1.084-.68 1.845-1.726 1.987.112.163 2.278 3.191 2.278 3.191h-.146l-1.028-.033s-2.086-3.01-2.086-3.063h-.122v3.096h-.937v-7.196h1.1zm7.29 0v2.917c.204-.21 2.37-2.37 2.831-2.83l.087-.086h1.267s-3.305 3.259-3.409 3.36c.098.099 3.515 3.836 3.515 3.836h-.17l-1.145-.024s-2.76-3.072-2.86-3.18a.591.591 0 01-.115.1V34.5h-.938v-7.196h.938zm-15.439.755a2.841 2.841 0 00-2.834 2.843 2.843 2.843 0 002.834 2.845 2.84 2.84 0 002.83-2.845 2.838 2.838 0 00-2.83-2.843zm8.15.126h-.163v2.379h.17c.853 0 1.722-.14 1.722-1.186 0-1.107-.819-1.193-1.73-1.193zM85.24.475l5.66 14.15L96.626.476h4.481L91.95 22.08h-2.223l-9-21.604h4.514zM32.75.124c2.323 0 4.453.788 6.233 2.34l-2.16 2.806c-1.084-1.197-2.101-1.702-3.341-1.702-1.783 0-3.084 1.01-3.084 2.338 0 1.133.73 1.736 3.214 2.65 4.706 1.708 6.101 3.225 6.101 6.574 0 4.073-3.018 6.92-7.31 6.92-3.15 0-5.44-1.236-7.343-4.011l2.667-2.562c.954 1.832 2.542 2.81 4.513 2.81 1.847 0 3.215-1.262 3.215-2.97 0-.884-.415-1.64-1.242-2.176-.413-.258-1.238-.636-2.86-1.201-3.88-1.394-5.214-2.877-5.214-5.785 0-3.44 2.863-6.031 6.61-6.031zM52.304 0c1.78 0 3.277.376 5.09 1.29v4.834c-1.72-1.673-3.216-2.368-5.184-2.368-3.883 0-6.933 3.191-6.933 7.232 0 4.266 2.958 7.268 7.122 7.268 1.876 0 3.339-.662 4.995-2.306v4.835c-1.878.882-3.404 1.231-5.184 1.231-6.296 0-11.194-4.8-11.194-10.998C41.016 4.898 46.04 0 52.304 0zm17.964.08c6.334 0 11.276 4.817 11.276 10.95 0 6.17-4.975 10.986-11.276 10.986-6.462 0-11.307-4.753-11.307-11.11C58.961 4.926 64.025.08 70.268.08zm53.317.395c4.772 0 7.502 2.27 7.502 6.217 0 3.224-1.714 5.342-4.834 5.975l6.68 8.874h-5.087l-5.719-8.466h-.542v8.466h-4.137V.475h6.137zM6.079.475c6.703 0 11.38 4.324 11.38 10.544 0 3.1-1.433 6.101-3.848 8.091-2.035 1.675-4.356 2.431-7.564 2.431H0V.475h6.079zm17.419 0V21.54h-4.13V.475h4.13zm91.22 0v3.567h-7.598v4.676h7.307v3.567h-7.307v5.69h7.598v3.566h-11.73V.475h11.73zM5.249 4.042H4.138v13.933h1.111c2.674 0 4.357-.506 5.664-1.678 1.43-1.259 2.283-3.284 2.283-5.309 0-2.02-.853-3.977-2.283-5.24-1.372-1.231-2.99-1.706-5.664-1.706zm117.605-.254h-1.269v6.383h1.203c2.647 0 4.046-1.14 4.046-3.256 0-2.05-1.399-3.127-3.98-3.127zM133.39.776a1.622 1.622 0 010 3.243 1.621 1.621 0 110-3.242zm-.002.296c-.728 0-1.308.589-1.308 1.33 0 .733.583 1.326 1.308 1.326.703 0 1.284-.598 1.284-1.326 0-.73-.581-1.33-1.284-1.33zm-.087.403c.454 0 .702.2.702.569a.51.51 0 01-.406.52l.621.766h-.554l-.523-.721v.721h-.442V1.475h.602zm-.073.339h-.087v.483h.083c.22 0 .336-.083.336-.246 0-.157-.112-.237-.332-.237z" fill="#fff"/></svg>