<svg width="82" height="27" fill="none" xmlns="http://www.w3.org/2000/svg"><path fill-rule="evenodd" clip-rule="evenodd" d="M53.657 0c3.071 0 6.018 1.137 6.018 1.137L58.72 6.74c-2.864-1.6-9.38-1.98-9.38.97 0 2.947 9.338 3.58 9.338 10.36 0 6.53-6.89 8.931-11.455 8.931s-7.553-1.474-7.553-1.474l.996-5.856c2.74 2.232 11.04 2.865 11.04-.674 0-3.538-9.255-3.622-9.255-10.36C42.45 1.473 50.336 0 53.657 0zM39.73.466l-4.182 26.085h-6.69L33.037.466h6.692zM.695 1.088A12.544 12.544 0 000 .908L.124.466h10.544c2.903 0 3.175 2.35 3.175 2.35l2.251 11.73v-.002l.754 3.863 6.38-17.94h7.201L19.783 26.55h-6.97L6.998 3.891C4.36 2.28 1.987 1.462.8 1.117l-.105-.03zM76.643.467L82 26.55h-6.143l-.785-3.874h-8.506L65.17 26.55h-6.975l9.98-24.14S68.74.594 71.021.473l.242-.006h5.38zM72.01 7.563l-3.516 9.76h5.494l-1.978-9.76z" fill="#fff"/></svg>