<svg width="151" height="37" fill="none" xmlns="http://www.w3.org/2000/svg"><mask id="mask0" maskUnits="userSpaceOnUse" x="7" y="8" width="24" height="29"><path d="M7.376 8.667h23.45v28.16H7.377V8.667z" fill="#fff"/></mask><g mask="url(#mask0)"><path opacity=".6" fill-rule="evenodd" clip-rule="evenodd" d="M13.174 8.667h10.318c5.539 0 7.625 2.823 7.303 6.977-.531 6.849-4.644 10.636-10.1 10.636h-2.754c-.747 0-1.25.497-1.454 1.85l-1.182 7.851c-.076.51-.343.81-.743.846h-6.47c-.609 0-.825-.47-.666-1.485l3.951-25.185c.158-1.01.707-1.49 1.796-1.49z" fill="#fff"/></g><path fill-rule="evenodd" clip-rule="evenodd" d="M88.986 15.942h-3.449c-.715 0-1.005.526-.778 1.196l4.298 12.672-4.235 6.027c-.354.503-.08.963.418.963h3.891c.581 0 .865-.149 1.157-.571l13.219-19.091c.407-.588.215-1.204-.453-1.204l-3.679-.004c-.631 0-.885.25-1.247.78l-5.514 8.053-2.453-8.067c-.151-.497-.512-.754-1.175-.754zM71.808 27.743c-2.267 0-3.847-1.82-3.517-4.051.33-2.232 2.447-4.052 4.714-4.052 2.267 0 3.847 1.82 3.517 4.052-.33 2.231-2.448 4.051-4.714 4.051zm2.857 2.042c.35-.32.709-.488.657-.092l-.125.95c-.065.495.13.76.59.76H79.2c.575 0 .855-.234.997-1.13l2.104-13.293c.105-.668-.055-.996-.56-.996h-3.753c-.338 0-.502.192-.59.712l-.14.818c-.072.428-.266.501-.447.072-.637-1.519-2.262-2.2-4.54-2.152-5.266.109-8.816 4.133-9.195 9.292-.294 3.99 2.547 7.124 6.29 7.124 2.716 0 3.93-.815 5.299-2.065zm-22.96-10.612h3.13c1.957-.074 3.259-1.438 3.39-3.9.08-1.52-.94-2.608-2.563-2.6l-2.947.013-1.01 6.487zm6.26-10.971c3.482 0 6.693 1.9 6.254 6.64-.521 5.617-3.529 8.746-8.26 8.759h-4.126c-.594 0-.88.487-1.037 1.489L50 30.203c-.12.772-.513 1.153-1.095 1.153h-3.843c-.613 0-.827-.394-.69-1.276l3.176-20.495c.157-1.009.54-1.383 1.218-1.383h9.199z" fill="#fff"/><path opacity=".6" fill-rule="evenodd" clip-rule="evenodd" d="M146.854 31.427h-3.94c-.313 0-.53-.247-.483-.55l3.465-22.08a.68.68 0 01.655-.549h3.941c.313 0 .53.247.483.55l-3.465 22.08a.683.683 0 01-.656.549zm-15.747-3.684c-2.266 0-3.846-1.82-3.517-4.051.33-2.232 2.448-4.052 4.714-4.052 2.267 0 3.847 1.82 3.517 4.052-.33 2.231-2.447 4.051-4.714 4.051zm2.857 2.042c.351-.32.709-.488.657-.092l-.125.95c-.064.495.131.76.59.76h3.414c.574 0 .855-.234.996-1.13L141.6 16.98c.106-.668-.055-.996-.559-.996h-3.753c-.339 0-.503.192-.591.712l-.139.818c-.073.428-.267.501-.448.072-.637-1.519-2.261-2.2-4.539-2.152-5.266.109-8.816 4.133-9.196 9.292-.294 3.99 2.547 7.124 6.29 7.124 2.716 0 3.931-.815 5.299-2.065zm-22.959-10.612h3.13c1.957-.074 3.258-1.438 3.389-3.9.08-1.52-.939-2.608-2.563-2.6l-2.946.013-1.01 6.487zm6.259-10.971c3.482 0 6.693 1.9 6.254 6.64-.521 5.617-3.529 8.746-8.259 8.76h-4.126c-.595 0-.881.486-1.037 1.488l-.797 5.113c-.12.772-.512 1.153-1.095 1.153h-3.843c-.613 0-.826-.394-.69-1.276l3.177-20.495c.156-1.009.539-1.383 1.218-1.383h9.198z" fill="#fff"/><path fill-rule="evenodd" clip-rule="evenodd" d="M6.723 0H17.05c2.91 0 6.36.095 8.668 2.144 1.541 1.37 2.35 3.55 2.163 5.892-.633 7.94-5.35 12.387-11.677 12.387H11.11c-.866 0-1.441.579-1.686 2.145l-1.421 9.104c-.092.59-.347.938-.81.98H.83c-.706 0-.957-.543-.772-1.72l4.58-29.205C4.825.557 5.46 0 6.724 0z" fill="#fff"/></svg>