<svg width="110" height="26" fill="none" xmlns="http://www.w3.org/2000/svg"><path fill-rule="evenodd" clip-rule="evenodd" d="M55.849 25.7l28.833.06 4.529-4.969 4.56 4.95h8.583l7.146-.041-12.522-12.91L109.5 0l-7.146.041L55.849 0v25.7zm3.106-2.818V2.828H83.56l5.846 6.356 5.862-6.356h7.086v.158l-9.363 9.857 9.363 9.754v.285h-7.157l-5.95-6.42-5.888 6.42H58.956zm17.288-.09v-4.585h-11.69v-3.08h11.411v-4.543H64.552V7.448h11.69v-4.53l9.48 9.925-9.48 9.949z" fill="#fff"/><path fill-rule="evenodd" clip-rule="evenodd" d="M11.513.209h11.21l3.938 8.794V.209H40.5l2.386 6.588L45.282.21H55.85v2.788h-8.394l-4.517 12.348L38.45 3.027l-8.722-.03V22.85L20.804 3h-7.168L4.589 23.038h6.205l1.707-4.012h9.248l1.705 4.012h6.36l-.002-.004h5.402V9.271l5.205 13.763h4.93l5.099-13.716V23.08l5.4-.047v2.875H0L11.513.209zm2.9 14.32l2.713-6.379 2.711 6.379h-5.424z" fill="#fff"/></svg>