<svg width="56" height="43" fill="none" xmlns="http://www.w3.org/2000/svg"><path fill-rule="evenodd" clip-rule="evenodd" d="M12.101 40.51c0-.807.528-1.471 1.393-1.471.816 0 1.392.617 1.392 1.47 0 .807-.576 1.471-1.392 1.471-.864-.048-1.393-.664-1.393-1.47zm3.746 0v-2.277h-1.008v.569c-.337-.427-.817-.664-1.441-.664-1.297 0-2.305.996-2.305 2.372 0 1.375 1.008 2.371 2.305 2.371.672 0 1.152-.237 1.44-.664v.57h1.009V40.51zm33.71 0c0-.807.529-1.471 1.393-1.471.816 0 1.393.617 1.393 1.47 0 .807-.577 1.471-1.393 1.471-.864-.048-1.392-.664-1.392-1.47zm3.698 0v-4.08h-1.008v2.372c-.336-.427-.816-.664-1.44-.664-1.297 0-2.306.996-2.306 2.372 0 1.375 1.009 2.371 2.305 2.371.672 0 1.153-.237 1.44-.664v.57h1.01V40.51zm-25.019-1.518c.625 0 1.057.379 1.153 1.09h-2.401c.096-.616.528-1.09 1.248-1.09zm0-.854c-1.344 0-2.305.949-2.305 2.372 0 1.422.96 2.371 2.353 2.371.673 0 1.345-.19 1.873-.616l-.48-.712c-.384.285-.864.474-1.345.474-.624 0-1.248-.284-1.392-1.09h3.41v-.38c.047-1.47-.817-2.42-2.114-2.42zM40.29 40.51c0-.807.528-1.471 1.392-1.471.816 0 1.393.617 1.393 1.47 0 .807-.577 1.471-1.393 1.471-.864-.048-1.392-.664-1.392-1.47zm3.697 0v-2.277H42.98v.569c-.336-.427-.817-.664-1.441-.664-1.296 0-2.305.996-2.305 2.372 0 1.375 1.009 2.371 2.305 2.371.672 0 1.153-.237 1.44-.664v.57h1.01V40.51zm-9.316 0c0 1.375.96 2.371 2.45 2.371.672 0 1.152-.142 1.632-.522l-.48-.806c-.384.285-.769.427-1.2.427-.817 0-1.393-.57-1.393-1.47 0-.854.576-1.423 1.392-1.471.432 0 .817.142 1.2.427l.48-.806c-.48-.38-.96-.522-1.632-.522-1.488 0-2.449.996-2.449 2.372zm12.87-2.372c-.576 0-.96.284-1.2.664v-.57h-1.01v4.554h1.01v-2.561c0-.76.335-1.186.96-1.186.192 0 .432.047.624.095l.288-.949c-.192-.047-.48-.047-.672-.047zm-26.796.474c-.48-.332-1.152-.474-1.873-.474-1.152 0-1.92.569-1.92 1.47 0 .76.576 1.186 1.584 1.329l.48.047c.528.095.817.237.817.474 0 .332-.385.57-1.057.57-.672 0-1.2-.238-1.537-.475l-.48.76c.528.378 1.249.568 1.97.568 1.344 0 2.112-.616 2.112-1.47 0-.807-.624-1.234-1.585-1.376l-.48-.047c-.432-.048-.768-.143-.768-.427 0-.332.336-.522.864-.522.576 0 1.153.237 1.44.38l.433-.807zm12.918-.474c-.577 0-.96.284-1.2.664v-.57h-1.01v4.554h1.01v-2.561c0-.76.335-1.186.96-1.186.192 0 .432.047.624.095l.288-.949c-.192-.047-.48-.047-.672-.047zm-8.548.095h-1.633v-1.376h-1.008v1.376h-.913v.901h.913v2.087c0 1.044.432 1.66 1.585 1.66a2.71 2.71 0 001.248-.332l-.288-.854c-.288.19-.624.237-.864.237-.48 0-.673-.284-.673-.758v-2.04h1.633v-.901zM10.18 42.785V39.94c0-1.09-.672-1.802-1.824-1.802-.577 0-1.2.19-1.633.806-.336-.522-.817-.806-1.537-.806-.48 0-.96.142-1.344.664v-.57H2.833v4.554h1.009v-2.514c0-.806.432-1.185 1.104-1.185.672 0 1.009.426 1.009 1.185v2.514h1.008v-2.514c0-.806.48-1.185 1.105-1.185.672 0 1.008.426 1.008 1.185v2.514h1.104z" fill="#fff"/><path opacity=".8" fill-rule="evenodd" clip-rule="evenodd" d="M27.996 3.653c3.986 3.13 6.58 7.969 6.58 13.424 0 5.455-2.546 10.293-6.58 13.424h.001-.05.001a16.976 16.976 0 01-6.579-13.424c0-5.455 2.593-10.294 6.58-13.424h.047z" fill="#fff"/><path fill-rule="evenodd" clip-rule="evenodd" d="M21.37 17.077c0-5.456 2.592-10.294 6.578-13.424A17.315 17.315 0 0017.288 0C7.73 0 0 7.637 0 17.077c0 9.44 7.731 17.076 17.287 17.076 4.034 0 7.732-1.375 10.661-3.652a16.976 16.976 0 01-6.579-13.424z" fill="#fff"/><path opacity=".6" fill-rule="evenodd" clip-rule="evenodd" d="M55.944 17.077c0 9.44-7.731 17.076-17.287 17.076a17.314 17.314 0 01-10.66-3.652c4.033-3.131 6.578-7.97 6.578-13.424 0-5.456-2.593-10.294-6.579-13.424A17.315 17.315 0 0138.656 0c9.557 0 17.288 7.684 17.288 17.077z" fill="#fff"/></svg>