<svg width="120" height="120" viewBox="0 0 120 120" fill="none" xmlns="http://www.w3.org/2000/svg">
<mask id="mask0" mask-type="alpha" maskUnits="userSpaceOnUse" x="0" y="0" width="120" height="120">
<circle cx="60" cy="60" r="60" fill="#74D1DE"/>
</mask>
<g mask="url(#mask0)">
<circle cx="60" cy="60" r="60" fill="#74D1DE"/>
<path d="M77.8424 23.8335C77.7045 23.8681 77.6011 23.6953 77.7045 23.5571C78.7388 22.3479 81.6348 18.4439 79.7386 13.849C77.4287 8.35573 72.533 13.5035 68.9819 15.0582C65.4308 16.6128 57.8459 12.9852 52.1572 17.6493C45.6412 22.9698 47.7098 32.9543 39.5733 34.9582C31.4368 36.9274 26.0929 37.8602 22.128 45.0809C18.1632 52.267 24.5069 67.2957 19.9905 72.8234C15.474 78.3512 9.26609 80.0494 6.56102 88.7597C2.4583 99.8844 10.6541 110.474 20.8592 112.374C37.6149 115.484 39.6422 103.088 69.2232 109.687C98.8042 116.286 110.949 107.909 112.638 93.9859C114.328 80.0283 101.493 77.142 101.7 68.8849C101.942 60.6278 102.39 53.4762 94.5981 49.5722C86.8064 45.6682 85.8755 40.6241 86.3582 35.3382C86.7029 30.0868 86.0823 22.1406 77.8424 23.8335Z" fill="#6A325E"/>
<path d="M32.7602 144.547H94.5424C94.8182 144.547 95.0941 144.65 95.3354 144.823C96.9903 146.067 104.885 151.284 118.435 147.518C132.294 143.648 136.259 119.395 116.47 110.447C112.091 108.478 108.471 105.23 106.092 101.05C100.128 90.5816 86.0612 72.2363 60.445 72.2363C22.0035 72.2363 3.35157 103.676 -1.47517 123.23C-5.16417 138.224 -4.19803 153.797 11.0051 153.797C30.7134 153.797 30.7134 148.764 31.6225 145.307C31.7948 144.857 32.2431 144.547 32.7602 144.547Z" fill="white"/>
<path opacity="0.5" d="M49.7063 123.722C38.7961 114.557 31.0522 109.539 33.4614 104.588C35.8706 99.6043 38.4175 97.3966 36.4557 96.1923C34.9414 95.2557 27.5761 94.386 30.7081 88.0303C33.84 81.6747 40.5513 73.9141 53.3545 72.4088C66.5362 70.8366 77.1367 75.7204 82.6434 82.7117C88.632 90.3384 82.609 91.0074 79.718 92.9476C77.2055 94.6201 82.8844 95.9582 83.7104 103.953C84.674 113.018 67.7064 117.868 60.2723 141.786C60.1002 142.321 59.3087 142.321 59.1366 141.752C57.9664 137.538 54.9033 128.104 49.7063 123.722Z" fill="#74D1DE"/>
<path d="M46.653 74.748C45.0684 75.807 44.345 77.7199 44.724 79.5644C45.9641 85.7813 48.8921 99.1374 53.1292 111.537C57.2974 123.732 58.7786 131.076 59.2954 134.184C59.3643 134.526 59.8121 134.526 59.881 134.184C62.8779 120.487 76.8982 101.733 73.4534 82.1946C72.2477 75.397 63.4291 71.9129 58.9509 71.7421C54.7827 71.6054 50.2012 72.3228 46.653 74.748Z" fill="#1B5FC5"/>
<path d="M41.1391 123.671C41.1391 123.671 46.7588 118.558 45.6901 112.754C44.6558 106.95 37.8983 103.978 34.4162 94.3394C31.1409 85.2531 33.7956 67.4951 58.5499 65.3876C84.5798 63.1765 92.9921 85.4604 86.9587 95.5831" stroke="#BD4780" stroke-miterlimit="10" stroke-linecap="round" stroke-linejoin="round"/>
<path d="M49.5368 74.6758C51.364 72.6029 54.1567 63.2057 54.1567 46.415H64.7065C64.7065 46.415 63.8446 68.9753 64.4307 72.2574C64.7065 73.7775 65.1892 74.7449 65.6374 75.3668C66.258 76.2305 66.6027 77.3015 66.5338 78.3725C66.3269 81.5855 65.465 87.9079 62.0518 92.9175C62.0518 92.9175 54.6393 88.4262 49.1575 76.9215C48.8817 76.1959 48.9852 75.2977 49.5368 74.6758Z" fill="#F4ADAD"/>
<path d="M71.0157 27.1504C72.3258 26.4594 73.9463 27.4268 74.0152 28.9124C74.3944 35.6839 74.7392 55.4802 66.8785 59.1424C61.9139 61.4572 55.8115 55.7221 54.2945 49.296C54.2256 49.0197 53.9153 48.8469 53.6395 48.9506C52.7431 49.296 50.7779 49.607 48.8817 46.8776C47.4681 44.8738 46.9165 41.7644 47.9508 40.1061C49.5023 37.5841 51.9156 39.6224 52.9155 40.6589C53.1223 40.8662 53.4326 40.7625 53.5016 40.5207C54.1222 38.275 55.8115 34.9584 61.0175 33.9219C66.2235 32.8855 68.1542 28.6705 71.0157 27.1504Z" fill="#FBC9BE"/>
<path d="M73.1681 130.063C70.8926 128.784 69.5825 126.262 69.8928 123.671C70.8582 115.725 73.8921 99.2799 83.2008 95.9287C94.6471 91.7828 96.6812 116.243 88.4413 129.095C87.2691 130.926 85.2005 132.032 83.0284 132.032" stroke="#BD4780" stroke-miterlimit="10" stroke-linecap="round" stroke-linejoin="round"/>
<path d="M59.6042 40.9695C59.7076 40.313 60.0524 39.6566 60.604 39.2075C61.1212 38.7583 61.8107 38.482 62.5002 38.4129C63.1898 38.3438 63.8793 38.5165 64.4654 38.8965C65.0515 39.242 65.4997 39.8293 65.7066 40.4512C65.7755 40.6931 65.6376 40.9695 65.3618 41.0385C65.1894 41.1076 64.9826 41.0386 64.8446 40.9004L64.8102 40.8658C64.2241 40.1748 63.3966 39.8293 62.5692 39.8984C61.7417 39.9675 60.9833 40.4512 60.5695 41.2113V41.2458C60.4316 41.4877 60.1213 41.5913 59.88 41.4531C59.6731 41.384 59.5697 41.1767 59.6042 40.9695Z" fill="#513259"/>
<path d="M73.6706 41.039C73.3603 40.4171 72.8431 40.0371 72.326 40.0025C71.8088 39.968 71.2917 40.2098 70.8435 40.7626L70.809 40.7971C70.6366 40.9699 70.3608 41.0044 70.1884 40.8662C70.0505 40.7626 70.016 40.5899 70.0505 40.4517C70.154 39.968 70.4642 39.4843 70.878 39.1734C71.3262 38.8624 71.9123 38.6897 72.4639 38.7588C73.0155 38.8279 73.5327 39.1043 73.9119 39.4843C74.2567 39.8643 74.498 40.3826 74.5325 40.8662C74.5325 41.1081 74.3601 41.3154 74.1188 41.3154C73.9464 41.3154 73.774 41.2117 73.6706 41.039Z" fill="#513259"/>
<path d="M62.3622 49.3302C63.2586 49.192 66.0857 48.9156 69.6368 49.9521C69.7747 49.9866 69.8437 50.1594 69.7747 50.2975C69.4299 51.0231 68.3612 52.9923 66.327 52.9923C64.1895 52.9578 62.707 50.5739 62.2588 49.6757C62.1554 49.5375 62.2243 49.3302 62.3622 49.3302Z" fill="white"/>
</g>
</svg>
