<svg width="71" height="70" viewBox="0 0 71 70" fill="none" xmlns="http://www.w3.org/2000/svg">
<path opacity="0.5" d="M66.7174 28.8846L69.3392 14.3379C69.7681 11.958 69.4123 9.50322 68.3254 7.34302C65.8962 2.51493 60.3562 0.121764 55.1757 1.6626L42.5122 5.42914L24.3575 9.63319C12.8671 12.294 3.98186 21.4081 1.61406 32.9624C1.20574 34.955 1 36.9837 1 39.0176L1 51.8614C1 59.5926 6.42926 66.261 13.9999 67.8284C20.3673 69.1466 26.9093 66.5557 30.6474 61.2351L35.9675 53.6629C39.1779 49.0935 44.1388 46.0594 49.6691 45.2831C58.2968 44.0719 65.172 37.4587 66.7174 28.8846Z" stroke="#DEE2E9" stroke-width="2"/>
</svg>
