<svg width="368" height="244" viewBox="0 0 368 244" fill="none" xmlns="http://www.w3.org/2000/svg">
<path opacity="0.5" d="M175.754 32.073L298.826 2.89167C316.962 -1.40833 336.042 3.73022 349.566 16.556C363.504 29.7753 369.57 49.2883 365.584 68.08L352.151 131.408L354.967 145.929C363.798 191.482 328.905 233.79 282.504 233.789C276.034 233.789 269.592 232.939 263.344 231.259L190.214 211.603C169.351 205.995 147.233 207.295 127.17 215.307L68.9838 238.543C55.5442 243.91 40.4287 243.124 27.6179 236.393C-3.07791 220.264 -8.09316 178.382 17.9266 155.461L132.724 54.3371C145.026 43.5009 159.802 35.8552 175.754 32.073Z" stroke="#DEE2E9" stroke-width="2"/>
</svg>
