<svg width="407" height="236" viewBox="0 0 407 236" fill="none" xmlns="http://www.w3.org/2000/svg">
<path opacity="0.5" d="M406 65.6552L406 47.1839C406 27.5231 393.343 10.097 374.647 4.01571C362.836 0.17413 349.967 1.33959 339.038 7.24056L306.35 24.891C286.784 35.4555 264.256 39.1977 242.326 35.5262L138.588 18.1587C123.101 15.5659 107.219 16.6945 92.2541 21.4513L45.5097 36.3098C4.34307 49.3953 -12.008 98.8895 13.2619 133.923C16.9364 139.017 19.8343 144.629 21.8609 150.574L27.395 166.809C46.1867 221.937 107.927 249.405 161.457 226.451L169.155 223.151C176.36 220.061 183.903 217.829 191.63 216.502L261.377 204.517C288.566 199.846 312.617 184.15 327.84 161.143L338.524 144.995C345.465 134.507 355.511 126.451 367.258 121.957C390.591 113.031 406 90.6374 406 65.6552Z" stroke="#DEE2E9" stroke-width="2"/>
</svg>
