<svg width="463" height="556" viewBox="0 0 463 556" fill="none" xmlns="http://www.w3.org/2000/svg">
<path d="M104.653 501.741C104.653 501.741 106.767 486.504 86.2773 485.038C63.8364 483.49 52.372 476.157 52.372 465.565C52.372 457.743 61.4785 458.476 73.3494 462.061C79.1222 463.772 81.8867 454.321 68.1457 447.558C54.4047 440.796 35.6227 434.929 33.7526 422.789C32.533 415.049 39.6881 417.412 43.0217 413.175C46.3553 408.938 36.6797 404.294 18.792 390.606C0.660438 376.592 -3.16102 358.178 2.28659 352.719C7.73419 347.26 14.4014 348.238 32.533 370.318C47.087 387.999 53.0225 385.717 53.429 380.421C53.9982 373.74 54.9739 367.711 59.0393 367.466C63.1859 367.222 67.4952 374.148 68.3896 387.184C68.9588 395.657 73.0242 395.576 74.8129 393.946C77.5774 391.421 75.3008 381.643 82.5371 380.91C87.8221 380.34 93.2697 383.925 98.3921 395.902C102.214 404.783 104.084 414.397 104.084 424.093L104.653 501.741Z" fill="#FF804A"/>
<path d="M39.2815 454.076C40.5824 453.751 40.9076 452.365 40.2572 451.225C37.818 446.906 32.1264 441.936 24.9714 442.67C16.8406 443.484 32.7769 455.543 39.2815 454.076Z" fill="#FF6E3A"/>
<path d="M19.8492 418.389C21.5566 418.797 22.8576 417.086 22.2071 415.456C20.5809 411.627 17.7352 408.042 13.2633 407.471C7.65305 406.657 12.2063 416.434 19.8492 418.389Z" fill="#FF804A"/>
<path d="M37.3301 389.546C50.9084 405.842 94.2454 422.708 104.409 461.735" stroke="#E25839" stroke-miterlimit="10" stroke-linecap="round" stroke-linejoin="round"/>
<path d="M52.3721 426.781C69.3653 431.262 86.1147 430.611 99.3678 448.454" stroke="#E25839" stroke-miterlimit="10" stroke-linecap="round" stroke-linejoin="round"/>
<path d="M61.1533 394.272C61.1533 394.272 61.6412 404.783 66.7635 412.93" stroke="#E25839" stroke-miterlimit="10" stroke-linecap="round" stroke-linejoin="round"/>
<path d="M83.513 402.175C83.513 402.175 81.7242 421.73 96.6035 443.484" stroke="#E25839" stroke-miterlimit="10" stroke-linecap="round" stroke-linejoin="round"/>
<path d="M341.339 556H149.616C124.167 556 103.514 535.305 103.514 509.802V46.1975C103.514 20.6952 124.167 0 149.616 0H341.339C366.788 0 387.44 20.6952 387.44 46.1975V509.802C387.44 535.305 366.788 556 341.339 556Z" fill="#112440"/>
<path d="M337.193 12.5474H312.394C308.41 12.5474 304.913 15.3991 304.1 19.31C302.637 26.317 296.457 31.3686 289.302 31.3686H201.49C194.335 31.3686 188.156 26.317 186.692 19.31C185.879 15.3991 182.383 12.5474 178.399 12.5474H153.6C133.436 12.5474 117.174 28.9243 117.174 49.0491V506.869C117.174 527.076 133.517 543.371 153.6 543.371H337.03C357.194 543.371 373.456 526.994 373.456 506.869V49.0491C373.618 28.9243 357.357 12.5474 337.193 12.5474Z" fill="#74D1DE"/>
<path d="M223.162 62.7832H252.454C257.47 62.7832 264.644 70.2988 265.668 67.1034C283.364 11.8926 281.617 81.7109 284.806 81.7109C287.996 81.7109 289.819 63.908 293.464 56.6042C298.021 48.8439 297.08 67.2417 302.122 62.7832C311.691 54.3218 311.236 59.7686 322.927 59.7686C337.887 59.5241 375.614 59.7686 375.614 59.7686" stroke="white" stroke-miterlimit="10" stroke-linecap="round"/>
<path d="M221.455 65.7165C223.027 65.7165 224.301 64.4032 224.301 62.7833C224.301 61.1633 223.027 59.8501 221.455 59.8501C219.883 59.8501 218.609 61.1633 218.609 62.7833C218.609 64.4032 219.883 65.7165 221.455 65.7165Z" fill="white"/>
<path d="M440.128 84.492C440.128 84.492 449.478 84.7364 450.535 67.8707C451.511 52.7159 446.063 24.9322 448.34 13.0365C448.584 11.7329 447.283 10.6737 445.982 11.1626C443.868 12.1403 441.347 13.281 439.884 13.9328C439.152 14.2587 438.339 14.0957 437.932 13.4439L434.68 9.53302C434.111 8.88121 433.216 8.71825 432.485 9.20711L426.061 13.281C425.33 13.7698 424.354 13.6069 423.866 12.8736L420.37 8.39234C419.801 7.65905 418.825 7.57757 418.093 8.06643L411.263 12.7106C410.532 13.1995 409.475 13.0365 408.906 12.3032L406.466 8.79973C405.897 7.98496 404.759 7.822 404.027 8.47382L399.555 12.2218C398.823 12.8736 397.685 12.7106 397.116 11.8959L395.246 9.20711C394.514 8.14791 392.969 8.22939 392.4 9.37007C391.424 11.3255 390.286 14.3402 390.449 18.0881C390.693 24.6063 391.018 58.2563 391.018 58.2563L426.874 79.9293L440.128 84.492Z" fill="#F0EBDA"/>
<path d="M416.549 85.3063L422.89 31.124H364.756C364.756 31.124 345.16 29.8204 344.754 47.9898C344.429 66.1592 344.754 85.2249 344.754 85.2249L344.591 130.445L403.377 137.615C403.377 137.615 418.012 138.592 417.28 111.868C416.549 85.3063 416.549 85.3063 416.549 85.3063Z" fill="#F0EBDA"/>
<path d="M354.43 201.493C367.52 201.493 373.7 192.531 373.7 177.213C373.7 158.147 373.7 138.919 373.7 138.919L383.944 76.0999H318.248C318.248 76.0999 295.644 73.6556 295.644 98.5876C295.644 123.52 295.644 201.493 295.644 201.493H354.43Z" fill="#F0EBDA"/>
<path d="M337.518 177.376C338.656 176.642 340.201 177.376 340.282 178.761C340.689 185.605 342.884 201.493 353.617 201.493H295.563V174.442L300.279 178.598C301.58 179.738 303.45 179.82 304.832 178.842L307.271 177.131C308.572 176.235 310.361 176.235 311.581 177.213L314.101 179.087C315.321 179.983 316.947 180.064 318.248 179.25L321.988 176.968C323.289 176.153 324.996 176.235 326.216 177.213L329.306 179.657C330.525 180.635 332.314 180.716 333.615 179.82L337.518 177.376Z" fill="#238CA3"/>
<path d="M403.377 137.778C403.377 137.778 390.693 138.104 391.994 121.075C393.539 100.787 398.986 76.0996 383.944 76.0996C372.236 76.0996 373.862 91.9876 373.7 103.965V138.918L403.377 137.778Z" fill="#238CA3"/>
<path d="M416.548 85.3064C416.548 85.3064 413.947 51.086 413.865 47.5825C413.784 44.0789 412.727 32.6721 422.89 31.2056C433.135 29.739 434.924 41.0643 433.135 55.8931C431.672 68.1962 429.314 81.0696 440.128 84.4916L416.548 85.3064Z" fill="#238CA3"/>
<path d="M281.578 137.207C281.253 137.289 281.009 136.881 281.253 136.556C283.692 133.704 290.522 124.497 286.05 113.66C280.603 100.706 269.057 112.846 260.682 116.512C252.307 120.179 234.42 111.623 221.004 122.623C205.637 135.17 210.515 158.717 191.327 163.443C172.138 168.087 159.536 170.287 150.185 187.316C140.835 204.263 155.795 239.706 145.144 252.742C134.493 265.778 119.852 269.783 113.473 290.325C103.797 316.561 123.126 341.535 147.193 346.016C186.708 353.349 191.489 324.116 261.251 339.678C331.013 355.24 359.654 335.485 363.638 302.65C367.622 269.733 337.355 262.927 337.843 243.453C338.412 223.98 339.469 207.115 321.094 197.908C302.718 188.701 300.523 176.805 301.661 164.339C302.474 151.955 301.011 133.215 281.578 137.207Z" fill="#6A325E"/>
<path d="M175.259 421.889H320.962C321.613 421.889 322.263 422.133 322.832 422.54C326.735 425.474 345.355 437.777 377.308 428.896C409.994 419.77 419.344 362.573 372.674 341.471C362.348 336.826 353.811 329.168 348.2 319.309C334.134 294.621 300.961 251.357 240.549 251.357C149.891 251.357 105.904 325.501 94.5208 371.617C85.8209 406.978 88.0994 443.704 123.953 443.704C170.432 443.704 170.432 431.836 172.576 423.681C172.983 422.622 174.04 421.889 175.259 421.889Z" fill="white"/>
<path opacity="0.5" d="M215.224 372.779C189.494 351.163 171.232 339.33 176.913 327.655C182.595 315.9 188.601 310.694 183.975 307.854C180.403 305.645 163.034 303.594 170.42 288.605C177.806 273.616 193.634 255.314 223.828 251.764C254.915 248.057 279.914 259.574 292.901 276.062C307.024 294.048 292.82 295.626 286.002 300.202C280.077 304.146 293.469 307.302 295.417 326.156C297.69 347.535 257.674 358.973 240.142 415.378C239.737 416.641 237.87 416.641 237.464 415.299C234.704 405.36 227.48 383.113 215.224 372.779Z" fill="#74D1DE"/>
<path d="M208.023 257.281C204.286 259.778 202.58 264.29 203.474 268.64C206.399 283.301 213.304 314.799 223.296 344.042C233.126 372.801 236.62 390.121 237.838 397.452C238.001 398.257 239.057 398.257 239.219 397.452C246.287 365.148 279.352 320.922 271.228 274.843C268.384 258.812 247.587 250.595 237.026 250.192C227.196 249.87 216.391 251.561 208.023 257.281Z" fill="#1B5FC5"/>
<path d="M195.019 372.658C195.019 372.658 208.272 360.599 205.752 346.911C203.313 333.223 187.376 326.216 179.164 303.484C171.44 282.055 177.701 240.176 236.08 235.206C297.467 229.991 317.306 282.544 303.077 306.417" stroke="#BD4780" stroke-width="2" stroke-miterlimit="10" stroke-linecap="round" stroke-linejoin="round"/>
<path d="M214.824 257.111C219.134 252.222 225.72 230.06 225.72 190.462H250.6C250.6 190.462 248.567 243.667 249.949 251.407C250.6 254.992 251.738 257.274 252.795 258.74C254.259 260.777 255.072 263.303 254.909 265.829C254.421 273.406 252.389 288.316 244.339 300.131C244.339 300.131 226.858 289.539 213.93 262.407C213.28 260.696 213.524 258.577 214.824 257.111Z" fill="#F4ADAD"/>
<path d="M265.479 145.029C268.569 143.4 272.39 145.681 272.553 149.185C273.447 165.154 274.26 211.841 255.722 220.477C244.014 225.936 229.622 212.411 226.045 197.256C225.882 196.604 225.151 196.197 224.5 196.441C222.386 197.256 217.752 197.989 213.28 191.553C209.946 186.827 208.645 179.494 211.084 175.583C214.743 169.635 220.435 174.443 222.793 176.887C223.28 177.376 224.012 177.131 224.175 176.561C225.638 171.265 229.622 163.443 241.9 160.999C254.177 158.554 258.731 148.614 265.479 145.029Z" fill="#FBC9BE"/>
<path d="M189.491 392.375C196.002 392.375 201.28 387.086 201.28 380.561C201.28 374.036 196.002 368.747 189.491 368.747C182.979 368.747 177.701 374.036 177.701 380.561C177.701 387.086 182.979 392.375 189.491 392.375Z" fill="#BD4780"/>
<path d="M190.026 387.1C193.801 387.1 196.861 384.035 196.861 380.253C196.861 376.471 193.801 373.406 190.026 373.406C186.251 373.406 183.191 376.471 183.191 380.253C183.191 384.035 186.251 387.1 190.026 387.1Z" stroke="#F17FB6"/>
<path d="M270.554 387.731C265.188 384.716 262.098 378.768 262.83 372.657C265.106 353.918 272.262 315.135 294.215 307.231C321.209 297.454 326.006 355.14 306.573 385.449C303.809 389.768 298.93 392.375 293.808 392.375" stroke="#BD4780" stroke-width="2" stroke-miterlimit="10" stroke-linecap="round" stroke-linejoin="round"/>
<path d="M147.177 436.392C147.177 436.392 154.901 437.288 155.145 429.711C155.389 420.585 157.909 415.615 156.12 410.319C153.6 402.905 145.307 399.075 142.867 396.061L137.989 398.179C137.989 398.179 140.265 403.964 136.2 405.105C132.135 406.245 125.386 401.845 125.386 401.845C125.386 401.845 119.65 398.879 117.087 402.76C116.778 403.228 116.782 403.818 116.986 404.342C119.263 410.192 129.693 438.005 147.177 436.392Z" fill="#EE9C9C"/>
<path d="M120.606 379.798L147.356 419.233C149.145 421.841 150.527 424.611 151.665 427.544L152.966 431.047C153.21 431.781 152.397 432.351 151.828 431.781L148.82 429.092C146.543 427.055 144.592 424.692 142.803 422.248L115.809 382.976C114.996 381.754 115.24 380.043 116.378 379.147C117.76 378.087 119.712 378.413 120.606 379.798Z" fill="#2C326A"/>
<path d="M124.004 409.911C124.004 409.911 141.241 415.859 144.575 421.237C147.177 425.392 142.867 426.288 140.753 426.451C140.428 426.451 140.428 426.859 140.672 427.022C142.38 427.999 145.957 430.118 146.689 431.503C147.665 433.377 145.957 434.762 146.201 435.088C146.445 435.414 148.396 436.717 146.933 438.673C145.469 440.628 131.24 439.08 128.151 437.125C122.866 433.784 124.004 426.37 124.004 423.355C124.004 420.259 120.427 418.141 119.532 414.067C118.556 409.178 122.378 409.178 124.004 409.911Z" fill="#FBC9BE"/>
<path d="M118.394 398.179C115.955 399.319 115.467 402.578 117.418 404.452C119.532 406.489 123.028 409.26 127.5 411.215C135.143 414.556 136.119 411.052 134.574 408.608C132.611 404.903 124.411 399.482 121.971 398.179C120.833 397.608 119.614 397.608 118.394 398.179Z" fill="#FBC9BE"/>
<path d="M141.388 410.459C140.048 409.546 140.32 406.861 138.531 402.461C136.742 398.062 135.685 396.432 138.206 394.966C140.727 393.499 144.223 394.64 146.174 401.565C148.044 408.491 143.421 411.844 141.388 410.459Z" fill="#FBC9BE"/>
<path d="M172.71 425.445C172.71 425.445 177.723 402.164 159.291 387.098C150.838 380.498 141.776 372.883 144.459 371.58C147.142 370.276 155.423 374.842 163.597 385.274C168.15 392.281 168.886 387.913 164.82 380.498C160.674 373.165 152.949 364.203 155.551 362.655C158.153 361.107 164.17 373.491 168.073 371.047C169.521 367.471 159.291 354.69 159.291 336.43" stroke="#74D1DE" stroke-miterlimit="10" stroke-linecap="round" stroke-linejoin="round"/>
<path d="M372.147 340.781C372.147 340.781 357.024 335.729 343.121 351.047C333.282 361.883 336.453 348.928 344.015 342.329C351.251 336.055 344.902 336.532 341.672 338.331C335.818 341.59 334.557 345.033 330.736 348.374C326.179 351.047 330.111 341.596 327.184 335.974" stroke="#74D1DE" stroke-miterlimit="10" stroke-linecap="round" stroke-linejoin="round"/>
<path d="M248.73 510.128C266.871 510.128 281.578 495.391 281.578 477.212C281.578 459.032 266.871 444.295 248.73 444.295C230.588 444.295 215.882 459.032 215.882 477.212C215.882 495.391 230.588 510.128 248.73 510.128Z" fill="#EF5F79"/>
<path d="M252.389 488.455H236.046C234.338 488.455 232.956 487.07 232.956 485.359V468.982C232.956 467.271 234.338 465.886 236.046 465.886H252.389C254.096 465.886 255.478 467.271 255.478 468.982V485.359C255.478 487.07 254.096 488.455 252.389 488.455Z" fill="white"/>
<path d="M259.056 479.574L264.341 484.87C265.235 485.767 266.78 485.115 266.78 483.893V470.53C266.78 469.227 265.235 468.656 264.341 469.553L259.056 474.849C257.673 476.152 257.673 478.271 259.056 479.574Z" fill="white"/>
<path d="M174.903 497.988C186.353 497.988 195.636 488.686 195.636 477.212C195.636 465.737 186.353 456.435 174.903 456.435C163.452 456.435 154.169 465.737 154.169 477.212C154.169 488.686 163.452 497.988 174.903 497.988Z" fill="white"/>
<path d="M174.903 482.263C172.545 482.263 170.675 480.389 170.675 478.026V471.834C170.675 469.471 172.545 467.597 174.903 467.597C177.26 467.597 179.131 469.471 179.131 471.834V478.026C179.131 480.389 177.179 482.263 174.903 482.263Z" fill="#74D1DE"/>
<path d="M184.009 474.278V478.352C184.009 483.404 179.944 487.559 174.821 487.559C169.78 487.559 165.634 483.485 165.634 478.352V474.278" stroke="#74D1DE" stroke-width="2" stroke-miterlimit="10" stroke-linecap="round" stroke-linejoin="round"/>
<path d="M174.903 487.559V497.662" stroke="#74D1DE" stroke-width="2" stroke-miterlimit="10" stroke-linecap="round" stroke-linejoin="round"/>
<path d="M322.638 497.907C334.089 497.907 343.372 488.605 343.372 477.13C343.372 465.656 334.089 456.354 322.638 456.354C311.188 456.354 301.905 465.656 301.905 477.13C301.905 488.605 311.188 497.907 322.638 497.907Z" fill="white"/>
<path d="M328.249 482.263H318.085C317.272 482.263 316.459 482.589 315.89 483.241L314.345 484.952C314.101 485.278 313.613 485.033 313.613 484.626V472.405C313.613 470.531 315.077 469.064 316.947 469.064H328.249C330.119 469.064 331.582 470.531 331.582 472.405V478.923C331.582 480.797 330.119 482.263 328.249 482.263Z" fill="#74D1DE"/>
<path d="M238.566 177.62C238.81 176.072 239.623 174.524 240.924 173.465C242.144 172.406 243.77 171.754 245.396 171.591C247.022 171.428 248.648 171.835 250.031 172.731C251.413 173.546 252.47 174.931 252.958 176.398C253.12 176.968 252.795 177.62 252.145 177.783C251.738 177.946 251.25 177.783 250.925 177.457L250.844 177.376C249.461 175.746 247.51 174.931 245.559 175.094C243.607 175.257 241.819 176.398 240.843 178.19V178.272C240.518 178.842 239.786 179.087 239.217 178.761C238.729 178.598 238.485 178.109 238.566 177.62Z" fill="#513259"/>
<path d="M271.74 177.783C271.008 176.317 269.789 175.42 268.569 175.339C267.349 175.257 266.13 175.828 265.073 177.131L264.991 177.213C264.585 177.62 263.934 177.702 263.528 177.376C263.203 177.131 263.121 176.724 263.203 176.398C263.447 175.257 264.178 174.117 265.154 173.384C266.211 172.65 267.593 172.243 268.894 172.406C270.195 172.569 271.415 173.221 272.309 174.117C273.122 175.013 273.691 176.235 273.773 177.376C273.773 177.946 273.366 178.435 272.797 178.435C272.39 178.435 271.984 178.191 271.74 177.783Z" fill="#513259"/>
<path d="M245.071 197.337C247.185 197.011 253.852 196.36 262.227 198.804C262.552 198.885 262.715 199.293 262.552 199.619C261.739 201.33 259.219 205.974 254.421 205.974C249.38 205.893 245.884 200.271 244.827 198.152C244.583 197.826 244.746 197.337 245.071 197.337Z" fill="white"/>
<path d="M451.104 194.421C441.998 185.866 432.241 181.466 429.233 184.644L420.37 194.014L453.218 225.138L462.081 215.768C465.171 212.59 460.211 203.058 451.104 194.421Z" fill="#FFD873"/>
<path d="M453.349 225.157C456.37 221.95 451.46 212.389 442.382 203.801C433.304 195.213 423.496 190.851 420.475 194.058C417.453 197.265 422.364 206.826 431.442 215.414C440.52 224.002 450.328 228.364 453.349 225.157Z" fill="#B8701C"/>
<path d="M437.526 207.93C426.143 197.175 412.402 193.345 406.71 199.375L364.674 244.024L405.816 282.97L447.852 238.321C453.543 232.291 448.909 218.685 437.526 207.93Z" fill="#FF814A"/>
<path d="M399.421 206.419L372.752 234.773C377.468 229.803 387.875 231.596 397.713 238.603C399.339 239.743 401.535 239.499 402.835 238.032L424.789 214.73C426.089 213.426 425.764 211.226 424.301 210.167C414.381 203.241 404.055 201.449 399.421 206.419Z" fill="#F0EBDA" stroke="#F0EBDA" stroke-linecap="round" stroke-linejoin="round"/>
<path d="M153.844 221.699H68.9585C58.8764 221.699 50.7456 213.551 50.7456 203.448V62.2484C50.7456 52.1453 58.8764 43.9976 68.9585 43.9976H153.844C163.926 43.9976 172.056 52.1453 172.056 62.2484V203.448C172.056 213.47 163.926 221.699 153.844 221.699Z" fill="#EF5F79"/>
<path d="M432.729 340.982C432.404 341.471 431.672 341.308 431.509 340.738C430.208 335.116 425.411 313.28 429.151 311.569C431.753 310.347 431.916 319.961 433.542 320.205C435.249 320.45 439.233 312.709 442.974 313.769C447.852 315.154 438.095 334.382 432.729 340.982Z" fill="#EF5F79"/>
<path d="M452.486 292.014C452.486 292.259 452.812 292.34 452.974 292.177C454.682 290.303 461.674 283.704 460.129 280.2C459.154 277.919 456.308 281.585 455.17 283.378C454.926 283.704 454.438 283.622 454.357 283.215C453.95 281.667 453.137 278.978 451.999 279.059C450.535 279.141 452.08 289.488 452.486 292.014Z" fill="#EF5F79"/>
<path d="M58.924 308.281C66.4856 311.621 88.52 323.517 106.164 358.307C106.408 358.715 106.082 359.285 105.595 359.204C101.367 358.959 85.5116 356.841 74.3725 336.635C65.266 320.013 61.9324 313.169 58.3549 309.014C58.111 308.606 58.5175 308.036 58.924 308.281Z" fill="#B3BE37"/>
<path d="M67.7053 352.115C71.0389 352.36 86.1621 354.071 92.5854 364.5C92.748 364.744 92.5854 364.989 92.3415 365.07C89.4144 365.396 75.7547 366.048 67.38 352.686C67.2987 352.441 67.4613 352.115 67.7053 352.115Z" fill="#B3BE37"/>
<path d="M79.0883 299.318C79.9014 302.17 79.0883 310.155 85.7555 314.88C85.9995 315.043 86.3247 314.88 86.3247 314.554C87.0438 311.78 87.463 303.962 79.6575 298.992C79.3322 298.829 79.007 298.992 79.0883 299.318Z" fill="#5A7A30"/>
<path d="M36.9712 314.88C40.2235 314.961 56.6476 316.184 62.5018 331.99C62.5831 332.234 62.4205 332.397 62.1765 332.397C59.5747 332.234 46.4842 330.523 36.7273 315.287C36.646 315.206 36.7273 314.88 36.9712 314.88Z" fill="#B3BE37"/>
<path d="M99.2865 149.348C99.2865 149.348 98.2295 151.955 89.2043 160.429C80.0979 168.902 51.5589 174.769 50.8271 203.448C50.8271 213.633 59.0392 221.781 69.1213 221.781H153.763C163.926 221.781 172.057 213.552 172.057 203.448C172.057 203.448 174.659 182.264 156.446 172.161C138.233 162.058 128.801 157.984 121.565 150.814L99.2865 149.348Z" fill="#B3BE37"/>
<path d="M112.562 155.205C112.562 155.205 111.536 172.134 112.562 189.556C113.587 206.978 112.562 221.852 112.562 221.852" stroke="#5A7A30" stroke-miterlimit="10" stroke-linecap="round" stroke-linejoin="round"/>
<path d="M99.2866 149.348C99.2866 149.348 95.8717 157.169 97.0913 165.969C97.2539 166.865 98.2296 167.436 99.0427 167.028C101.888 165.725 107.743 162.465 112.296 155.784C112.296 155.784 119.532 167.761 123.516 167.761C126.525 167.761 121.565 150.814 121.565 150.814C121.565 150.814 111.808 157.251 99.2866 149.348Z" fill="#5A7A30"/>
<path d="M97.7415 94.4322C97.1724 91.2546 92.05 60.8636 93.7575 48.2346C93.7575 47.9087 94.2453 47.9087 94.3266 48.2346C94.6518 49.5383 95.221 51.7382 95.5462 53.6936C95.6275 53.938 95.9528 54.0195 96.0341 53.7751C97.7415 49.9457 105.222 34.9539 119.613 29.3319C119.857 29.2505 120.101 29.4949 119.938 29.7393C119.369 30.9615 117.906 33.8132 115.385 36.9908C115.223 37.2352 115.467 37.5611 115.792 37.3982C120.914 33.4873 134.493 24.1174 147.095 23.7915C147.339 23.7915 147.42 24.0359 147.339 24.1989C146.737 27.8458 141.078 33.5688 134.493 40.9832C134.249 41.2276 134.574 41.635 134.899 41.3906C138.151 38.8648 143.762 34.2206 147.339 29.9023C147.502 29.7393 147.746 29.8208 147.827 29.9838C148.559 32.8355 151.486 46.931 141.322 60.1303C141.16 60.3747 141.404 60.7006 141.648 60.5377C142.705 60.0488 144.331 59.0711 145.957 57.6045C146.201 57.3601 146.526 57.6045 146.363 57.9304C145.469 59.7229 143.518 63.3894 139.94 67.8706C134.086 75.2851 134.818 85.6327 134.98 87.3437C134.98 87.5066 134.899 87.5881 134.736 87.6696L98.0668 94.8396C97.9855 94.6766 97.8228 94.5951 97.7415 94.4322Z" fill="#4F253E"/>
<path d="M99.0427 91.6617C98.7988 92.0691 98.2297 92.0691 97.9857 91.6617C96.7661 89.5433 93.2699 84.4917 89.6111 87.6693C85.4644 91.2543 90.1802 104.535 95.7091 106.409C97.5792 107.061 99.0427 106.328 99.6932 105.594C100.018 105.187 100.669 105.431 100.75 105.92C101.482 112.683 103.271 134.845 99.2867 149.266C99.2867 149.266 109.369 157.658 121.565 150.733C119.939 148.37 115.873 141.118 114.898 117.408C114.898 117.408 121.402 123.275 127.907 118.386C135.956 112.357 140.184 82.3733 132.623 60.3744C131.972 58.419 129.614 57.7672 127.907 58.9893C124.492 61.5151 118.231 65.3445 109.613 67.3815C97.6605 70.2332 106.198 80.9882 99.0427 91.6617Z" fill="#FBC9BE"/>
<path d="M96.5166 101.367C97.9629 100.643 98.4037 98.5878 97.501 96.7761C96.5984 94.9644 94.6941 94.0823 93.2478 94.806C91.8014 95.5296 91.3607 97.5849 92.2633 99.3966C93.166 101.208 95.0702 102.09 96.5166 101.367Z" fill="white"/>
<path d="M94.0016 99.6465C94.0016 99.6465 84.6513 110.076 85.0578 131.341C85.4643 152.525 107.105 185.578 101.17 220.939C101.17 220.939 108.005 201.767 124.411 175.257C159.129 126.86 135.306 112.601 134.899 102.987" stroke="white" stroke-miterlimit="10" stroke-linecap="round" stroke-linejoin="round"/>
<path d="M150.205 211.81H134.156C133.051 211.81 132.156 212.705 132.156 213.81V221.852H152.205V213.81C152.205 212.705 151.31 211.81 150.205 211.81Z" fill="#5A7A30"/>
<path d="M272.018 391.577C273.499 391.577 274.701 390.373 274.701 388.888C274.701 387.403 273.499 386.2 272.018 386.2C270.536 386.2 269.334 387.403 269.334 388.888C269.334 390.373 270.536 391.577 272.018 391.577Z" fill="#BD4780"/>
<path d="M292.182 395.406C293.664 395.406 294.865 394.203 294.865 392.718C294.865 391.233 293.664 390.029 292.182 390.029C290.7 390.029 289.499 391.233 289.499 392.718C289.499 394.203 290.7 395.406 292.182 395.406Z" fill="#BD4780"/>
<path d="M405.868 282.948C411.54 276.927 406.926 263.331 395.562 252.581C384.198 241.831 370.388 237.997 364.716 244.018C359.044 250.039 363.658 263.635 375.021 274.385C386.385 285.135 400.196 288.969 405.868 282.948Z" fill="#E2583A"/>
<path d="M406.873 281.992C406.873 281.992 412.239 276.045 413.459 272.541C415.898 265.615 409.068 253.394 409.231 248.179C409.393 243.372 417.362 250.624 419.882 258.445C419.963 258.608 420.142 258.828 420.597 258.445C421.804 256.627 422.633 253.461 419.95 244.987C416.454 233.988 418.974 232.44 421.414 232.44C421.983 232.44 422.389 232.032 422.389 231.462C422.389 229.181 420.926 224.618 421.414 222.662C421.901 220.707 424.231 219.442 430.167 225.961C435.614 231.908 437.913 236.003 438.827 240.765C439.152 241.498 440.128 241.58 440.534 240.846C441.266 239.461 441.835 237.372 441.103 235.09C439.802 231.179 431.753 218.848 432.647 214.611C433.542 210.374 447.12 224.958 450.21 235.469C452.243 242.639 449.37 258.757 428.8 281.652C408.798 303.895 406.222 368.114 396.953 388.727C387.684 409.341 367.357 409.341 361.259 397.445C355.161 385.55 358.739 362.573 372.968 342.122C384.513 325.583 391.994 311.813 395.734 298.614C398.698 288.515 400.099 288.78 406.873 281.992Z" fill="#FBC9BE"/>
<path d="M311.236 404.447C311.995 408.707 315.246 418.324 322.172 422.706" stroke="#74D1DE" stroke-linecap="round"/>
<ellipse cx="107.549" cy="172.552" rx="1.8227" ry="1.82594" fill="#5A7A30"/>
<ellipse cx="105.727" cy="199.941" rx="1.8227" ry="1.82594" fill="#5A7A30"/>
</svg>
