<svg width="1440" height="831" viewBox="0 0 1440 831" fill="none" xmlns="http://www.w3.org/2000/svg">
<g opacity="0.5">
<path d="M504 627.655L504 609.184C504 589.523 491.343 572.097 472.647 566.016C460.836 562.174 447.967 563.34 437.038 569.241L404.35 586.891C384.784 597.455 362.256 601.198 340.326 597.526L236.588 580.159C221.101 577.566 205.219 578.695 190.254 583.451L143.51 598.31C102.343 611.395 85.992 660.89 111.262 695.923C114.936 701.017 117.834 706.629 119.861 712.574L136.362 760.983C148.923 797.832 191.334 814.862 225.891 796.932C231.197 794.179 236.865 792.188 242.728 791.016L361.156 767.354C387.287 762.133 410.255 746.698 424.959 724.474L436.524 706.995C443.465 696.507 453.511 688.451 465.258 683.957C488.591 675.031 504 652.637 504 627.655Z" stroke="#DEE2E9" stroke-width="2"/>
<path d="M85.7536 36.073L208.826 6.89164C226.962 2.59164 246.042 7.73019 259.566 20.556C273.504 33.7753 279.57 53.2882 275.584 72.08L262.151 135.408L264.967 149.929C273.798 195.482 238.905 237.789 192.504 237.789C186.034 237.789 179.592 236.939 173.344 235.259L100.214 215.603C79.3507 209.995 57.233 211.295 37.1703 219.307L-21.0162 242.543C-34.4558 247.91 -49.5713 247.124 -62.3821 240.393C-93.0779 224.264 -98.0932 182.382 -72.0734 159.461L42.7242 58.3371C55.0255 47.5009 69.8024 39.8552 85.7536 36.073Z" stroke="#DEE2E9" stroke-width="2"/>
<path d="M1084.76 319.459L995.733 353.17C974.13 361.35 950.094 360.144 929.419 349.843C885.014 327.719 869.86 271.803 897.017 230.284L916.736 200.138C926.536 185.155 940.179 173.078 956.239 165.168L1077.86 105.267C1095.64 96.5093 1115.62 93.2334 1135.27 95.8558L1198.58 104.305C1221.75 107.398 1245.28 102.275 1265.06 89.826L1309.91 61.6134C1333.05 47.0491 1363.06 49.6185 1383.39 67.9066C1399.83 82.6866 1407.01 105.182 1402.19 126.752L1387.01 194.605C1384.08 207.711 1383.95 221.289 1386.64 234.447C1398.71 293.451 1353.62 348.684 1293.4 348.684L1285.35 348.684C1277.02 348.684 1268.73 347.644 1260.66 345.587L1144.87 316.077C1124.96 311.003 1103.97 312.184 1084.76 319.459Z" stroke="#DEE2E9" stroke-width="2"/>
<path d="M1242.06 711.358L1213.23 745.109C1210.5 748.302 1209 752.364 1209 756.563C1209 767.33 1218.57 775.584 1229.22 774.007L1301.6 763.291C1316.22 761.127 1329.96 754.997 1341.33 745.566L1376.83 716.126C1385.96 708.554 1393.67 699.419 1399.6 689.146L1410.83 669.698C1418.45 656.512 1430.17 646.182 1444.21 640.287L1481.51 624.624C1495.68 618.673 1502.51 602.496 1496.89 588.192C1493.45 579.451 1485.9 572.986 1476.73 570.936L1396.31 552.944C1350.99 537.578 1301.35 558.555 1280.78 601.761L1279.95 603.493C1276.65 610.42 1274.19 617.716 1272.62 625.226L1263.9 666.886C1260.47 683.308 1252.96 698.601 1242.06 711.358Z" stroke="#DEE2E9" stroke-width="2"/>
<path d="M560.717 725.885L563.339 711.338C563.768 708.958 563.412 706.503 562.325 704.343C559.896 699.515 554.356 697.122 549.176 698.663L536.512 702.429L518.357 706.633C506.867 709.294 497.982 718.408 495.614 729.962C495.206 731.955 495 733.984 495 736.018L495 748.861C495 756.593 500.429 763.261 508 764.828C514.367 766.147 520.909 763.556 524.647 758.235L529.967 750.663C533.178 746.093 538.139 743.059 543.669 742.283C552.297 741.072 559.172 734.459 560.717 725.885Z" stroke="#DEE2E9" stroke-width="2"/>
</g>
</svg>
