<svg width="111" height="161" viewBox="0 0 111 161" fill="none" xmlns="http://www.w3.org/2000/svg">
<path d="M1.06492 160.403C1.06492 160.403 -1.14953 144.383 20.3136 142.841C43.8208 141.213 55.8299 133.502 55.8299 122.365C55.8299 114.141 46.2907 114.912 33.8558 118.681C27.8086 120.48 24.9128 110.543 39.3067 103.432C53.7006 96.3212 73.3751 90.153 75.334 77.388C76.6116 69.2493 69.1165 71.7337 65.6245 67.2788C62.1325 62.8239 72.2679 57.9407 91.0055 43.548C109.999 28.8126 114.002 9.45095 108.295 3.711C102.589 -2.02896 95.6047 -1.00093 76.6116 22.2159C61.366 40.8065 55.1485 38.4077 54.7226 32.8391C54.1264 25.8141 53.1044 19.4744 48.8458 19.2174C44.5021 18.9604 39.9881 26.2424 39.0512 39.9498C38.455 48.8596 34.1964 48.7739 32.3227 47.0605C29.4269 44.4047 31.8116 34.1242 24.2314 33.3531C18.6953 32.7534 12.9889 36.523 7.62309 49.1166C3.62005 58.4547 1.66111 68.5639 1.66111 78.7587L1.06492 160.403Z" fill="#74D1DE"/>
<path d="M69.5423 110.286C68.1796 109.943 67.8389 108.487 68.5202 107.287C71.0754 102.746 77.0373 97.5205 84.5324 98.2916C93.0494 99.1483 76.356 111.828 69.5423 110.286Z" fill="#74D1DE"/>
<path d="M89.8979 72.7619C88.1093 73.1903 86.7466 71.3911 87.428 69.6777C89.1314 65.651 92.1124 61.8813 96.7967 61.2815C102.674 60.4248 97.904 70.7057 89.8979 72.7619Z" fill="#74D1DE"/>
<path d="M71.5864 42.4341C57.3629 59.5683 11.9667 77.3023 1.32031 118.339" stroke="#3FA4BC" stroke-miterlimit="10" stroke-linecap="round" stroke-linejoin="round"/>
<path d="M55.8296 81.5857C38.0288 86.2977 20.4836 85.6124 6.60071 104.375" stroke="#3FA4BC" stroke-miterlimit="10" stroke-linecap="round" stroke-linejoin="round"/>
<path d="M46.6313 47.4036C46.6313 47.4036 46.1203 58.4547 40.7545 67.0215" stroke="#3FA4BC" stroke-miterlimit="10" stroke-linecap="round" stroke-linejoin="round"/>
<path d="M23.2094 55.7139C23.2094 55.7139 25.0831 76.2746 9.49683 99.1484" stroke="#3FA4BC" stroke-miterlimit="10" stroke-linecap="round" stroke-linejoin="round"/>
</svg>
