<svg width="620" height="404" viewBox="0 0 620 404" fill="none" xmlns="http://www.w3.org/2000/svg">
<path d="M87.0416 351.555C87.0416 351.555 88.7998 338.895 71.7583 337.676C53.0939 336.389 43.5587 330.296 43.5587 321.494C43.5587 314.995 51.1327 315.604 61.006 318.583C65.8073 320.005 68.1066 312.151 56.678 306.531C45.2494 300.912 29.628 296.037 28.0726 285.949C27.0583 279.517 33.0093 281.481 35.7819 277.96C38.5545 274.439 30.5071 270.58 15.6297 259.206C0.549298 247.56 -2.62907 232.259 1.9018 227.723C6.43266 223.186 11.9779 223.999 27.0583 242.347C39.1631 257.039 44.0997 255.143 44.4379 250.742C44.9112 245.191 45.7227 240.18 49.104 239.977C52.5529 239.774 56.137 245.529 56.8808 256.362C57.3542 263.403 60.7355 263.336 62.2232 261.981C64.5225 259.883 62.629 251.758 68.6476 251.149C73.0432 250.675 77.5741 253.654 81.8344 263.606C85.0128 270.986 86.5682 278.975 86.5682 287.032L87.0416 351.555Z" fill="#B3BE37"/>
<path d="M32.6713 311.948C33.7533 311.677 34.0238 310.526 33.4828 309.578C31.4541 305.99 26.7204 301.86 20.7694 302.469C14.0069 303.146 27.2614 313.167 32.6713 311.948Z" fill="#B3BE37"/>
<path d="M16.509 282.293C17.9291 282.632 19.0111 281.21 18.4701 279.856C17.1176 276.673 14.7507 273.694 11.0314 273.22C6.36523 272.543 10.1522 280.668 16.509 282.293Z" fill="#B3BE37"/>
<path d="M31.0481 258.326C42.3415 271.867 78.3855 285.882 86.8387 318.313" stroke="#5A7A30" stroke-miterlimit="10" stroke-linecap="round" stroke-linejoin="round"/>
<path d="M43.5586 289.267C57.6922 292.991 71.6229 292.449 82.6458 307.276" stroke="#5A7A30" stroke-miterlimit="10" stroke-linecap="round" stroke-linejoin="round"/>
<path d="M50.8623 262.252C50.8623 262.252 51.2681 270.986 55.5284 277.757" stroke="#5A7A30" stroke-miterlimit="10" stroke-linecap="round" stroke-linejoin="round"/>
<path d="M69.4592 268.82C69.4592 268.82 67.9715 285.069 80.3468 303.146" stroke="#5A7A30" stroke-miterlimit="10" stroke-linecap="round" stroke-linejoin="round"/>
<path d="M535.295 388.971H113.435C97.8371 388.971 85.1636 376.279 85.1636 360.657V73.603C85.1636 57.9811 97.8371 45.2882 113.435 45.2882H535.295C550.893 45.2882 563.567 57.9811 563.567 73.603V360.657C563.567 376.279 550.893 388.971 535.295 388.971Z" fill="#112440"/>
<path d="M532.016 379.208H116.803C105.459 379.208 96.3306 370.065 96.3306 358.704V75.5557C96.3306 64.1943 105.459 55.0519 116.803 55.0519H532.016C543.36 55.0519 552.489 64.1943 552.489 75.5557V358.704C552.489 369.977 543.272 379.208 532.016 379.208Z" fill="#74D1DE"/>
<path d="M124.602 167.512C124.602 167.512 181.943 112.569 234.676 110.261C247.881 109.64 259.314 112.48 269.151 117.007C296.271 129.522 313.11 157.393 312.489 187.394L310.894 272.25L165.282 303.938C165.282 303.938 175.651 217.129 178.31 196.626C178.487 195.472 177.158 194.762 176.271 195.472C172.549 198.312 164.927 203.904 156.33 209.052L124.602 167.512Z" fill="#238CA3"/>
<path d="M220.584 195.855C225.577 195.855 229.624 191.444 229.624 186.003C229.624 180.561 225.577 176.15 220.584 176.15C215.592 176.15 211.544 180.561 211.544 186.003C211.544 191.444 215.592 195.855 220.584 195.855Z" fill="#23607A"/>
<path d="M220.516 191.522C223.295 191.522 225.548 189.062 225.548 186.027C225.548 182.992 223.295 180.532 220.516 180.532C217.736 180.532 215.483 182.992 215.483 186.027C215.483 189.062 217.736 191.522 220.516 191.522Z" stroke="#238CA3"/>
<path d="M217.394 178.724C217.394 178.724 195.592 116.946 228.738 111.177" stroke="#23607A" stroke-width="2" stroke-miterlimit="10" stroke-linecap="round" stroke-linejoin="round"/>
<path d="M254.705 113.041C254.705 113.041 272.696 116.059 277.394 140.912" stroke="#23607A" stroke-width="2" stroke-miterlimit="10" stroke-linecap="round" stroke-linejoin="round"/>
<path d="M327.467 234.349C327.467 234.349 364.07 131.741 449.328 141.416C534.586 151.091 526.256 255.741 514.025 312.637C501.795 369.533 323.656 256.096 327.467 234.349Z" fill="#CBF3FF"/>
<path d="M523.384 187.843C523.384 187.843 523.916 189.795 510.71 226.986C497.505 264.177 507.077 304.12 519.13 315.659C519.13 315.659 550.858 312.108 566.19 265.42C581.522 218.732 538.45 237.549 543.325 192.103L523.384 187.843Z" fill="#CBF3FF"/>
<path d="M519.736 198.391C519.888 201.139 516.35 215.609 508.297 235.025C498.232 259.295 496.402 273.949 495.944 277.612C495.487 281.276 487.709 273.949 499.147 247.847C510.585 221.745 492.742 245.557 489.997 261.585C487.251 277.612 489.082 289.976 494.114 297.761" stroke="#74D1DE"/>
<path opacity="0.5" d="M412.097 221.01C412.557 221.973 415.283 221.902 415.926 221.051C418.776 217.276 425.965 211.13 444.099 203.993C474.321 192.099 490.362 180.382 473.612 163.34C473.612 163.34 485.694 155.858 477.186 148.935C468.678 142.012 452.409 135.126 430.976 140.234C411.76 144.813 410.532 155.519 414.963 158.094C419.394 160.668 412.131 162.655 409.473 164.962C403.177 170.427 390.509 175.811 412.097 221.01Z" fill="#74D1DE"/>
<path d="M164.041 298.08C164.041 298.08 152.342 283.878 159.166 266.925C166.079 250.06 191.515 252.102 196.744 244.113C201.884 236.214 190.54 218.461 208.797 206.301C227.054 194.052 252.844 207.899 259.58 185.442C263.035 173.922 264.705 157.022 270.948 145.272C276.874 134.117 294.634 123.291 306.53 134.74C326.203 128.328 344.154 148.11 346.522 178.874C347.707 194.27 343.065 206.035 360.968 210.029C378.87 214.023 389.239 214.378 395.798 227.515C402.356 240.652 395.443 246.155 415.118 246.865C434.793 247.575 456.595 253.788 449.771 274.47C442.947 295.151 304.247 382.315 164.041 298.08Z" fill="#E25839"/>
<path d="M310.648 143.897C304.7 138.403 287.863 141.424 280.909 149.85C268.436 164.962 280.909 198.39 261.235 207.091C245.751 213.939 209.993 209.959 209.993 229.987C209.993 256.547 201.757 261.584 183.456 266.621C165.155 271.659 172.018 287.228 176.593 293.181" stroke="#FF804A"/>
<path d="M307.902 149.851C301.192 148.019 280.451 150.767 280.451 177.327C280.451 211.975 274.503 220.829 253.457 225.867C232.411 230.904 225.091 229.53 224.176 249.679C223.261 269.828 201.757 270.286 204.045 281.734M302.87 159.925C298.599 158.857 289.693 159.742 288.229 171.831C286.399 186.943 291.432 217.166 283.654 230.904C275.876 244.642 240.647 237.315 247.052 271.201M312.02 144.356C319.951 144.661 336.36 151.225 338.557 175.037C341.302 204.802 338.099 221.745 360.975 229.072C383.851 236.399 392.544 238.689 393.917 249.679C395.289 260.669 429.146 253.342 430.519 273.033M318.883 154.43C323.306 156.567 332.151 167.344 332.151 193.354C332.151 225.867 326.203 238.231 350.91 247.847C375.616 257.464 378.361 264.333 377.903 273.033" stroke="#FF804A"/>
<path d="M552.489 358.704V334.117C509.86 296.127 431.957 249.35 312.578 258.936C177.867 269.765 119.551 322.667 96.3306 354.532V358.615C96.3306 369.977 105.459 379.119 116.803 379.119H532.016C543.272 379.208 552.489 369.977 552.489 358.704Z" fill="#1B5FC4"/>
<path d="M254.085 330.655C254.085 330.655 215.001 252.723 299.639 254.143C384.276 255.563 401.204 295.151 387.29 337.224" stroke="white" stroke-width="2" stroke-miterlimit="10"/>
<path d="M285.638 261.336C285.638 261.336 300.439 259.828 299.464 233.82C298.489 207.813 295.387 187.931 295.387 187.931H313.821C313.821 187.931 315.86 248.644 339.08 258.94C339.08 258.94 333.23 284.769 319.759 303.764C319.848 303.676 306.199 288.32 285.638 261.336Z" fill="#F4ADAD"/>
<path d="M293.612 184.466C293.612 184.466 287.497 178.341 285.193 179.318C282.977 180.383 284.129 185.62 287.054 190.59C289.89 195.561 295.473 198.401 296.271 193.52C296.271 193.52 303.538 207.633 318.25 208.875C320.288 209.053 322.238 208.165 323.479 206.567C326.581 202.307 331.544 191.833 329.24 169.465C325.961 137.866 306.02 141.505 306.02 141.505C306.02 141.505 309.831 151.624 299.727 158.104C287.851 165.737 296.271 177.72 293.612 184.466Z" fill="#FBC9BE"/>
<path d="M307.795 184.801C311.856 184.151 314.408 178.994 313.497 173.282C312.585 167.569 308.555 163.465 304.495 164.115C300.435 164.765 297.882 169.922 298.794 175.635C299.705 181.347 303.735 185.451 307.795 184.801Z" stroke="white" stroke-miterlimit="10"/>
<path d="M305.925 179.93C306.839 179.784 307.412 178.614 307.205 177.318C306.998 176.022 306.09 175.089 305.176 175.235C304.262 175.382 303.689 176.551 303.896 177.848C304.103 179.144 305.011 180.077 305.925 179.93Z" fill="#4F253E"/>
<path d="M321.698 175.9C322.463 175.778 322.943 174.798 322.77 173.711C322.597 172.625 321.835 171.844 321.07 171.966C320.304 172.089 319.824 173.069 319.997 174.155C320.171 175.241 320.932 176.023 321.698 175.9Z" fill="#4F253E"/>
<path d="M323.908 179.938C327.63 179.342 329.971 174.621 329.137 169.393C328.302 164.165 324.609 160.409 320.887 161.005C317.166 161.6 314.825 166.322 315.659 171.55C316.493 176.778 320.186 180.533 323.908 179.938Z" stroke="white" stroke-miterlimit="10"/>
<path d="M307.615 192.809C307.615 192.809 317.541 189.525 323.302 188.726C323.302 188.726 322.15 196.448 317.009 197.78C311.958 199.023 307.615 192.809 307.615 192.809Z" fill="white"/>
<path d="M262.948 362.432C271.317 362.432 278.103 354.563 278.103 344.857C278.103 335.151 271.317 327.282 262.948 327.282C254.578 327.282 247.792 335.151 247.792 344.857C247.792 354.563 254.578 362.432 262.948 362.432Z" fill="white"/>
<path d="M337.571 379.208C337.571 379.208 346.965 337.845 381.086 337.223C415.207 336.602 401.559 379.208 401.559 379.208" stroke="white" stroke-width="2" stroke-miterlimit="10" stroke-linecap="round" stroke-linejoin="round"/>
<path d="M260.032 355.521C264.927 355.521 268.895 350.792 268.895 344.958C268.895 339.125 264.927 334.396 260.032 334.396C255.138 334.396 251.17 339.125 251.17 344.958C251.17 350.792 255.138 355.521 260.032 355.521Z" stroke="#A6CCEF"/>
<path d="M441.042 64.6766C441.042 64.6766 442.64 47.9228 455.225 39.4905C467.721 31.0582 492.4 27.2698 497.097 70.674C497.097 70.674 487.26 105.113 467.673 104.847C448.087 104.581 441.662 84.8254 441.042 64.6766Z" fill="#4F253E"/>
<path d="M457.393 155.441C457.393 155.441 441.795 188.904 418.575 212.07C418.575 212.07 417.423 177.098 432.046 149.849C432.046 149.938 443.39 144.346 457.393 155.441Z" fill="#EF5F79"/>
<path d="M432.046 149.938C432.046 149.938 452.43 123.398 460.761 86.1184L475.561 83.1893C475.561 83.1893 472.991 115.853 457.393 155.53C457.393 155.441 441.972 157.926 432.046 149.938Z" fill="#F4ADAD"/>
<path d="M470.864 241.628L451.544 240.385C448.796 240.207 446.669 237.811 446.847 235.059L449.239 197.513C449.417 194.762 451.81 192.631 454.557 192.809L473.877 194.052C476.625 194.229 478.752 196.626 478.575 199.377L476.182 236.923C476.004 239.675 473.612 241.805 470.864 241.628Z" fill="white"/>
<path d="M521.523 185.979C521.523 185.979 527.992 198.139 546.161 193.701C546.161 193.701 543.147 178.7 552.187 175.061C561.227 171.422 583.295 174.528 587.195 168.049C591.094 161.569 566.811 169.025 558.391 164.055C550.06 159.084 581.168 165.741 588.613 153.048C594.728 142.663 572.748 156.421 561.67 154.823C550.592 153.226 584.004 149.231 585.333 137.959C586.397 128.905 564.684 146.924 553.162 147.19C553.162 147.19 564.772 141.154 560.607 132.367C556.441 123.579 543.807 125.888 543.984 130.326C544.25 134.764 550.326 135.118 550.858 137.249C551.301 139.379 546.692 147.989 534.373 150.03C522.054 152.072 522.874 141.864 529.344 137.249C535.813 132.633 531.803 127.485 523.916 130.325C516.028 133.166 509.026 140.977 515.762 154.735C522.498 168.404 532.246 170.623 521.523 185.979Z" fill="#1B5FC4"/>
<path d="M531.272 105.65C529.676 105.65 528.79 107.514 529.765 108.756C531.626 111.064 532.601 113.993 532.601 117.011V178.167C532.601 181.363 535.082 184.114 538.184 184.203C541.463 184.292 544.122 181.718 544.122 178.434V117.011C544.122 113.993 545.186 111.064 546.958 108.756C547.933 107.514 547.047 105.65 545.452 105.65H531.272Z" fill="white"/>
<path opacity="0.5" d="M536.625 100.498C537.946 100.498 539.018 99.4246 539.018 98.1011C539.018 96.7775 537.946 95.7045 536.625 95.7045C535.303 95.7045 534.232 96.7775 534.232 98.1011C534.232 99.4246 535.303 100.498 536.625 100.498Z" fill="white"/>
<path opacity="0.5" d="M528.167 88.9412C531.251 88.9412 533.75 86.4376 533.75 83.3493C533.75 80.2609 531.251 77.7573 528.167 77.7573C525.083 77.7573 522.583 80.2609 522.583 83.3493C522.583 86.4376 525.083 88.9412 528.167 88.9412Z" fill="white"/>
<path opacity="0.5" d="M541.942 74.6682C543.509 74.6682 544.778 73.3965 544.778 71.8278C544.778 70.2592 543.509 68.9875 541.942 68.9875C540.376 68.9875 539.106 70.2592 539.106 71.8278C539.106 73.3965 540.376 74.6682 541.942 74.6682Z" fill="white"/>
<path opacity="0.5" d="M538.45 181.363C536.412 181.363 534.817 179.765 534.817 177.724V136.095H542.084V177.724C542.084 179.765 540.489 181.363 538.45 181.363Z" fill="#74D1DE"/>
<path d="M463.774 196.271L464.13 187.661" stroke="#23607A" stroke-width="2" stroke-miterlimit="10" stroke-linecap="round" stroke-linejoin="round"/>
<path d="M512.873 404H155.09C120.171 404 85.3409 401.071 50.954 395.124H50.6881C46.8772 394.503 47.3203 388.822 51.2199 388.822H616.831C620.731 388.822 621.174 394.414 617.363 395.124L617.097 395.213C582.621 401.071 547.791 404 512.873 404Z" fill="#A6CCEF"/>
<path d="M355.828 103.677C373.742 103.677 388.265 89.1321 388.265 71.1903C388.265 53.2484 373.742 38.7037 355.828 38.7037C337.913 38.7037 323.391 53.2484 323.391 71.1903C323.391 89.1321 337.913 103.677 355.828 103.677Z" fill="white"/>
<path d="M495.651 72.5056C495.651 72.5056 497.866 63.7182 501.943 55.3747C509.122 40.6403 522.593 40.019 524.631 55.3747C526.758 70.7303 508.767 84.4883 495.651 72.5056Z" fill="#4F253E"/>
<path d="M473.789 84.6976C473.789 84.6976 464.217 107.864 445.96 110.172C427.703 112.48 436.601 55.469 452.022 48.1906C467.443 40.9122 481.056 61.7972 475.384 76.8866C475.384 76.8866 483.803 69.1644 488.058 73.9575C492.312 78.8394 476.27 94.5501 473.789 84.6976Z" fill="#FBC9BE"/>
<path d="M493.529 74.9168C493.529 74.9168 494.829 66.9455 489.14 66.3255C485.889 65.9712 441.267 61.8084 428.262 60.5684C426.312 60.3913 424.523 61.9855 424.361 64.1112C423.873 70.754 423.548 83.4196 429.075 84.3053C436.553 85.5453 446.225 71.994 448.988 74.1197C451.67 76.1568 452.239 87.4938 461.586 86.0767C470.933 84.6596 476.271 76.1245 479.931 71.0873" stroke="white" stroke-miterlimit="10" stroke-linecap="round"/>
<path d="M459.431 89.9351C459.254 89.6688 458.9 89.4913 458.634 89.6688C455.443 91.0002 449.417 93.1305 444.631 92.2429C444.188 92.1541 443.833 92.4204 443.656 92.8642C443.479 93.308 443.567 94.0181 444.01 94.2844C445.074 94.9945 446.581 95.6158 448.442 95.6158C451.1 95.6158 454.646 94.4619 459.254 91.089C459.609 90.7339 459.609 90.2013 459.431 89.9351Z" fill="#EF5F79"/>
<path d="M462.267 71.0288C459.52 70.1412 454.645 69.076 451.987 72.6265C451.721 72.8928 451.809 73.3366 451.987 73.6028C452.164 73.7804 452.341 73.8691 452.607 73.8691C452.696 73.8691 452.873 73.8691 452.962 73.7804C454.38 73.0703 457.481 71.8276 461.913 72.2714C462.267 72.2714 462.533 72.0939 462.622 71.7389C462.799 71.4726 462.622 71.1175 462.267 71.0288Z" fill="#4F253E"/>
<path d="M442.326 68.7209C439.934 68.1883 438.338 70.7624 438.25 70.8512C438.161 71.0287 438.161 71.295 438.338 71.3838C438.516 71.5613 438.693 71.5613 438.87 71.3838C441.086 69.6085 443.479 71.8276 443.567 71.9163C443.656 72.0051 443.744 72.0051 443.833 72.0051C443.922 72.0051 443.922 72.0051 444.01 72.0051C444.188 71.9163 444.276 71.7388 444.276 71.5613C444.453 70.7624 444.01 69.076 442.326 68.7209Z" fill="#4F253E"/>
<path d="M129.211 167.69C129.211 167.69 138.162 174.081 144.809 183.756C151.899 194.141 159.787 205.236 156.331 209.052C149.595 216.42 129.743 187.484 124.691 172.128C123.362 168.134 124.159 165.559 129.211 167.69Z" fill="#23607A"/>
<path d="M169.713 78.0412C172.372 78.8401 176.626 79.5501 182.298 78.3075C184.248 77.8637 185.311 80.5265 183.627 81.5917C179.373 84.432 171.131 87.3611 155.444 87.0061C153.229 86.9173 151.279 88.0712 150.038 89.9352C142.771 101.474 117.512 143.192 116.803 170.175C116.803 170.175 117.601 177.631 129.122 167.69C129.122 167.69 139.137 173.459 148.265 189.259C148.265 189.259 112.726 218.195 92.0766 200.887C71.7812 183.845 99.078 122.244 136.655 79.7277C137.719 78.5738 138.339 77.0648 138.517 75.4671C139.048 70.2302 143.568 55.3183 152.165 39.9627C153.317 37.8324 156.508 39.1638 155.887 41.4716C155.09 44.5782 153.672 49.2826 153.494 51.5016C153.406 52.3005 154.469 52.5668 154.824 51.9454C157.483 46.886 163.952 35.0808 171.397 26.7373C172.992 24.962 175.828 26.9148 174.765 29.045C171.663 34.9033 168.206 42.1817 167.143 47.0636C166.966 47.8624 168.029 48.3062 168.472 47.5961C171.22 42.9805 177.423 33.3056 184.779 26.6485C186.641 24.962 189.211 27.4473 187.793 29.4001C183.982 34.4595 179.55 40.7615 177.069 46.3535C176.714 47.1523 177.778 47.7737 178.31 47.0636C181.323 43.4244 186.463 37.7436 191.958 33.8381C193.997 32.418 196.301 35.1696 194.617 36.9448C186.995 44.9333 175.296 58.5138 167.852 73.3369C166.877 75.2009 167.763 77.4199 169.713 78.0412Z" fill="#81565D"/>
<path d="M124.929 90.1245C123.777 89.1481 123.688 87.4617 124.574 86.3965L132.373 77.0766C133.348 75.9227 135.032 75.834 136.096 76.7216C137.248 77.6979 137.336 79.3844 136.45 80.4496L128.651 89.7695C127.765 90.9234 126.081 91.0121 124.929 90.1245Z" fill="#112440"/>
<path d="M129.831 87.3607C129.831 87.3607 138.162 96.1481 144.898 98.5446L148.266 92.9527C148.266 92.9527 140.91 90.7336 133.908 82.5676L129.831 87.3607Z" fill="#112440"/>
<path d="M164.041 71.4723C151.101 69.9634 145.873 83.1888 145.873 83.1888" stroke="#66465C" stroke-miterlimit="10" stroke-linecap="round" stroke-linejoin="round"/>
<path d="M149.24 60.3775C149.24 60.3775 159.344 65.2593 174.587 60.9988" stroke="#66465C" stroke-miterlimit="10" stroke-linecap="round" stroke-linejoin="round"/>
<path d="M236.094 45.1992C236.094 45.1992 233.435 12.7126 233.701 7.74201C233.878 2.77139 239.639 8.4521 240.437 7.74201C241.234 7.03193 242.121 2.94891 243.184 2.86015C244.248 2.77139 248.058 6.23307 248.945 5.16794C249.831 4.19157 251.692 -0.335253 252.756 0.0197919C253.908 0.286075 255.592 5.96679 257.187 5.07918C258.782 4.19157 259.314 0.996165 260.555 1.26245C261.796 1.43997 266.936 13.8665 268.531 25.0504C270.038 36.3231 236.094 45.1992 236.094 45.1992Z" fill="#352248"/>
<path d="M224.75 113.101C224.75 113.101 244.07 133.25 252.224 149.937C252.224 149.937 262.681 132.008 262.504 121.534C262.504 121.09 262.327 120.735 262.15 120.38C260.554 117.983 252.755 109.64 224.75 113.101Z" fill="white"/>
<path d="M224.75 113.102C224.75 113.102 230.776 113.723 233.701 94.3731C236.625 75.0231 236.537 56.2057 236.537 56.2057C236.537 56.2057 232.105 57.4484 229.181 46.9746C226.256 36.5008 234.853 38.1872 237.157 42.9803C237.157 42.9803 240.702 41.0276 241.145 32.4178C241.588 23.8079 241.766 22.2102 245.754 20.6125C249.742 19.0148 262.504 18.3935 266.049 19.1923C269.594 19.9912 272.873 58.4248 268.885 68.0997C266.581 73.7805 256.921 76.8871 249.122 74.1355C249.122 74.1355 246.374 108.042 260.732 121.445C260.82 121.445 246.02 130.233 224.75 113.102Z" fill="#81565D"/>
<path d="M251.627 41.3223C250.855 41.3223 250.254 40.7499 250.254 40.0139V38.0514C250.254 37.3154 250.855 36.743 251.627 36.743C252.399 36.743 253 37.3154 253 38.0514V40.0139C253 40.7499 252.399 41.3223 251.627 41.3223Z" fill="#352248"/>
<path d="M261.693 40.4065C260.921 40.4065 260.32 39.9485 260.32 39.3598V37.7897C260.32 37.201 260.921 36.743 261.693 36.743C262.465 36.743 263.065 37.201 263.065 37.7897V39.3598C262.979 39.9485 262.379 40.4065 261.693 40.4065Z" fill="#352248"/>
<path d="M247.664 33.03C252.599 30.2161 259.941 27.4023 269.69 27.0271C270.533 27.0271 270.653 24.9636 269.81 24.776C264.515 23.2753 256.089 22.9001 246.942 30.9665C246.22 31.5293 246.701 33.4052 247.664 33.03Z" fill="#352248"/>
<path d="M260.643 45.9015C256.668 45.9015 251.697 48.0485 250.451 52.6554C248.856 58.4249 248.842 65.2998 247.261 66.5909C245.679 67.882 241.312 62.4191 239.274 40.4064L236.986 42.2381C236.986 42.2381 238.753 52.3004 239.816 59.6675C240.88 67.0347 243.893 72.1829 249.299 75.0232C254.882 77.8636 263.302 78.2186 268.265 72.1829C270.064 69.8412 271.878 62.9931 271.301 56.8737C271.301 50.0228 267.922 45.6759 260.643 45.9015ZM265.353 68.3399C262.488 70.8132 250.402 71.5747 251.627 65.1344C251.893 63.1817 252.557 59.6151 253 55.9759C253.669 50.4808 265.72 49.5649 267.183 54.1442C268.601 58.5822 269.075 65.1445 265.353 68.3399Z" fill="#352248"/>
<path d="M260.289 61.3215C260.112 61.3215 259.934 61.3215 259.757 61.3215C256.566 61.0552 254.617 58.7474 254.351 58.4811C253.642 57.5935 253.73 56.3509 254.617 55.552C255.503 54.8419 256.744 54.9307 257.453 55.8183C257.453 55.9071 258.605 57.0609 260.023 57.1497C260.998 57.2385 262.061 56.7947 263.125 55.8183C264.011 55.0194 265.252 55.1082 266.049 55.9958C266.847 56.8834 266.758 58.1261 265.872 58.9249C264.1 60.5226 262.239 61.3215 260.289 61.3215Z" fill="#714253"/>
<path d="M276.791 265.706C285.912 278.427 307.231 306.526 320.825 319.014C321.258 319.412 321.929 319.336 322.271 318.858C328.629 309.963 341.383 287.945 346.335 263.875" stroke="#1651A8" stroke-linecap="round"/>
<path opacity="0.25" d="M220.058 119.627C227.417 128.907 243.58 149.957 251.281 162.283C251.664 162.896 252.545 162.927 252.948 162.327C259.812 152.112 271.256 130.788 268.098 117.796" stroke="#23607A" stroke-linecap="round"/>
<path d="M349.032 62.2536V81.8698C349.032 82.9349 350.184 83.645 351.159 83.1124L367.289 73.3487C368.175 72.8161 368.175 71.4847 367.289 70.9522L351.159 61.1884C350.184 60.4783 349.032 61.1884 349.032 62.2536Z" fill="#74D1DE"/>
<path d="M597.58 226.122C590.332 229.322 569.211 240.714 552.299 274.032C552.065 274.422 552.377 274.968 552.845 274.89C556.897 274.656 572.095 272.627 582.772 253.276C591.501 237.358 594.696 230.804 598.125 226.825C598.359 226.435 597.969 225.888 597.58 226.122Z" fill="#EF5F79"/>
<path d="M589.163 268.102C585.967 268.336 571.471 269.974 565.314 279.962C565.159 280.196 565.314 280.43 565.548 280.508C568.354 280.82 581.447 281.444 589.474 268.648C589.552 268.414 589.396 268.102 589.163 268.102Z" fill="#EF5F79"/>
<path d="M578.252 217.539C577.472 220.27 578.252 227.917 571.861 232.443C571.627 232.599 571.315 232.443 571.315 232.13C570.626 229.474 570.224 221.987 577.706 217.227C578.018 217.071 578.329 217.227 578.252 217.539Z" fill="#BD4780"/>
<path d="M618.622 232.442C615.505 232.52 599.762 233.691 594.151 248.828C594.073 249.062 594.228 249.218 594.462 249.218C596.956 249.062 609.504 247.424 618.856 232.833C618.934 232.755 618.856 232.442 618.622 232.442Z" fill="#EF5F79"/>
<path d="M242.076 121.935C241.924 121.172 241.985 119.188 243.449 117.356C245.279 115.067 248.424 128.786 245.679 125.123C242.976 121.514 247.967 115.048 250.311 115.524C252.946 116.06 252.542 124.207 251.17 121.917C249.902 119.803 253.514 117.356 254.887 116.898" stroke="#66465C" stroke-linecap="round"/>
</svg>
