<svg width="73" height="71" viewBox="0 0 73 71" fill="none" xmlns="http://www.w3.org/2000/svg">
<path d="M23.2837 10.5207C31.2046 14.0332 54.2859 26.5411 72.768 63.1224C73.0235 63.5507 72.6829 64.1504 72.1718 64.0647C67.7429 63.8077 51.1346 61.5803 39.4662 40.3341C29.927 22.8573 26.435 15.661 22.6875 11.2918C22.432 10.8634 22.8578 10.2637 23.2837 10.5207Z" fill="#EF5F79"/>
<path d="M32.482 56.6115C35.974 56.8685 51.8158 58.6675 58.5443 69.6334C58.7146 69.8904 58.5443 70.1474 58.2888 70.2331C55.2226 70.5757 40.9139 71.2611 32.1413 57.2111C32.0561 56.9541 32.2265 56.6115 32.482 56.6115Z" fill="#EF5F79"/>
<path d="M44.4058 1.09667C45.2575 4.09516 44.4058 12.4909 51.3898 17.4599C51.6453 17.6312 51.986 17.4599 51.986 17.1172C52.7393 14.2003 53.1784 5.97993 45.002 0.753987C44.6613 0.582644 44.3206 0.753982 44.4058 1.09667Z" fill="#BD4780"/>
<path d="M0.287451 17.4598C3.69429 17.5455 20.8988 18.8306 27.0311 35.4506C27.1163 35.7076 26.946 35.8789 26.6904 35.8789C23.965 35.7076 10.2525 33.9085 0.0319392 17.8882C-0.0532317 17.8025 0.0319385 17.4598 0.287451 17.4598Z" fill="#EF5F79"/>
</svg>
