<svg width="715" height="918" viewBox="0 0 715 918" fill="none" xmlns="http://www.w3.org/2000/svg">
<path opacity="0.5" d="M714 714.655L714 696.184C714 676.523 701.343 659.097 682.647 653.016C670.836 649.174 657.967 650.34 647.038 656.241L614.35 673.891C594.784 684.455 572.256 688.198 550.326 684.526L446.588 667.159C431.101 664.566 415.219 665.695 400.254 670.451L353.51 685.31C312.343 698.395 295.992 747.89 321.262 782.923C324.936 788.017 327.834 793.629 329.861 799.574L346.362 847.983C358.923 884.832 401.334 901.862 435.891 883.932C441.197 881.179 446.865 879.188 452.728 878.016L571.156 854.354C597.287 849.133 620.255 833.698 634.959 811.474L646.524 793.995C653.465 783.507 663.511 775.451 675.258 770.957C698.591 762.031 714 739.637 714 714.655Z" stroke="#DEE2E9" stroke-width="2"/>
<path opacity="0.5" d="M214.717 653.885L217.339 639.338C217.768 636.958 217.412 634.503 216.325 632.343C213.896 627.515 208.356 625.122 203.176 626.663L190.512 630.429L172.357 634.633C160.867 637.294 151.982 646.408 149.614 657.962C149.206 659.955 149 661.984 149 664.018L149 676.861C149 684.593 154.429 691.261 162 692.828C168.367 694.147 174.909 691.556 178.647 686.235L183.967 678.663C187.178 674.093 192.139 671.059 197.669 670.283C206.297 669.072 213.172 662.459 214.717 653.885Z" stroke="#DEE2E9" stroke-width="2"/>
<path opacity="0.5" d="M211.754 36.073L334.826 6.89167C352.962 2.59167 372.042 7.73022 385.566 20.556C399.504 33.7753 405.57 53.2883 401.584 72.08L388.151 135.408L390.967 149.929C399.798 195.482 364.905 237.79 318.504 237.789C312.034 237.789 305.592 236.939 299.344 235.259L226.214 215.603C205.351 209.995 183.233 211.295 163.17 219.307L104.984 242.543C91.5442 247.91 76.4287 247.124 63.6179 240.393C32.9221 224.264 27.9068 182.382 53.9266 159.461L168.724 58.3371C181.026 47.5009 195.802 39.8552 211.754 36.073Z" stroke="#DEE2E9" stroke-width="2"/>
</svg>
