<svg width="592" height="120" viewBox="0 0 592 120" fill="none" xmlns="http://www.w3.org/2000/svg">
<path d="M31.8446 50.6853H7.70974C3.35206 50.6853 0 54.2098 0 58.4056V80.3916C0 84.7553 3.51966 88.1119 7.70974 88.1119H31.8446V112.112C31.8446 116.476 35.3642 119.832 39.5543 119.832H61.5103C65.868 119.832 69.2201 116.308 69.2201 112.112V88.1119C69.2201 67.4686 52.4598 50.6853 31.8446 50.6853Z" fill="#FF4C77"/>
<path opacity="0.25" d="M61.6772 120H39.386C35.1959 120 31.6763 116.643 31.6763 112.28V88.1119H57.3195C63.8561 88.1119 69.2194 93.4825 69.2194 100.028V112.28C69.2194 116.476 65.8673 120 61.6772 120Z" fill="#83003F"/>
<path d="M87.9907 69.3147H111.958C116.316 69.3147 119.668 65.7902 119.668 61.5944V39.6084C119.668 35.2448 116.148 31.8881 111.958 31.8881H87.9907V7.72028C87.9907 3.35664 84.4711 0 80.281 0H58.325C53.9673 0 50.6152 3.52448 50.6152 7.72028V31.8881C50.6152 52.5315 67.3755 69.3147 87.9907 69.3147Z" fill="#00AED5"/>
<path opacity="0.25" d="M58.1574 0H80.4486C84.6387 0 88.1583 3.35664 88.1583 7.72028V31.8881H62.515C55.9785 31.8881 50.6152 26.5175 50.6152 19.972V7.72028C50.6152 3.35664 53.9673 0 58.1574 0Z" fill="#112440"/>
<path fill-rule="evenodd" clip-rule="evenodd" d="M161.807 81.7608C155.071 81.7608 149.627 76.4014 149.627 69.7485V37.5H156.086V69.7485C156.086 72.7977 158.67 75.385 161.807 75.385V81.7608ZM209.515 69.3789C209.515 76.5863 215.42 82.5 222.618 82.5C228.616 82.5 232.307 82.5 238.028 79.2659L234.891 73.6294C230.554 76.0318 228.339 76.0318 222.526 76.0318C218.835 76.0318 215.882 73.075 215.882 69.3789V68.9169H239.781V60.5082C239.781 53.3008 233.876 47.3871 226.678 47.3871H222.618C215.42 47.3871 209.515 53.3008 209.515 60.5082V69.3789ZM233.23 62.4487H215.882V60.5082C215.882 56.8121 218.835 53.8553 222.526 53.8553H226.586C230.277 53.8553 233.23 56.8121 233.23 60.5082V62.4487ZM380.133 82.5H376.166C369.153 82.5 363.431 76.5863 363.431 69.3789V60.5082C363.431 53.3008 369.153 47.3871 376.166 47.3871H380.133C386.224 47.3871 390.007 50.2516 392.499 55.4261L386.87 58.2906C385.393 55.3337 383.825 53.8553 380.041 53.8553H376.073C372.475 53.8553 369.614 56.8121 369.614 60.5082V69.3789C369.614 73.075 372.567 76.0318 376.073 76.0318H380.041C383.825 76.0318 385.393 74.5534 386.87 71.5965L392.499 74.461C390.007 79.6355 386.224 82.5 380.133 82.5ZM542.54 82.5H538.572C531.559 82.5 525.838 76.5863 525.838 69.3789V60.5082C525.838 53.3008 531.559 47.3871 538.572 47.3871H542.54C548.63 47.3871 552.413 50.2516 554.905 55.4261L549.276 58.2906C547.799 55.3337 546.231 53.8553 542.447 53.8553H538.479C534.881 53.8553 532.02 56.8121 532.02 60.5082V69.3789C532.02 73.075 534.973 76.0318 538.479 76.0318H542.447C546.231 76.0318 547.799 74.5534 549.276 71.5965L554.905 74.461C552.413 79.6355 548.63 82.5 542.54 82.5ZM308.988 82.5C301.79 82.5 295.885 76.5863 295.885 69.3789V60.5082C295.885 53.3008 301.79 47.3871 308.988 47.3871H313.048C320.246 47.3871 326.151 53.3008 326.151 60.5082V68.9169H302.344V69.3789C302.344 73.075 305.297 76.0318 308.988 76.0318C314.801 76.0318 317.016 76.0318 321.353 73.6294L324.49 79.2659C318.677 82.5 314.986 82.5 308.988 82.5ZM302.252 62.4487H319.6V60.5082C319.6 56.8121 316.647 53.8553 312.956 53.8553H308.896C305.205 53.8553 302.252 56.8121 302.252 60.5082V62.4487ZM491.603 69.3789C491.603 76.5863 497.509 82.5 504.707 82.5C510.797 82.5 514.488 82.5 520.209 79.2659L517.072 73.6294C512.735 76.0318 510.52 76.0318 504.707 76.0318C501.016 76.0318 498.063 73.075 498.063 69.3789V68.9169H521.87V60.5082C521.87 53.3008 515.964 47.3871 508.767 47.3871H504.707C497.509 47.3871 491.603 53.3008 491.603 60.5082V69.3789ZM515.411 62.4487H498.063V60.5082C498.063 56.8121 501.016 53.8553 504.707 53.8553H508.767C512.458 53.8553 515.411 56.8121 515.411 60.5082V62.4487ZM455.984 81.7608H449.525V59.9538C449.525 56.6273 446.756 53.8553 443.435 53.8553H440.113C436.791 53.8553 434.022 56.6273 434.022 59.9538V81.7608H427.563V59.9538C427.563 53.0236 433.192 47.3871 440.113 47.3871H443.435C450.355 47.3871 455.984 53.0236 455.984 59.9538V81.7608ZM481.361 81.7608H487.82V59.9538C487.82 53.0236 482.191 47.3871 475.27 47.3871H471.948C465.028 47.3871 459.399 53.0236 459.399 59.9538V81.7608H465.858V59.9538C465.858 56.6273 468.626 53.8553 471.948 53.8553H475.27C478.592 53.8553 481.361 56.6273 481.361 59.9538V81.7608ZM572.899 47.5719V53.6704H564.501V69.7485C564.501 72.8901 567.085 75.385 570.223 75.385V81.7608C563.486 81.7608 558.042 76.309 558.042 69.7485V37.5H564.501V47.5719H572.899ZM353.096 37.5V45.4466C353.096 46.1396 353.119 46.8327 353.142 47.5257C353.165 48.2187 353.188 48.9117 353.188 49.6047C351.343 48.1263 349.036 47.2947 346.36 47.2947H342.3C335.102 47.2947 329.197 53.2084 329.197 60.4158V69.2865C329.197 76.4938 335.102 82.4076 342.3 82.4076H346.36C353.557 82.4076 359.463 76.4938 359.463 69.2865V60.4158V37.5H353.096ZM346.452 76.0318H342.392C338.701 76.0318 335.748 73.075 335.748 69.3789V60.5082C335.748 56.8121 338.701 53.8552 342.392 53.8552H346.452C350.143 53.8552 353.096 56.8121 353.096 60.5082V69.3789C353.096 73.075 350.143 76.0318 346.452 76.0318ZM407.17 82.5H411.23C418.428 82.5 424.334 76.5863 424.334 69.3789V60.5082C424.334 53.3008 418.428 47.3871 411.23 47.3871H407.17C399.973 47.3871 394.067 53.3008 394.067 60.5082V69.3789C394.067 76.5863 399.973 82.5 407.17 82.5ZM400.526 60.5082C400.526 56.8121 403.479 53.8553 407.17 53.8553H411.23C414.922 53.8553 417.874 56.8121 417.874 60.5082V69.3789C417.874 73.075 414.922 76.0318 411.23 76.0318H407.17C403.479 76.0318 400.526 73.075 400.526 69.3789V60.5082ZM173.619 48.0339H167.159V81.7608H173.619V48.0339ZM276.692 47.3871H280.106C286.75 47.3871 292.102 52.7464 292.287 59.3994V81.7608H285.827V59.3994C285.827 56.2577 283.244 53.7629 280.198 53.7629H276.784C273.647 53.7629 271.155 56.3501 271.155 59.3994V81.7608H264.696V59.3994C264.696 56.2577 262.112 53.7629 259.067 53.7629H255.653C252.516 53.7629 250.024 56.3501 250.024 59.3994V81.8532H243.565V59.4918C243.565 52.8388 249.009 47.3871 255.653 47.3871H259.067C262.943 47.3871 265.896 49.3275 267.833 52.2844C269.864 49.3275 272.724 47.3871 276.692 47.3871ZM202.962 48.0339L193.458 74.0914L183.861 48.0339H176.848L190.136 82.5H196.688L209.975 48.0339H202.962ZM583.695 47.4795H577.974V48.3111H580.281V53.578H581.388V48.3111H583.695V47.4795ZM590.893 49.3275V53.6704H592V47.5719H591.077L588.309 51.73L585.541 47.5719H584.618V53.6704H585.633V49.4199L588.032 52.9312H588.494L590.893 49.3275Z" fill="#112440"/>
</svg>
