<svg width="38" height="38" viewBox="0 0 38 38" fill="none" xmlns="http://www.w3.org/2000/svg">
<path d="M10.5664 16.2056H3.31608C2.00699 16.2056 1 17.2629 1 18.5216V25.1175C1 26.4265 2.05734 27.4335 3.31608 27.4335H10.5664V34.6335C10.5664 35.9426 11.6238 36.9496 12.8825 36.9496H19.4783C20.7874 36.9496 21.7944 35.8923 21.7944 34.6335V27.4335C21.7944 21.2405 16.7594 16.2056 10.5664 16.2056Z" stroke="white" stroke-width="2"/>
<path d="M19.5287 37H12.8322C11.5735 37 10.5161 35.993 10.5161 34.6839V27.4336H18.2196C20.1832 27.4336 21.7944 29.0448 21.7944 31.0084V34.6839C21.7944 35.9427 20.7874 37 19.5287 37Z" stroke="white" stroke-width="2"/>
<path d="M27.4335 21.7944H34.6335C35.9426 21.7944 36.9496 20.7371 36.9496 19.4783V12.8825C36.9496 11.5734 35.8923 10.5664 34.6335 10.5664H27.4335V3.31608C27.4335 2.00699 26.3762 1 25.1175 1H18.5216C17.2126 1 16.2056 2.05734 16.2056 3.31608V10.5664C16.2056 16.7594 21.2405 21.7944 27.4335 21.7944Z" stroke="white" stroke-width="2"/>
<path d="M18.4713 1H25.1678C26.4265 1 27.4839 2.00699 27.4839 3.31608V10.5664H19.7804C17.8168 10.5664 16.2056 8.95524 16.2056 6.99161V3.31608C16.2056 2.00699 17.2126 1 18.4713 1Z" stroke="white" stroke-width="2"/>
</svg>
