<svg width="36" height="36" viewBox="0 0 36 36" fill="none" xmlns="http://www.w3.org/2000/svg">
<path d="M9.56643 15.2056H2.31608C1.00699 15.2056 0 16.2629 0 17.5216V24.1175C0 25.4265 1.05734 26.4335 2.31608 26.4335H9.56643V33.6335C9.56643 34.9426 10.6238 35.9496 11.8825 35.9496H18.4783C19.7874 35.9496 20.7944 34.8923 20.7944 33.6335V26.4335C20.7944 20.2405 15.7594 15.2056 9.56643 15.2056Z" fill="#FF4D77"/>
<path d="M18.5287 36H11.8322C10.5735 36 9.51611 34.993 9.51611 33.6839V26.4336H17.2196C19.1832 26.4336 20.7944 28.0448 20.7944 30.0084V33.6839C20.7944 34.9427 19.7874 36 18.5287 36Z" fill="#C5005E"/>
<path d="M26.4335 20.7944H33.6335C34.9426 20.7944 35.9496 19.7371 35.9496 18.4783V11.8825C35.9496 10.5734 34.8923 9.56643 33.6335 9.56643H26.4335V2.31608C26.4335 1.00699 25.3762 0 24.1175 0H17.5216C16.2126 0 15.2056 1.05734 15.2056 2.31608V9.56643C15.2056 15.7594 20.2405 20.7944 26.4335 20.7944Z" fill="#00AED5"/>
<path opacity="0.25" d="M17.4713 0H24.1678C25.4265 0 26.4839 1.00699 26.4839 2.31608V9.56643H18.7804C16.8168 9.56643 15.2056 7.95525 15.2056 5.99161V2.31608C15.2056 1.00699 16.2126 0 17.4713 0Z" fill="#112440"/>
</svg>
