<svg width="239" height="50" viewBox="0 0 239 50" fill="none" xmlns="http://www.w3.org/2000/svg">
<path d="M13.7552 21.2739H4.08811C2.34266 21.2739 1 22.6837 1 24.362V33.1564C1 34.9019 2.40979 36.2446 4.08811 36.2446H13.7552V45.8446C13.7552 47.59 15.165 48.9327 16.8434 48.9327H25.6378C27.3832 48.9327 28.7259 47.5229 28.7259 45.8446V36.2446C28.7259 27.9872 22.0126 21.2739 13.7552 21.2739Z" stroke="white" stroke-width="2"/>
<path d="M25.7048 48.9999H16.7761C15.0978 48.9999 13.688 47.6572 13.688 45.9118V36.2446H23.9593C26.5775 36.2446 28.7258 38.3929 28.7258 41.0111V45.9118C28.7258 47.5901 27.3831 48.9999 25.7048 48.9999Z" stroke="white" stroke-width="2"/>
<path d="M36.2446 28.7259H45.8446C47.59 28.7259 48.9327 27.3161 48.9327 25.6378V16.8434C48.9327 15.0979 47.5229 13.7552 45.8446 13.7552H36.2446V4.08811C36.2446 2.34266 34.8348 1 33.1564 1H24.362C22.6166 1 21.2739 2.40979 21.2739 4.08811V13.7552C21.2739 22.0126 27.9872 28.7259 36.2446 28.7259Z" stroke="white" stroke-width="2"/>
<path d="M24.2949 1H33.2236C34.9019 1 36.3117 2.34266 36.3117 4.08811V13.7552H26.0404C23.4222 13.7552 21.2739 11.607 21.2739 8.98881V4.08811C21.2739 2.34266 22.6166 1 24.2949 1Z" stroke="white" stroke-width="2"/>
<path fill-rule="evenodd" clip-rule="evenodd" d="M65.8115 33.7043C63.1133 33.7043 60.9326 31.5606 60.9326 28.8994V16H63.5199V28.8994C63.5199 30.1191 64.5548 31.154 65.8115 31.154V33.7043ZM84.9203 28.7515C84.9203 31.6345 87.2858 34 90.1687 34C92.5712 34 94.0496 34 96.3412 32.7064L95.0845 30.4517C93.3474 31.4127 92.4603 31.4127 90.1318 31.4127C88.6533 31.4127 87.4706 30.23 87.4706 28.7515V28.5667H97.0435V25.2033C97.0435 22.3203 94.678 19.9548 91.795 19.9548H90.1687C87.2858 19.9548 84.9203 22.3203 84.9203 25.2033V28.7515ZM94.4192 25.9795H87.4706V25.2033C87.4706 23.7248 88.6533 22.5421 90.1318 22.5421H91.758C93.2365 22.5421 94.4192 23.7248 94.4192 25.2033V25.9795ZM153.261 34H151.672C148.863 34 146.571 31.6345 146.571 28.7515V25.2033C146.571 22.3203 148.863 19.9548 151.672 19.9548H153.261C155.701 19.9548 157.216 21.1006 158.214 23.1704L155.959 24.3162C155.368 23.1335 154.74 22.5421 153.224 22.5421H151.635C150.193 22.5421 149.048 23.7248 149.048 25.2033V28.7515C149.048 30.23 150.23 31.4127 151.635 31.4127H153.224C154.74 31.4127 155.368 30.8214 155.959 29.6386L158.214 30.7844C157.216 32.8542 155.701 34 153.261 34ZM218.312 34H216.723C213.914 34 211.623 31.6345 211.623 28.7515V25.2033C211.623 22.3203 213.914 19.9548 216.723 19.9548H218.312C220.752 19.9548 222.267 21.1006 223.265 23.1704L221.011 24.3162C220.419 23.1335 219.791 22.5421 218.276 22.5421H216.686C215.245 22.5421 214.099 23.7248 214.099 25.2033V28.7515C214.099 30.23 215.282 31.4127 216.686 31.4127H218.276C219.791 31.4127 220.419 30.8214 221.011 29.6386L223.265 30.7844C222.267 32.8542 220.752 34 218.312 34ZM124.764 34C121.881 34 119.516 31.6345 119.516 28.7515V25.2033C119.516 22.3203 121.881 19.9548 124.764 19.9548H126.39C129.273 19.9548 131.639 22.3203 131.639 25.2033V28.5667H122.103V28.7515C122.103 30.23 123.286 31.4127 124.764 31.4127C127.093 31.4127 127.98 31.4127 129.717 30.4517L130.974 32.7064C128.645 34 127.167 34 124.764 34ZM122.066 25.9795H129.015V25.2033C129.015 23.7248 127.832 22.5421 126.354 22.5421H124.727C123.249 22.5421 122.066 23.7248 122.066 25.2033V25.9795ZM197.91 28.7515C197.91 31.6345 200.276 34 203.159 34C205.598 34 207.076 34 209.368 32.7064L208.111 30.4517C206.374 31.4127 205.487 31.4127 203.159 31.4127C201.68 31.4127 200.497 30.23 200.497 28.7515V28.5667H210.033V25.2033C210.033 22.3203 207.668 19.9548 204.785 19.9548H203.159C200.276 19.9548 197.91 22.3203 197.91 25.2033V28.7515ZM207.446 25.9795H200.497V25.2033C200.497 23.7248 201.68 22.5421 203.159 22.5421H204.785C206.263 22.5421 207.446 23.7248 207.446 25.2033V25.9795ZM183.643 33.7043H181.056V24.9815C181.056 23.6509 179.947 22.5421 178.616 22.5421H177.286C175.955 22.5421 174.846 23.6509 174.846 24.9815V33.7043H172.259V24.9815C172.259 22.2094 174.514 19.9548 177.286 19.9548H178.616C181.388 19.9548 183.643 22.2094 183.643 24.9815V33.7043ZM193.807 33.7043H196.395V24.9815C196.395 22.2094 194.14 19.9548 191.368 19.9548H190.037C187.265 19.9548 185.011 22.2094 185.011 24.9815V33.7043H187.598V24.9815C187.598 23.6509 188.707 22.5421 190.037 22.5421H191.368C192.699 22.5421 193.807 23.6509 193.807 24.9815V33.7043ZM230.473 20.0287V22.4682H227.109V28.8994C227.109 30.1561 228.144 31.154 229.401 31.154V33.7043C226.703 33.7043 224.522 31.5236 224.522 28.8994V16H227.109V20.0287H230.473ZM142.432 16V19.1786C142.432 19.4559 142.441 19.7331 142.45 20.0103C142.459 20.2875 142.469 20.5647 142.469 20.8419C141.729 20.2505 140.805 19.9179 139.733 19.9179H138.107C135.224 19.9179 132.859 22.2834 132.859 25.1663V28.7146C132.859 31.5975 135.224 33.963 138.107 33.963H139.733C142.616 33.963 144.982 31.5975 144.982 28.7146V25.1663V16H142.432ZM139.77 31.4127H138.144C136.666 31.4127 135.483 30.23 135.483 28.7515V25.2033C135.483 23.7248 136.666 22.5421 138.144 22.5421H139.77C141.249 22.5421 142.432 23.7248 142.432 25.2033V28.7515C142.432 30.23 141.249 31.4127 139.77 31.4127ZM164.091 34H165.717C168.6 34 170.965 31.6345 170.965 28.7515V25.2033C170.965 22.3203 168.6 19.9548 165.717 19.9548H164.091C161.208 19.9548 158.842 22.3203 158.842 25.2033V28.7515C158.842 31.6345 161.208 34 164.091 34ZM161.429 25.2033C161.429 23.7248 162.612 22.5421 164.091 22.5421H165.717C167.195 22.5421 168.378 23.7248 168.378 25.2033V28.7515C168.378 30.23 167.195 31.4127 165.717 31.4127H164.091C162.612 31.4127 161.429 30.23 161.429 28.7515V25.2033ZM70.5424 20.2136H67.9552V33.7043H70.5424V20.2136ZM111.828 19.9548H113.196C115.857 19.9548 118 22.0986 118.074 24.7598V33.7043H115.487V24.7598C115.487 23.5031 114.452 22.5051 113.232 22.5051H111.865C110.608 22.5051 109.61 23.54 109.61 24.7598V33.7043H107.023V24.7598C107.023 23.5031 105.988 22.5051 104.768 22.5051H103.401C102.144 22.5051 101.146 23.54 101.146 24.7598V33.7413H98.559V24.7967C98.559 22.1355 100.74 19.9548 103.401 19.9548H104.768C106.321 19.9548 107.504 20.731 108.28 21.9138C109.093 20.731 110.239 19.9548 111.828 19.9548ZM82.296 20.2136L78.4891 30.6366L74.6451 20.2136H71.8361L77.1585 34H79.7827L85.1051 20.2136H82.296ZM234.797 19.9918H232.506V20.3244H233.43V22.4312H233.873V20.3244H234.797V19.9918ZM237.68 20.731V22.4682H238.124V20.0288H237.754L236.645 21.692L235.536 20.0288H235.167V22.4682H235.573V20.768L236.534 22.1725H236.719L237.68 20.731Z" fill="white"/>
</svg>
