<svg width="219" height="48" viewBox="0 0 219 48" fill="none" xmlns="http://www.w3.org/2000/svg">
<g clip-path="url(#clip0)">
<path d="M0.921964 6.14297C0.315999 6.32476 -0.0778786 6.93073 0.0130161 7.56699L2.25509 25.3521C4.10328 38.8045 17.4042 46.3487 20.3128 47.8637C20.6764 48.0454 21.1006 48.0454 21.4339 47.8637C24.3728 46.3487 37.6434 38.8348 39.4916 25.3521L41.7337 7.56699C41.8246 6.93073 41.4307 6.32476 40.8248 6.14297L21.646 0.113618C21.1309 -0.0378728 20.6158 -0.0378728 20.1008 0.113618L0.921964 6.14297Z" fill="url(#paint0_radial)"/>
<path d="M33.4626 10.4454L27.1605 8.5972C26.7061 8.47601 26.2213 8.5972 25.8577 8.93048C24.9488 9.80913 23.7974 10.3242 22.5855 10.3242H19.1921C17.9802 10.3242 16.8591 9.80913 15.9199 8.93048C15.5563 8.5972 15.0715 8.47601 14.6171 8.5972L8.31503 10.4454C8.13324 10.506 8.10294 10.7787 8.28473 10.8696L10.9207 12.2027C12.4659 12.9904 14.2232 13.2328 15.8896 12.8693C17.1015 12.5966 18.3438 12.4754 19.586 12.4754H22.1916C23.4339 12.4754 24.6761 12.5966 25.888 12.8693C27.5544 13.2328 29.3117 12.9904 30.8569 12.2027L33.4929 10.8696C33.6444 10.7787 33.6444 10.506 33.4626 10.4454Z" fill="white"/>
<path d="M19.6166 8.65771L20.4649 9.14249C20.7376 9.29398 21.0406 9.29398 21.3133 9.14249L22.1616 8.65771C22.4343 8.50622 22.5858 8.20324 22.5858 7.90026C22.5858 7.59727 22.404 7.29429 22.1313 7.1428L21.283 6.68833C21.0406 6.53683 20.7073 6.53683 20.4649 6.68833L19.6166 7.1428C19.3439 7.29429 19.1621 7.59727 19.1621 7.90026C19.1924 8.20324 19.3439 8.50622 19.6166 8.65771Z" fill="white"/>
<path d="M27.0386 24.8067C26.7053 24.3825 26.2811 24.0492 25.8266 23.8371C25.7054 23.7765 25.5842 23.7462 25.4631 23.6856L25.2813 23.625L25.1298 23.5644L24.5541 23.3827L23.4028 23.0191L21.1001 22.2616L16.4948 20.777L16.2221 20.6861C16.1312 20.6558 16.0706 20.6255 16.01 20.5952C15.8585 20.5346 15.707 20.474 15.5858 20.3831C15.3131 20.2316 15.0707 20.0195 14.889 19.7772C14.7072 19.5348 14.5557 19.2924 14.4648 19.0197C14.4345 18.9591 14.4345 18.8985 14.4042 18.8076C14.4042 18.7773 14.3739 18.747 14.3739 18.7167L14.3436 18.5652C14.3133 18.3531 14.283 18.1714 14.2527 17.9593L14.1921 17.6866C14.1921 17.6563 14.1921 17.626 14.1921 17.5654C14.1921 17.5048 14.1921 17.4139 14.2527 17.323C14.3133 17.1715 14.4648 16.9897 14.7072 16.8988C14.7375 16.8988 14.7678 16.8685 14.7981 16.8685C14.7981 16.8685 14.8284 16.8685 14.8284 16.8382H14.8587H14.889L15.1919 16.7473C15.3737 16.6867 15.5858 16.6261 15.7676 16.5655C16.1615 16.4444 16.5251 16.2929 16.9189 16.1414C17.131 16.0505 17.2825 15.8384 17.2522 15.596C17.2219 15.3233 16.9795 15.0809 16.7069 15.0809H16.6766C16.2827 15.1112 15.8585 15.1718 15.4646 15.2021C15.2525 15.2324 15.0708 15.2627 14.8587 15.293L14.5557 15.3536H14.5254H14.4648C14.4345 15.3536 14.4042 15.3536 14.3739 15.3839C14.3133 15.4142 14.2527 15.4142 14.1618 15.4445C13.6164 15.6263 13.1014 15.9899 12.7984 16.5352C12.6469 16.8079 12.5257 17.1109 12.4954 17.4442C12.4651 17.5957 12.4954 17.7775 12.4954 17.929L12.5257 18.2319C12.556 18.444 12.5863 18.6258 12.6166 18.8379L12.6469 18.9894C12.6469 19.05 12.6772 19.1106 12.6772 19.1712C12.7075 19.2924 12.7378 19.4136 12.7681 19.5651C12.9196 20.0498 13.1923 20.5043 13.5255 20.8982C13.8588 21.2921 14.2527 21.5951 14.6769 21.8677C14.889 21.9889 15.101 22.1101 15.3434 22.201C15.4646 22.2616 15.5858 22.2919 15.6767 22.3222L15.9797 22.4131L20.6153 23.8371L22.918 24.534L24.0693 24.8976L24.645 25.0794L24.7965 25.1097L24.9177 25.14C24.9783 25.1703 25.0692 25.2005 25.1298 25.2308C25.6751 25.4732 26.069 25.958 26.1296 26.4428C26.1599 26.564 26.1599 26.6852 26.1296 26.8366C26.1296 26.8669 26.1296 26.867 26.1296 26.8972V26.9578L26.0993 27.1093C26.069 27.2305 26.069 27.2608 26.069 27.3517C26.0084 27.5941 25.8569 27.8365 25.6751 28.0486C25.463 28.2607 25.2207 28.4122 24.9177 28.5334C24.8571 28.5637 24.7662 28.594 24.7056 28.594C24.6753 28.594 24.645 28.6243 24.5844 28.6243H24.5238L24.4632 28.6545L23.8572 28.7757L21.494 29.2605L19.1307 29.7453L17.9491 29.9877L17.3431 30.1089L17.1916 30.1392L17.1007 30.2301C17.0704 30.2301 17.0401 30.2301 17.0098 30.2604C16.8886 30.2907 16.7675 30.321 16.6463 30.3815C16.1615 30.5936 15.7373 30.9269 15.4646 31.4117C15.3434 31.6541 15.2525 31.9268 15.1919 32.1994C15.1616 32.3509 15.1616 32.4721 15.1919 32.6236C15.1919 32.6539 15.1919 32.6842 15.1919 32.7145C15.1919 32.7448 15.1919 32.7751 15.1919 32.8054L15.2222 32.9569L15.2828 33.2599C15.2828 33.2902 15.3131 33.3811 15.3131 33.4417C15.3131 33.5023 15.3434 33.5629 15.3737 33.6235C15.4646 33.8659 15.5858 34.1082 15.7373 34.3203C16.0403 34.7445 16.4645 35.0172 16.9189 35.199H16.9492H16.9795L20.2517 36.0473L23.4937 36.8957H23.4634H23.4937C23.8269 37.0169 24.1299 37.2593 24.342 37.5622C24.5541 37.8652 24.645 38.2288 24.6147 38.5924C24.5844 38.7439 24.7056 38.8651 24.8268 38.8954C24.8571 38.8954 24.8571 38.8954 24.8874 38.8954C25.0086 38.8954 25.1298 38.8045 25.1601 38.653C25.2207 38.4106 25.2207 38.1379 25.1601 37.8955C25.0995 37.6531 25.0086 37.4107 24.8874 37.1684C24.6147 36.7442 24.2208 36.4109 23.736 36.1988H23.7058L20.4941 35.199L17.3128 34.2294C17.3128 34.2294 17.3128 34.2294 17.3431 34.2294L17.2825 34.1991H17.3128C17.0401 34.0779 16.7977 33.8659 16.616 33.6235C16.5251 33.5023 16.4645 33.3811 16.4342 33.2296C16.4342 33.1993 16.4039 33.169 16.4039 33.1387C16.4039 33.1084 16.4039 33.0781 16.3736 33.0175L16.3433 32.7145L16.313 32.563C16.313 32.5327 16.313 32.5327 16.313 32.5024C16.313 32.4721 16.313 32.4721 16.313 32.4418C16.313 32.3812 16.313 32.3206 16.313 32.26C16.3433 32.1388 16.3736 32.0177 16.4342 31.8965C16.5857 31.6844 16.7977 31.5026 17.0704 31.3814C17.131 31.3511 17.2219 31.3208 17.2825 31.3208C17.3128 31.3208 17.3128 31.3208 17.3431 31.3208H17.4037L17.5552 31.2905L18.1612 31.1996L19.3428 30.9875L21.7364 30.5633L24.1299 30.1392L24.7359 30.0483H24.7965L24.8874 30.018C24.948 30.018 25.0086 29.9877 25.0692 29.9877C25.1904 29.9574 25.3116 29.9271 25.4328 29.8665C25.8872 29.6847 26.3417 29.4423 26.7053 29.0787C27.0689 28.7151 27.3718 28.2607 27.5233 27.7153C27.5536 27.5941 27.5839 27.4426 27.6142 27.3517L27.6445 27.2002V27.1396L27.6748 27.0487C27.7051 26.7761 27.7354 26.5034 27.6748 26.2307C27.5839 25.7459 27.3718 25.2308 27.0386 24.8067Z" fill="white"/>
<path d="M20.2823 34.3203C20.2823 34.3506 20.2823 34.3809 20.2823 34.4112L20.7064 34.5324L21.4942 34.7748C21.4942 34.6233 21.4942 34.4718 21.5245 34.29L21.5851 32.5933L21.6154 31.3813L20.2217 31.6237L20.252 32.5933L20.2823 34.3203Z" fill="white"/>
<path d="M21.3438 28.594L21.6771 28.5334C21.6771 28.1698 21.6771 27.8365 21.7074 27.4729L21.768 24.9582L20.4651 24.5643L20.1016 24.4431L20.1622 27.4729C20.1622 27.9274 20.1925 28.3819 20.1925 28.8364L21.3438 28.594Z" fill="white"/>
<path d="M20.5553 41.1374C20.5553 41.2889 20.7068 41.4101 20.8583 41.4101C21.0401 41.4101 21.1916 41.2889 21.1916 41.1374C21.2522 39.8043 21.3431 38.4409 21.3734 37.1078L20.3433 36.8351C20.4342 38.2894 20.4948 39.7134 20.5553 41.1374Z" fill="white"/>
<path d="M21.3427 21.5647L21.7669 21.6859V20.6255C21.7669 19.4741 21.7972 18.3531 21.7366 17.2018C21.7063 16.6261 21.676 16.0504 21.6154 15.5051C21.5548 14.9294 21.4942 14.3537 21.4033 13.8084C21.373 13.5963 21.1912 13.4448 20.9488 13.3842C20.6458 13.3236 20.3732 13.5357 20.3126 13.8084C20.2217 14.384 20.1308 14.9597 20.1005 15.5051C20.0399 16.0807 20.0096 16.6564 19.9793 17.2018C19.9187 18.3531 19.949 19.4741 19.949 20.6255V21.1102L21.3427 21.5647Z" fill="white"/>
<path d="M18.0105 36.2594C17.5257 36.4715 17.1318 36.8048 16.8591 37.2289C16.738 37.441 16.6168 37.6834 16.5865 37.9561C16.5259 38.1985 16.5259 38.4712 16.5865 38.7136C16.6168 38.8348 16.738 38.9559 16.8591 38.9559H16.8894C17.0409 38.9256 17.1621 38.8045 17.1318 38.653C17.0712 38.2894 17.1924 37.9258 17.4045 37.6228C17.6166 37.3198 17.9196 37.1078 18.2529 36.9563H18.2832H18.2529L19.4345 36.6533L18.0105 36.2594Z" fill="white"/>
<path d="M16.3444 29.7149C16.4959 29.6543 16.6474 29.5937 16.7989 29.5634C16.8292 29.5634 16.8595 29.5331 16.8898 29.5331H16.9201L17.011 29.5028L17.1625 29.4725L17.7685 29.3514L18.9501 29.109L19.0713 29.0787L17.8896 28.8363L17.2837 28.7151L17.2231 28.6848H17.1625C17.1322 28.6848 17.1019 28.6545 17.0413 28.6545C16.9807 28.6242 16.8898 28.5939 16.8292 28.5939C16.5565 28.4727 16.2838 28.3212 16.0718 28.1091C15.8597 27.897 15.7385 27.6547 15.6779 27.4123C15.6476 27.3517 15.6476 27.2911 15.6476 27.1699L15.6173 27.0184V26.9578C15.6173 26.9275 15.6173 26.9275 15.6173 26.8972C15.587 26.776 15.587 26.6245 15.6173 26.5033C15.6779 25.9882 16.102 25.5338 16.6171 25.2914C16.6777 25.2611 16.7686 25.2308 16.8292 25.2005L16.9504 25.1702L17.1019 25.1399L17.6776 24.9581L18.8289 24.5945L19.6469 24.3521L16.9201 23.5038L16.5868 23.625L16.4353 23.6856L16.2535 23.7462C16.1323 23.8068 16.0112 23.8371 15.89 23.8977C15.4355 24.1098 15.0113 24.443 14.678 24.8672C14.3448 25.2914 14.1024 25.8065 14.0418 26.3518C14.0115 26.6245 14.0115 26.8972 14.0418 27.1699L14.0721 27.2608V27.3214L14.1024 27.4729C14.1327 27.5638 14.1327 27.7152 14.1933 27.8364C14.3447 28.3515 14.6477 28.8363 15.0113 29.1999C15.3143 29.5028 15.6779 29.7149 16.0415 29.8967C16.1626 29.7755 16.2535 29.7452 16.3444 29.7149Z" fill="white"/>
<path d="M28.9783 16.5352C28.645 15.9899 28.1299 15.6263 27.6149 15.4445C27.5543 15.4142 27.4937 15.4142 27.4028 15.3839C27.3725 15.3839 27.3422 15.3536 27.3119 15.3536H27.2513H27.221L26.918 15.293C26.7059 15.2627 26.5241 15.2324 26.312 15.2021C25.9182 15.1415 25.494 15.1112 25.1001 15.0809H25.0698C24.8577 15.0809 24.6456 15.2021 24.5547 15.4445C24.4336 15.7172 24.585 16.0505 24.8577 16.1717C25.2516 16.3232 25.6152 16.4444 26.0091 16.5958C26.1908 16.6564 26.4029 16.717 26.5847 16.7776L26.8877 16.8685H26.918H26.9483C26.9483 16.8685 26.9786 16.8685 26.9786 16.8988C27.0089 16.8988 27.0392 16.9291 27.0695 16.9291C27.2816 17.0503 27.4331 17.2018 27.524 17.3533C27.5543 17.4442 27.5846 17.5048 27.5846 17.5957C27.5846 17.626 27.5846 17.6563 27.5846 17.7169L27.524 17.9896C27.4937 18.2017 27.4634 18.3834 27.4331 18.5955L27.4028 18.747C27.4028 18.7773 27.4028 18.8076 27.3725 18.8379C27.3725 18.8985 27.3422 18.9591 27.3119 19.05C27.221 19.3227 27.0695 19.5651 26.8877 19.8075C26.7059 20.0498 26.4635 20.2316 26.1908 20.4134C26.0697 20.5043 25.9182 20.5649 25.7667 20.6255C25.7061 20.6558 25.6152 20.6861 25.5546 20.7164L25.2819 20.8073L22.1006 21.8374L23.7064 22.3525L24.8577 22.7161H24.888L25.797 22.4434L26.1 22.3525C26.2211 22.3222 26.3423 22.2616 26.4332 22.2313C26.6453 22.1404 26.8877 22.0192 27.0998 21.898C27.524 21.6557 27.9179 21.3224 28.2511 20.9285C28.5844 20.5346 28.8571 20.0801 29.0086 19.5954C29.0389 19.4742 29.0995 19.353 29.0995 19.2015C29.0995 19.1409 29.1298 19.0803 29.1298 19.0197L29.1601 18.8682C29.1904 18.6561 29.2207 18.4743 29.251 18.2622L29.2813 17.9593C29.3116 17.8078 29.3116 17.626 29.2813 17.4745C29.251 17.1412 29.1298 16.8079 28.9783 16.5352Z" fill="white"/>
<path d="M26.2817 31.4118C26.1 31.1088 25.8576 30.8361 25.5849 30.6543C25.4637 30.6846 25.3425 30.7149 25.2213 30.7452H25.191C25.1304 30.7452 25.1001 30.7755 25.0092 30.7755L24.9183 30.8058H24.8577L24.2518 30.8967L22.9792 31.1088L23.6155 31.23L24.2215 31.3209L24.373 31.3512H24.4335C24.4638 31.3512 24.4638 31.3512 24.4941 31.3512C24.5547 31.3815 24.6456 31.3815 24.7062 31.4118C24.9789 31.5026 25.191 31.6844 25.3425 31.9268C25.4031 32.048 25.4637 32.1692 25.4637 32.2904C25.4637 32.351 25.4637 32.4116 25.4637 32.4722C25.4637 32.5025 25.4637 32.5025 25.4637 32.5328C25.4637 32.5328 25.4637 32.5631 25.4637 32.5934L25.4334 32.7449L25.4031 33.0479C25.4031 33.1085 25.4031 33.1388 25.3728 33.1691C25.3728 33.1994 25.3425 33.2296 25.3425 33.2599C25.3122 33.3811 25.2516 33.5326 25.1607 33.6538C25.0092 33.8962 24.7668 34.078 24.4639 34.2295H24.4941L24.4335 34.2598C24.4335 34.2598 24.4336 34.2598 24.4639 34.2598L22.1006 34.987L23.7367 35.502L24.7668 35.2293H24.7971H24.8274C25.2819 35.0475 25.7061 34.7446 26.0091 34.3507C26.1605 34.1386 26.2817 33.9265 26.3726 33.6538C26.4029 33.5932 26.4029 33.5326 26.4332 33.472C26.4332 33.4114 26.4635 33.3508 26.4635 33.2902L26.5241 32.9873L26.5544 32.8358C26.5544 32.8055 26.5544 32.7752 26.5544 32.7449C26.5544 32.7146 26.5544 32.6843 26.5544 32.654C26.5544 32.5025 26.5544 32.3813 26.5544 32.2298C26.5241 31.8965 26.4332 31.6238 26.2817 31.4118Z" fill="white"/>
<path d="M85.3942 20.3316H83.9863C81.4878 20.3316 79.4652 22.3542 79.4652 24.8527V27.9262C79.4652 30.4247 81.4878 32.4473 83.9863 32.4473C85.9097 32.4473 87.1193 32.4473 88.8643 31.5748C89.1419 31.436 89.2411 31.0791 89.1023 30.8213L88.5669 29.8695C88.4281 29.6117 88.1108 29.5126 87.8332 29.6514C86.6038 30.2463 85.8106 30.2463 83.9863 30.2463C82.6974 30.2463 81.6464 29.1953 81.6464 27.9064V27.7279H89.3799C89.6773 27.7279 89.9351 27.49 89.9351 27.1727V24.8527C89.9153 22.3542 87.8927 20.3316 85.3942 20.3316ZM87.734 25.5467H81.6464V24.8527C81.6464 23.5638 82.6974 22.5128 83.9863 22.5128H85.3942C86.6831 22.5128 87.734 23.5638 87.734 24.8527V25.5467Z" fill="#112440"/>
<path d="M66.0011 20.3316H64.97C64.6527 20.3316 64.3949 20.5894 64.3949 20.9066V31.8524C64.3949 32.1697 64.6527 32.4275 64.97 32.4275H66.0011C66.3184 32.4275 66.5761 32.1697 66.5761 31.8524V20.9066C66.596 20.5894 66.3382 20.3316 66.0011 20.3316Z" fill="#112440"/>
<path d="M61.7973 30.2463H56.5623C56.2252 30.2463 55.9476 29.9687 55.9476 29.6316V17.5555C55.9476 17.1391 55.6105 16.802 55.1941 16.802H54.5001C54.0837 16.802 53.7466 17.1391 53.7466 17.5555V29.929C53.7466 31.3171 54.857 32.4275 56.2451 32.4275H61.7775C62.1542 32.4275 62.4517 32.1301 62.4517 31.7533V30.9403C62.4715 30.5635 62.174 30.2463 61.7973 30.2463Z" fill="#112440"/>
<path d="M78.5927 20.3316H77.6607C77.2443 20.3316 76.8676 20.5894 76.7288 20.986L73.6949 29.2152C73.6552 29.2945 73.5561 29.2945 73.5164 29.2152L70.5024 20.9662C70.3636 20.5696 69.9868 20.3118 69.5704 20.3118H68.6384C68.3013 20.3118 68.0634 20.6489 68.1823 20.9662L72.2672 31.7533C72.4258 32.1499 72.8026 32.4275 73.2388 32.4275H73.9725C74.4087 32.4275 74.7855 32.1697 74.9441 31.7533L79.029 20.9662C79.1678 20.6687 78.9298 20.3316 78.5927 20.3316Z" fill="#112440"/>
<path d="M116.427 20.3316H115.019C112.521 20.3316 110.498 22.3542 110.498 24.8527V27.9262C110.498 30.4247 112.521 32.4473 115.019 32.4473C116.943 32.4473 118.153 32.4473 119.897 31.5748C120.175 31.436 120.274 31.0791 120.135 30.8213L119.6 29.8695C119.461 29.6117 119.144 29.5126 118.866 29.6514C117.637 30.2463 116.844 30.2463 115.019 30.2463C113.731 30.2463 112.68 29.1953 112.68 27.9064V27.7279H120.413C120.711 27.7279 120.968 27.49 120.968 27.1727V24.8527C120.968 22.3542 118.926 20.3316 116.427 20.3316ZM118.767 25.5467H112.68V24.8527C112.68 23.5638 113.731 22.5128 115.019 22.5128H116.427C117.716 22.5128 118.767 23.5638 118.767 24.8527V25.5467Z" fill="#112440"/>
<path d="M132.311 15.5924H131.319C130.982 15.5924 130.724 15.8304 130.724 16.108V21.2239C130.09 20.6291 129.316 20.3118 128.464 20.3118H126.877C124.438 20.3118 122.436 22.2947 122.436 24.7536V27.9857C122.436 30.4247 124.419 32.4275 126.877 32.4275H128.464C130.903 32.4275 132.906 30.4446 132.906 27.9857V16.108C132.906 15.8304 132.648 15.5924 132.311 15.5924ZM130.724 28.0056C130.724 29.2548 129.713 30.2661 128.464 30.2661H126.877C125.628 30.2661 124.617 29.2548 124.617 28.0056V24.7734C124.617 23.5241 125.628 22.5128 126.877 22.5128H128.464C129.713 22.5128 130.724 23.5241 130.724 24.7734V28.0056Z" fill="#112440"/>
<path d="M108.297 16.8218H107.623C107.326 16.8218 107.068 16.9606 106.909 17.1986L100.703 26.8158C100.663 26.8753 100.584 26.8753 100.544 26.8158L94.3375 17.1986C94.1789 16.9606 93.9013 16.8218 93.6237 16.8218H92.9495C92.652 16.8218 92.4141 17.0598 92.4141 17.3572V31.7929C92.4141 32.1499 92.7115 32.4275 93.0486 32.4275H93.9409C94.2978 32.4275 94.5755 32.13 94.5755 31.7929L94.4367 21.6205C94.4367 21.5214 94.5556 21.5015 94.5953 21.561L99.3742 28.7789C99.5724 29.0763 99.9095 29.2548 100.266 29.2548H100.921C101.278 29.2548 101.615 29.0763 101.813 28.7789L106.552 21.6205C106.612 21.5412 106.711 21.5809 106.711 21.68L106.612 31.7731C106.612 32.1301 106.909 32.4077 107.246 32.4077H108.139C108.496 32.4077 108.773 32.1102 108.773 31.7731V17.3374C108.833 17.0598 108.595 16.8218 108.297 16.8218Z" fill="#112440"/>
<path d="M140.599 19.003H141.947C143.414 19.003 144.505 19.5186 145.219 20.6092C145.477 20.986 145.953 21.1248 146.349 20.9265L146.686 20.7679C147.182 20.5299 147.38 19.9152 147.083 19.4591C145.953 17.7538 144.168 16.8218 141.947 16.8218H140.599C137.664 16.8218 135.265 19.3996 135.265 22.5525V26.6968C135.265 29.8695 137.664 32.4275 140.599 32.4275H141.947C144.168 32.4275 145.953 31.4955 147.083 29.7902C147.38 29.3341 147.182 28.6996 146.686 28.4815L146.349 28.3228C145.933 28.1444 145.457 28.2832 145.219 28.6401C144.505 29.7109 143.414 30.2463 141.947 30.2463H140.599C138.854 30.2463 137.446 28.6599 137.446 26.6968V22.5525C137.446 20.5894 138.854 19.003 140.599 19.003Z" fill="#112440"/>
<path d="M198.897 22.5128H200.047C201.038 22.5128 201.792 22.8301 202.308 23.4646C202.565 23.7819 202.982 23.9009 203.359 23.7224L203.815 23.5043C204.31 23.2663 204.449 22.6516 204.112 22.2154C203.18 20.986 201.792 20.3316 200.067 20.3316H198.897C196.478 20.3316 194.515 22.3542 194.515 24.8527V27.9262C194.515 30.4247 196.478 32.4473 198.897 32.4473H200.047C201.772 32.4473 203.18 31.7929 204.092 30.5635C204.409 30.1273 204.271 29.5126 203.795 29.2746L203.339 29.0565C202.982 28.878 202.546 28.997 202.288 29.3143C201.772 29.9488 201.038 30.2661 200.027 30.2661H198.897C197.687 30.2661 196.696 29.2151 196.696 27.9262V24.8527C196.696 23.5638 197.687 22.5128 198.897 22.5128Z" fill="#112440"/>
<path d="M188.843 20.3316H187.436C184.937 20.3316 182.915 22.3542 182.915 24.8527V27.9262C182.915 30.4247 184.937 32.4473 187.436 32.4473C189.359 32.4473 190.569 32.4473 192.314 31.5748C192.591 31.436 192.69 31.0791 192.552 30.8213L192.016 29.8695C191.877 29.6117 191.56 29.5126 191.282 29.6514C190.053 30.2463 189.26 30.2463 187.436 30.2463C186.147 30.2463 185.096 29.1953 185.096 27.9064V27.7279H192.829C193.127 27.7279 193.384 27.49 193.384 27.1727V24.8527C193.365 22.3542 191.342 20.3316 188.843 20.3316ZM191.183 25.5467H185.096V24.8527C185.096 23.5638 186.147 22.5128 187.436 22.5128H188.843C190.132 22.5128 191.183 23.5638 191.183 24.8527V25.5467Z" fill="#112440"/>
<path d="M165.722 20.3316H164.374C161.975 20.3316 160.051 22.2749 160.051 24.6544V31.674C160.051 32.0904 160.388 32.4275 160.805 32.4275H161.459C161.876 32.4275 162.213 32.0904 162.213 31.674V24.6544C162.213 23.4646 163.164 22.5128 164.354 22.5128H165.703C166.892 22.5128 167.844 23.4646 167.844 24.6544V31.674C167.844 32.0904 168.181 32.4275 168.598 32.4275H169.252C169.669 32.4275 170.006 32.0904 170.006 31.674V24.6544C170.045 22.255 168.102 20.3316 165.722 20.3316Z" fill="#112440"/>
<path d="M177.065 20.3316H175.716C173.317 20.3316 171.394 22.2749 171.394 24.6544V31.674C171.394 32.0904 171.731 32.4275 172.147 32.4275H172.802C173.218 32.4275 173.555 32.0904 173.555 31.674V24.6544C173.555 23.4646 174.507 22.5128 175.697 22.5128H177.045C178.235 22.5128 179.187 23.4646 179.187 24.6544V31.674C179.187 32.0904 179.524 32.4275 179.94 32.4275H180.594C181.011 32.4275 181.348 32.0904 181.348 31.674V24.6544C181.388 22.255 179.464 20.3316 177.065 20.3316Z" fill="#112440"/>
<path d="M154.261 20.3316H152.675C150.236 20.3316 148.233 22.3145 148.233 24.7734V28.0056C148.233 30.4446 150.216 32.4473 152.675 32.4473H154.261C156.7 32.4473 158.703 30.4644 158.703 28.0056V24.7734C158.703 22.3145 156.7 20.3316 154.261 20.3316ZM156.522 28.0056C156.522 29.2548 155.51 30.2661 154.261 30.2661H152.675C151.426 30.2661 150.414 29.2548 150.414 28.0056V24.7734C150.414 23.5241 151.426 22.5128 152.675 22.5128H154.261C155.51 22.5128 156.522 23.5241 156.522 24.7734V28.0056Z" fill="#112440"/>
<path d="M211.37 20.5894H207.959V16.2666C207.959 15.87 207.642 15.5527 207.245 15.5527H206.472C206.075 15.5527 205.758 15.87 205.758 16.2666V27.609C205.758 30.2859 207.919 32.4473 210.596 32.4473H211.052C211.409 32.4473 211.687 32.1697 211.687 31.8128V30.9006C211.687 30.5437 211.409 30.2661 211.052 30.2661H210.596C209.129 30.2661 207.959 29.0763 207.959 27.6288V22.7904H211.37C211.806 22.7904 212.143 22.4533 212.143 22.0171V21.3826C212.143 20.9265 211.806 20.5894 211.37 20.5894Z" fill="#112440"/>
<path d="M218.171 20.6092H217.854L216.902 22.0766L215.91 20.6092H215.593V22.7706H215.95V21.2834L216.803 22.5128H216.981L217.814 21.2438V22.7706H218.191L218.171 20.6092Z" fill="#112440"/>
<path d="M213.253 20.9067H214.066V22.7706H214.463V20.9067H215.256V20.6092H213.253V20.9067Z" fill="#112440"/>
</g>
<defs>
<radialGradient id="paint0_radial" cx="0" cy="0" r="1" gradientUnits="userSpaceOnUse" gradientTransform="translate(21.0743 -4.21285) scale(54.9228)">
<stop stop-color="#FF5B71"/>
<stop offset="1" stop-color="#C90043"/>
</radialGradient>
<clipPath id="clip0">
<rect width="218.191" height="48" fill="white"/>
</clipPath>
</defs>
</svg>
