<svg width="39" height="44" viewBox="0 0 39 44" fill="none" xmlns="http://www.w3.org/2000/svg">
<path d="M0.845133 5.63105C0.289665 5.79769 -0.0713887 6.35317 0.0119315 6.93641L2.06716 23.2394C3.76134 35.5708 15.9539 42.4864 18.6201 43.875C18.9534 44.0417 19.3422 44.0417 19.6477 43.875C22.3417 42.4864 34.5065 35.5985 36.2007 23.2394L38.2559 6.93641C38.3392 6.35317 37.9782 5.79769 37.4227 5.63105L19.8421 0.10415C19.37 -0.0347167 18.8978 -0.0347167 18.4257 0.10415L0.845133 5.63105Z" fill="url(#paint0_radial)"/>
<path d="M30.6738 9.57491L24.897 7.88073C24.4804 7.76963 24.036 7.88073 23.7027 8.18624C22.8695 8.99166 21.8141 9.46381 20.7032 9.46381H17.5926C16.4816 9.46381 15.454 8.99166 14.593 8.18624C14.2597 7.88073 13.8154 7.76963 13.3988 7.88073L7.62191 9.57491C7.45527 9.63045 7.4275 9.88041 7.59414 9.96373L10.0104 11.1858C11.4269 11.9079 13.0377 12.1301 14.5653 11.7968C15.6762 11.5468 16.8149 11.4357 17.9536 11.4357H20.3421C21.4808 11.4357 22.6195 11.5468 23.7305 11.7968C25.258 12.1301 26.8689 11.9079 28.2853 11.1858L30.7016 9.96373C30.8405 9.88041 30.8405 9.63045 30.6738 9.57491Z" fill="white"/>
<path d="M17.9811 7.93628L18.7587 8.38065C19.0087 8.51952 19.2864 8.51952 19.5364 8.38065L20.314 7.93628C20.564 7.79741 20.7028 7.51968 20.7028 7.24194C20.7028 6.96421 20.5362 6.68647 20.2862 6.54761L19.5086 6.13101C19.2864 5.99214 18.9809 5.99214 18.7587 6.13101L17.9811 6.54761C17.7311 6.68647 17.5645 6.96421 17.5645 7.24194C17.5922 7.51968 17.7311 7.79741 17.9811 7.93628Z" fill="white"/>
<path d="M24.7855 22.7395C24.48 22.3507 24.0911 22.0451 23.6745 21.8507C23.5634 21.7952 23.4523 21.7674 23.3413 21.7119L23.1746 21.6563L23.0357 21.6008L22.5081 21.4341L21.4527 21.1009L19.3419 20.4065L15.1203 19.0456L14.8704 18.9623C14.787 18.9345 14.7315 18.9068 14.6759 18.879C14.5371 18.8234 14.3982 18.7679 14.2871 18.6846C14.0372 18.5457 13.815 18.3513 13.6483 18.1291C13.4817 17.9069 13.3428 17.6847 13.2595 17.4348C13.2317 17.3792 13.2317 17.3237 13.204 17.2403C13.204 17.2126 13.1762 17.1848 13.1762 17.157L13.1484 17.0182C13.1206 16.8237 13.0929 16.6571 13.0651 16.4627L13.0095 16.2127C13.0095 16.185 13.0095 16.1572 13.0095 16.1016C13.0095 16.0461 13.0095 15.9628 13.0651 15.8794C13.1206 15.7406 13.2595 15.5739 13.4817 15.4906C13.5095 15.4906 13.5372 15.4628 13.565 15.4628C13.565 15.4628 13.5928 15.4628 13.5928 15.4351H13.6206H13.6483L13.9261 15.3518C14.0927 15.2962 14.2871 15.2407 14.4538 15.1851C14.8148 15.074 15.1481 14.9352 15.5092 14.7963C15.7036 14.713 15.8424 14.5186 15.8147 14.2964C15.7869 14.0464 15.5647 13.8242 15.3147 13.8242H15.287C14.9259 13.852 14.5371 13.9075 14.176 13.9353C13.9816 13.9631 13.815 13.9909 13.6206 14.0186L13.3428 14.0742H13.3151H13.2595C13.2317 14.0742 13.204 14.0742 13.1762 14.102C13.1206 14.1297 13.0651 14.1297 12.9818 14.1575C12.4819 14.3241 12.0097 14.6574 11.732 15.1573C11.5931 15.4073 11.482 15.685 11.4542 15.9905C11.4265 16.1294 11.4542 16.296 11.4542 16.4349L11.482 16.7127C11.5098 16.9071 11.5376 17.0737 11.5653 17.2681L11.5931 17.407C11.5931 17.4625 11.6209 17.5181 11.6209 17.5736C11.6486 17.6847 11.6764 17.7958 11.7042 17.9347C11.8431 18.3791 12.093 18.7957 12.3985 19.1567C12.704 19.5178 13.0651 19.7955 13.4539 20.0455C13.6483 20.1566 13.8427 20.2676 14.0649 20.351C14.176 20.4065 14.2871 20.4343 14.3704 20.4621L14.6482 20.5454L18.8975 21.8507L21.0083 22.4895L22.0637 22.8228L22.5914 22.9894L22.7302 23.0172L22.8413 23.045C22.8969 23.0728 22.9802 23.1005 23.0357 23.1283C23.5357 23.3505 23.8967 23.7949 23.9523 24.2392C23.98 24.3503 23.98 24.4614 23.9523 24.6003C23.9523 24.6281 23.9523 24.6281 23.9523 24.6558V24.7114L23.9245 24.8503C23.8967 24.9614 23.8967 24.9891 23.8967 25.0724C23.8412 25.2946 23.7023 25.5168 23.5357 25.7112C23.3413 25.9056 23.1191 26.0445 22.8413 26.1556C22.7858 26.1834 22.7025 26.2112 22.6469 26.2112C22.6191 26.2112 22.5914 26.2389 22.5358 26.2389H22.4803L22.4247 26.2667L21.8693 26.3778L19.7029 26.8222L17.5366 27.2665L16.4534 27.4887L15.898 27.5998L15.7591 27.6276L15.6758 27.7109C15.648 27.7109 15.6202 27.7109 15.5925 27.7387C15.4814 27.7665 15.3703 27.7942 15.2592 27.8498C14.8148 28.0442 14.426 28.3497 14.176 28.7941C14.0649 29.0163 13.9816 29.2662 13.9261 29.5162C13.8983 29.6551 13.8983 29.7661 13.9261 29.905C13.9261 29.9328 13.9261 29.9606 13.9261 29.9883C13.9261 30.0161 13.9261 30.0439 13.9261 30.0717L13.9538 30.2105L14.0094 30.4883C14.0094 30.516 14.0372 30.5994 14.0372 30.6549C14.0372 30.7104 14.0649 30.766 14.0927 30.8215C14.176 31.0437 14.2871 31.2659 14.426 31.4603C14.7037 31.8492 15.0926 32.0991 15.5092 32.2658H15.5369H15.5647L18.5642 33.0434L21.536 33.8211H21.5082H21.536C21.8415 33.9322 22.1192 34.1543 22.3136 34.4321C22.508 34.7098 22.5914 35.0431 22.5636 35.3764C22.5358 35.5152 22.6469 35.6263 22.758 35.6541C22.7858 35.6541 22.7858 35.6541 22.8136 35.6541C22.9246 35.6541 23.0357 35.5708 23.0635 35.4319C23.1191 35.2097 23.1191 34.9598 23.0635 34.7376C23.008 34.5154 22.9246 34.2932 22.8136 34.071C22.5636 33.6822 22.2025 33.3767 21.7582 33.1823H21.7304L18.7864 32.2658L15.8702 31.377C15.8702 31.377 15.8702 31.377 15.898 31.377L15.8424 31.3492H15.8702C15.6202 31.2381 15.3981 31.0437 15.2314 30.8215C15.1481 30.7104 15.0926 30.5993 15.0648 30.4605C15.0648 30.4327 15.037 30.4049 15.037 30.3772C15.037 30.3494 15.037 30.3216 15.0092 30.2661L14.9815 29.9883L14.9537 29.8495C14.9537 29.8217 14.9537 29.8217 14.9537 29.7939C14.9537 29.7661 14.9537 29.7661 14.9537 29.7384C14.9537 29.6828 14.9537 29.6273 14.9537 29.5717C14.9815 29.4606 15.0092 29.3495 15.0648 29.2385C15.2036 29.044 15.3981 28.8774 15.648 28.7663C15.7036 28.7385 15.7869 28.7108 15.8424 28.7108C15.8702 28.7108 15.8702 28.7108 15.898 28.7108H15.9535L16.0924 28.683L16.6479 28.5997L17.731 28.4053L19.9251 28.0164L22.1192 27.6276L22.6747 27.5443H22.7302L22.8136 27.5165C22.8691 27.5165 22.9247 27.4887 22.9802 27.4887C23.0913 27.461 23.2024 27.4332 23.3135 27.3776C23.7301 27.211 24.1467 26.9888 24.48 26.6555C24.8132 26.3223 25.091 25.9056 25.2298 25.4057C25.2576 25.2946 25.2854 25.1558 25.3132 25.0724L25.3409 24.9336V24.878L25.3687 24.7947C25.3965 24.5447 25.4243 24.2948 25.3687 24.0448C25.2854 23.6005 25.091 23.1283 24.7855 22.7395Z" fill="white"/>
<path d="M18.5922 31.4604C18.5922 31.4882 18.5922 31.5159 18.5922 31.5437L18.981 31.6548L19.7031 31.877C19.7031 31.7381 19.7031 31.5992 19.7309 31.4326L19.7864 29.8773L19.8142 28.7664L18.5366 28.9885L18.5644 29.8773L18.5922 31.4604Z" fill="white"/>
<path d="M19.5645 26.2111L19.87 26.1555C19.87 25.8223 19.87 25.5167 19.8978 25.1835L19.9533 22.8783L18.7591 22.5172L18.4258 22.4061L18.4813 25.1835C18.4813 25.6001 18.5091 26.0167 18.5091 26.4333L19.5645 26.2111Z" fill="white"/>
<path d="M18.8419 37.7093C18.8419 37.8482 18.9807 37.9593 19.1196 37.9593C19.2862 37.9593 19.4251 37.8482 19.4251 37.7093C19.4807 36.4873 19.564 35.2375 19.5918 34.0155L18.6475 33.7655C18.7308 35.0986 18.7863 36.404 18.8419 37.7093Z" fill="white"/>
<path d="M19.5643 19.7678L19.9531 19.8789V18.9068C19.9531 17.8514 19.9809 16.8238 19.9254 15.7684C19.8976 15.2407 19.8698 14.713 19.8143 14.2131C19.7587 13.6854 19.7032 13.1577 19.6199 12.6578C19.5921 12.4634 19.4254 12.3245 19.2033 12.2689C18.9255 12.2134 18.6756 12.4078 18.62 12.6578C18.5367 13.1855 18.4534 13.7132 18.4256 14.2131C18.37 14.7408 18.3423 15.2685 18.3145 15.7684C18.259 16.8238 18.2867 17.8514 18.2867 18.9068V19.3512L19.5643 19.7678Z" fill="white"/>
<path d="M16.5091 33.2378C16.0647 33.4322 15.7037 33.7377 15.4537 34.1265C15.3426 34.321 15.2315 34.5431 15.2038 34.7931C15.1482 35.0153 15.1482 35.2653 15.2038 35.4874C15.2315 35.5985 15.3426 35.7096 15.4537 35.7096H15.4815C15.6204 35.6818 15.7315 35.5708 15.7037 35.4319C15.6481 35.0986 15.7592 34.7653 15.9537 34.4876C16.1481 34.2099 16.4258 34.0155 16.7313 33.8766H16.7591H16.7313L17.8145 33.5989L16.5091 33.2378Z" fill="white"/>
<path d="M14.982 27.2388C15.1208 27.1833 15.2597 27.1277 15.3986 27.1C15.4263 27.1 15.4541 27.0722 15.4819 27.0722H15.5096L15.593 27.0444L15.7318 27.0167L16.2873 26.9056L17.3705 26.6834L17.4816 26.6556L16.3984 26.4334L15.8429 26.3223L15.7874 26.2945H15.7318C15.7041 26.2945 15.6763 26.2668 15.6207 26.2668C15.5652 26.239 15.4819 26.2112 15.4263 26.2112C15.1764 26.1001 14.9264 25.9613 14.732 25.7668C14.5376 25.5724 14.4265 25.3503 14.3709 25.1281C14.3432 25.0725 14.3432 25.017 14.3432 24.9059L14.3154 24.767V24.7115C14.3154 24.6837 14.3154 24.6837 14.3154 24.6559C14.2876 24.5448 14.2876 24.406 14.3154 24.2949C14.3709 23.8227 14.7598 23.4061 15.2319 23.1839C15.2875 23.1562 15.3708 23.1284 15.4263 23.1006L15.5374 23.0728L15.6763 23.0451L16.204 22.8784L17.2594 22.5451L18.0092 22.3229L15.5096 21.5453L15.2041 21.6564L15.0653 21.7119L14.8986 21.7675C14.7875 21.823 14.6764 21.8508 14.5654 21.9063C14.1487 22.1008 13.7599 22.4063 13.4544 22.7951C13.1489 23.1839 12.9267 23.6561 12.8712 24.156C12.8434 24.406 12.8434 24.6559 12.8712 24.9059L12.8989 24.9892V25.0447L12.9267 25.1836C12.9545 25.2669 12.9545 25.4058 13.01 25.5169C13.1489 25.989 13.4266 26.4334 13.7599 26.7667C14.0377 27.0444 14.3709 27.2388 14.7042 27.4055C14.8153 27.2944 14.8986 27.2666 14.982 27.2388Z" fill="white"/>
<path d="M26.5638 15.1573C26.2583 14.6574 25.7862 14.3241 25.314 14.1575C25.2585 14.1297 25.2029 14.1297 25.1196 14.102C25.0918 14.102 25.0641 14.0742 25.0363 14.0742H24.9808H24.953L24.6752 14.0186C24.4808 13.9909 24.3142 13.9631 24.1198 13.9353C23.7587 13.8798 23.3699 13.852 23.0088 13.8242H22.9811C22.7867 13.8242 22.5922 13.9353 22.5089 14.1575C22.3978 14.4075 22.5367 14.713 22.7867 14.8241C23.1477 14.9629 23.481 15.074 23.842 15.2129C24.0087 15.2684 24.2031 15.324 24.3697 15.3795L24.6475 15.4628H24.6752H24.703C24.703 15.4628 24.7308 15.4628 24.7308 15.4906C24.7586 15.4906 24.7863 15.5184 24.8141 15.5184C25.0085 15.6295 25.1474 15.7684 25.2307 15.9072C25.2585 15.9905 25.2863 16.0461 25.2863 16.1294C25.2863 16.1572 25.2863 16.185 25.2863 16.2405L25.2307 16.4905C25.2029 16.6849 25.1752 16.8515 25.1474 17.0459L25.1196 17.1848C25.1196 17.2126 25.1196 17.2403 25.0918 17.2681C25.0918 17.3237 25.0641 17.3792 25.0363 17.4625C24.953 17.7125 24.8141 17.9347 24.6475 18.1569C24.4808 18.3791 24.2586 18.5457 24.0087 18.7123C23.8976 18.7957 23.7587 18.8512 23.6199 18.9067C23.5643 18.9345 23.481 18.9623 23.4254 18.9901L23.1755 19.0734L20.2593 20.0177L21.7313 20.4898L22.7867 20.8231H22.8144L23.6476 20.5732L23.9254 20.4898C24.0365 20.4621 24.1476 20.4065 24.2309 20.3787C24.4253 20.2954 24.6475 20.1843 24.8419 20.0732C25.2307 19.851 25.5918 19.5455 25.8973 19.1845C26.2028 18.8234 26.4527 18.4068 26.5916 17.9625C26.6194 17.8514 26.6749 17.7403 26.6749 17.6014C26.6749 17.5459 26.7027 17.4903 26.7027 17.4348L26.7305 17.2959C26.7583 17.1015 26.786 16.9348 26.8138 16.7404L26.8416 16.4627C26.8693 16.3238 26.8693 16.1572 26.8416 16.0183C26.8138 15.7128 26.7027 15.4073 26.5638 15.1573Z" fill="white"/>
<path d="M24.092 28.7941C23.9254 28.5163 23.7032 28.2664 23.4532 28.0997C23.3421 28.1275 23.231 28.1553 23.1199 28.1831H23.0922C23.0366 28.1831 23.0088 28.2108 22.9255 28.2108L22.8422 28.2386H22.7867L22.2312 28.3219L21.0647 28.5163L21.6479 28.6274L22.2034 28.7107L22.3423 28.7385H22.3978C22.4256 28.7385 22.4256 28.7385 22.4534 28.7385C22.5089 28.7663 22.5922 28.7663 22.6478 28.7941C22.8978 28.8774 23.0922 29.044 23.231 29.2662C23.2866 29.3773 23.3421 29.4884 23.3421 29.5995C23.3421 29.655 23.3421 29.7106 23.3421 29.7661C23.3421 29.7939 23.3421 29.7939 23.3421 29.8217C23.3421 29.8217 23.3421 29.8495 23.3421 29.8772L23.3144 30.0161L23.2866 30.2938C23.2866 30.3494 23.2866 30.3772 23.2588 30.4049C23.2588 30.4327 23.231 30.4605 23.231 30.4882C23.2033 30.5993 23.1477 30.7382 23.0644 30.8493C22.9255 31.0715 22.7033 31.2381 22.4256 31.377H22.4534L22.3978 31.4048C22.3978 31.4048 22.3978 31.4048 22.4256 31.4048L20.2593 32.0713L21.759 32.5435L22.7033 32.2935H22.7311H22.7589C23.1755 32.1269 23.5643 31.8491 23.842 31.4881C23.9809 31.2937 24.092 31.0993 24.1753 30.8493C24.2031 30.7937 24.2031 30.7382 24.2309 30.6827C24.2309 30.6271 24.2586 30.5716 24.2586 30.516L24.3142 30.2383L24.342 30.0994C24.342 30.0716 24.342 30.0439 24.342 30.0161C24.342 29.9883 24.342 29.9606 24.342 29.9328C24.342 29.7939 24.342 29.6828 24.342 29.544C24.3142 29.2384 24.2309 28.9885 24.092 28.7941Z" fill="white"/>
<defs>
<radialGradient id="paint0_radial" cx="0" cy="0" r="1" gradientUnits="userSpaceOnUse" gradientTransform="translate(19.3181 -3.86178) scale(50.3459)">
<stop stop-color="#FF5B71"/>
<stop offset="1" stop-color="#C90043"/>
</radialGradient>
</defs>
</svg>
