<svg width="151" height="37" viewBox="0 0 151 37" fill="none" xmlns="http://www.w3.org/2000/svg">
<mask id="mask0" mask-type="alpha" maskUnits="userSpaceOnUse" x="7" y="8" width="24" height="29">
<path d="M7.37573 8.66699H30.8267V36.8266H7.37573V8.66699Z" fill="white"/>
</mask>
<g mask="url(#mask0)">
<path opacity="0.6" fill-rule="evenodd" clip-rule="evenodd" d="M13.1735 8.66699H23.4919C29.0309 8.66699 31.1167 11.49 30.7947 15.6444C30.2637 22.4929 26.1507 26.2801 20.6956 26.2801H17.9413C17.1938 26.2801 16.6907 26.7774 16.487 28.1295L15.3054 35.981C15.2289 36.4907 14.9623 36.7902 14.5621 36.8267H8.09225C7.48345 36.8267 7.26694 36.3577 7.4262 35.3421L11.3772 10.1569C11.5354 9.14746 12.084 8.66699 13.1735 8.66699Z" fill="white"/>
</g>
<path fill-rule="evenodd" clip-rule="evenodd" d="M88.9861 15.9416H85.5371C84.8223 15.9416 84.5318 16.4682 84.7592 17.138L89.0572 29.8102L84.8218 35.8372C84.4684 36.3402 84.7411 36.8005 85.2399 36.8005H89.1313C89.7124 36.8005 89.9955 36.6512 90.2879 36.2289L103.507 17.138C103.914 16.5497 103.722 15.9344 103.054 15.9339L99.3753 15.9301C98.7439 15.9293 98.4903 16.1808 98.1276 16.7101L92.6139 24.7635L90.1608 16.6961C90.0098 16.1988 89.6492 15.9416 88.9861 15.9416ZM71.8078 27.7433C69.5409 27.7433 67.9612 25.9233 68.2909 23.6915C68.6208 21.46 70.7383 19.64 73.0052 19.64C75.2718 19.64 76.8518 21.46 76.5218 23.6915C76.1921 25.9233 74.0744 27.7433 71.8078 27.7433ZM74.6646 29.7853C75.0153 29.4649 75.3738 29.2968 75.3216 29.6933L75.1969 30.6432C75.1319 31.1382 75.3277 31.4028 75.7868 31.4028H79.2004C79.7746 31.4028 80.0553 31.1685 80.197 30.2735L82.3006 16.9798C82.4063 16.3119 82.2457 15.9843 81.7419 15.9843H77.9884C77.6499 15.9843 77.4859 16.1757 77.3972 16.6961L77.2582 17.5144C77.1855 17.9415 76.9916 18.0152 76.8111 17.5857C76.1738 16.0671 74.5495 15.3864 72.2715 15.4336C67.0054 15.5427 63.4551 19.5671 63.0756 24.7259C62.7819 28.7166 65.6227 31.8503 69.3657 31.8503C72.0816 31.85 73.2965 31.035 74.6646 29.7853ZM51.7054 19.1732L54.8356 19.1738C56.7922 19.0992 58.0937 17.7348 58.2242 15.273C58.3052 13.7525 57.2854 12.665 55.6617 12.6725L52.715 12.6856L51.7054 19.1732ZM57.9648 8.20166C61.4466 8.20166 64.6581 10.1021 64.2187 14.8413C63.6975 20.4594 60.69 23.5883 55.9597 23.6009H51.8335C51.2385 23.6009 50.9528 24.0878 50.7964 25.09L50.0002 30.2033C49.8801 30.9752 49.4872 31.3564 48.9046 31.3564H45.0616C44.4489 31.3564 44.235 30.962 44.3716 30.0805L47.5482 9.5846C47.7045 8.57649 48.0875 8.20166 48.7663 8.20166H57.9648Z" fill="white"/>
<path opacity="0.6" fill-rule="evenodd" clip-rule="evenodd" d="M146.854 31.4267H142.914C142.601 31.4267 142.384 31.1797 142.431 30.8778L145.896 8.79715C145.943 8.49525 146.238 8.24831 146.551 8.24831H150.492C150.805 8.24831 151.022 8.49525 150.975 8.79715L147.51 30.8778C147.462 31.1797 147.167 31.4267 146.854 31.4267ZM131.107 27.7433C128.841 27.7433 127.261 25.9233 127.59 23.6915C127.92 21.46 130.038 19.64 132.304 19.64C134.571 19.64 136.151 21.46 135.821 23.6915C135.491 25.9233 133.374 27.7433 131.107 27.7433ZM133.964 29.7853C134.315 29.4649 134.673 29.2968 134.621 29.6933L134.496 30.6432C134.432 31.1382 134.627 31.4028 135.086 31.4028H138.5C139.074 31.4028 139.355 31.1685 139.496 30.2735L141.6 16.9798C141.706 16.3119 141.545 15.9843 141.041 15.9843H137.288C136.949 15.9843 136.785 16.1757 136.697 16.6961L136.558 17.5144C136.485 17.9415 136.291 18.0152 136.11 17.5857C135.473 16.0671 133.849 15.3864 131.571 15.4336C126.305 15.5427 122.755 19.5674 122.375 24.7259C122.081 28.7168 124.922 31.8503 128.665 31.8503C131.381 31.85 132.596 31.035 133.964 29.7853ZM111.005 19.1732L114.135 19.1738C116.092 19.0992 117.393 17.7351 117.524 15.273C117.604 13.7525 116.585 12.665 114.961 12.6725L112.015 12.6859L111.005 19.1732ZM117.264 8.20166C120.746 8.20166 123.957 10.1021 123.518 14.8413C122.997 20.4594 119.989 23.5883 115.259 23.6012H111.133C110.538 23.6012 110.252 24.0878 110.096 25.09L109.299 30.2035C109.179 30.9752 108.787 31.3564 108.204 31.3564H104.361C103.748 31.3564 103.535 30.9623 103.671 30.0805L106.848 9.5846C107.004 8.57649 107.387 8.20166 108.066 8.20166H117.264Z" fill="white"/>
<path fill-rule="evenodd" clip-rule="evenodd" d="M6.72286 0H17.0513C19.9603 0 23.4104 0.094913 25.7185 2.14439C27.2602 3.51339 28.0693 5.69451 27.8823 8.03597C27.249 15.976 22.5315 20.4229 16.2055 20.4229H11.1114C10.2446 20.4229 9.66989 21.0015 9.42515 22.5679L8.00383 31.6717C7.91168 32.2627 7.65735 32.6104 7.19317 32.6525H0.830662C0.124663 32.6525 -0.126204 32.1088 0.0586176 30.9312L4.63975 1.72747C4.82351 0.557145 5.4592 0 6.72286 0Z" fill="white"/>
</svg>
