<svg width="110" height="26" viewBox="0 0 110 26" fill="none" xmlns="http://www.w3.org/2000/svg">
<path fill-rule="evenodd" clip-rule="evenodd" d="M55.8489 25.7L84.6824 25.7601L89.2108 20.7912L93.7715 25.7414H102.354L109.5 25.7L96.9784 12.79L109.5 0L102.354 0.0410421L55.8489 0V25.7ZM58.9551 22.8822V2.82812H76.1566H76.2425H83.5604L89.4058 9.18408L95.2678 2.82812H102.354V2.98592L92.9914 12.8432L102.354 22.5973V22.8818H95.1965L89.2474 16.4621L83.3595 22.8818H76.2425V22.8822H58.9551ZM76.2425 22.7916V18.2074H64.5521V15.1268H75.9642V10.5839H64.5521V7.44796H76.2425V2.91807L85.7225 12.8432L76.2425 22.7916Z" fill="white"/>
<path fill-rule="evenodd" clip-rule="evenodd" d="M11.5133 0.208984H22.7232L26.6605 9.00276V0.208984H40.5L42.8865 6.79725L45.2811 0.208984H55.8489V2.99747H47.4551L42.9377 15.3452L38.4502 3.02696L29.7281 2.99707V22.8488L20.8043 3.00098H13.6358L4.58923 23.0379H10.7939L12.5007 19.0257H21.7486L23.4541 23.0379H29.8132L29.8116 23.0344H35.2142V9.27094L40.4187 23.0344H45.3489L50.4477 9.31756V23.0814L55.8489 23.0344V25.9089H0L11.5133 0.208984ZM14.4132 14.529L17.1263 8.15037L19.8373 14.529H14.4132Z" fill="white"/>
</svg>
