<svg width="82" height="27" viewBox="0 0 82 27" fill="none" xmlns="http://www.w3.org/2000/svg">
<path fill-rule="evenodd" clip-rule="evenodd" d="M53.6566 0C56.7282 0 59.6747 1.1373 59.6747 1.1373L58.7198 6.73936C55.8565 5.13807 49.34 4.75921 49.34 7.7085C49.34 10.6564 58.6779 11.2885 58.6779 18.0698C58.6779 24.5998 51.7888 27 47.2233 27C42.6579 27 39.6701 25.5264 39.6701 25.5264L40.6656 19.6704C43.4051 21.9024 51.7056 22.5352 51.7056 18.9964C51.7056 15.4582 42.4509 15.3744 42.4509 8.63509C42.4509 1.4736 50.3362 0 53.6566 0ZM39.7301 0.466432L35.5475 26.551H28.8571L33.0383 0.466432H39.7301ZM0.695435 1.08763C0.335218 0.985119 0.101904 0.930896 0.0265503 0.914055C0.00773929 0.909722 0 0.908093 0 0.908093L0.123749 0.466432H10.6681C13.5706 0.466432 13.8428 2.81568 13.8428 2.81568L16.0943 14.5453L16.0936 14.5439L16.8484 18.4073L23.2274 0.466571H30.4293L19.7832 26.5512H12.8123L6.99908 3.89032C4.35878 2.27976 1.98672 1.46305 0.800156 1.11777L0.800217 1.11727L0.695435 1.08763ZM76.6433 0.466711L82 26.5513H75.8568L75.0717 22.6768H66.5657L65.1708 26.5513H58.1965L68.1751 2.41058C68.1751 2.41058 68.7404 0.594142 71.0217 0.473046L71.2639 0.466711H76.6433ZM72.0097 7.56261L68.494 17.3238H73.9876L72.0097 7.56261Z" fill="white"/>
</svg>
