<svg width="135" height="35" viewBox="0 0 135 35" fill="none" xmlns="http://www.w3.org/2000/svg">
<path fill-rule="evenodd" clip-rule="evenodd" d="M65.7888 26.8169C65.7888 26.8169 67.9402 32.1142 68.0794 32.4519C68.1993 32.1097 69.8947 27.3047 69.8947 27.3047H70.9086L68.0851 35C68.0851 35 65.9172 29.6362 65.7888 29.3124C65.6599 29.6362 63.4919 35 63.4919 35L60.6688 27.3047H61.6808C61.6808 27.3047 63.3758 32.1097 63.496 32.4519C63.6331 32.1142 65.7222 26.9853 65.7222 26.9853L65.7888 26.8169ZM36.9904 26.8934C36.9904 26.8934 42.2786 32.3983 42.5212 32.6541V27.3046H43.4584V34.926C43.4584 34.926 38.1707 29.4301 37.928 29.1784V34.5014H36.9904V26.8934ZM77.3243 27.184C79.4027 27.184 81.0952 28.8527 81.0952 30.9101C81.0952 32.9552 79.4027 34.6207 77.3243 34.6207C75.245 34.6207 73.5521 32.9552 73.5521 30.9101C73.5521 28.8527 75.245 27.184 77.3243 27.184ZM50.9692 27.3046V28.1848H48.0825V30.1309H50.8834V31.0009H48.0825V33.6228H50.9692V34.5014H47.1428V27.3046H50.9692ZM58.2796 27.3046V28.1848H56.5473V34.5014H55.6093V28.1848H53.8945V27.3046H58.2796ZM85.4731 27.3046C87.2695 27.3046 88.1411 27.9621 88.1411 29.3228C88.1411 30.407 87.4613 31.1677 86.4149 31.3101C86.5273 31.4728 88.6932 34.5014 88.6932 34.5014H88.5474L87.5187 34.468C87.5187 34.468 85.4333 31.4586 85.4333 31.4051H85.3114V34.5014H84.3738V27.3046H85.4731ZM92.7638 27.3046V30.2214C92.9669 30.0117 95.1325 27.8512 95.5942 27.3906L95.6805 27.3046H96.9481C96.9481 27.3046 93.6431 30.5637 93.5392 30.6648C93.6374 30.7635 97.0541 34.5014 97.0541 34.5014H96.8841L95.7388 34.4766C95.7388 34.4766 92.9793 31.4051 92.8796 31.2979C92.8324 31.3431 92.7716 31.4006 92.7638 31.3966V34.5014H91.8262V27.3046H92.7638ZM77.3241 28.0591C75.76 28.0591 74.4899 29.3354 74.4899 30.9017C74.4899 32.4684 75.76 33.7468 77.3241 33.7468C78.8881 33.7468 80.1537 32.4684 80.1537 30.9017C80.1537 29.3354 78.8881 28.0591 77.3241 28.0591ZM85.4731 28.1849H85.3114V30.5637H85.4818C86.3344 30.5637 87.2034 30.4234 87.2034 29.3784C87.2034 28.2714 86.3841 28.1849 85.4731 28.1849ZM85.2411 0.475316L90.9004 14.6259L96.6266 0.475316H101.108L91.9504 22.0789H89.7267L80.7263 0.475316H85.2411ZM32.7495 0.12355C35.0722 0.12355 37.202 0.912005 38.9819 2.46322L36.8234 5.26992C35.7393 4.07317 34.7216 3.5682 33.4819 3.5682C31.6986 3.5682 30.3981 4.57854 30.3981 5.90582C30.3981 7.03895 31.1284 7.64181 33.6116 8.55589C38.3181 10.2637 39.7134 11.7811 39.7134 15.1299C39.7134 19.2035 36.6946 22.0502 32.4031 22.0502C29.2528 22.0502 26.9634 20.8143 25.0598 18.0386L27.7269 15.477C28.6814 17.3088 30.2692 18.287 32.2405 18.287C34.087 18.287 35.4552 17.0254 35.4552 15.3175C35.4552 14.4332 35.0401 13.6778 34.2134 13.1406C33.7996 12.8828 32.9749 12.5055 31.3525 11.9398C27.4728 10.5464 26.1387 9.06331 26.1387 6.15464C26.1387 2.71489 29.002 0.12355 32.7495 0.12355ZM52.3044 0C54.0844 0 55.5811 0.376076 57.3936 1.28935V6.12449C55.6747 4.45051 54.1781 3.75587 52.2101 3.75587C48.3275 3.75587 45.2766 6.94721 45.2766 10.9882C45.2766 15.2543 48.2351 18.256 52.3989 18.256C54.2753 18.256 55.738 17.5944 57.3936 15.9502V20.7853C55.5159 21.6668 53.9901 22.016 52.2101 22.016C45.9137 22.016 41.0162 17.2159 41.0162 11.0184C41.0162 4.89715 46.04 0 52.3044 0ZM70.2678 0.0803952C76.602 0.0803952 81.5437 4.89719 81.5437 11.0307C81.5437 17.2008 76.5687 22.016 70.2678 22.016C63.8055 22.016 58.9611 17.2632 58.9611 10.9058C58.9611 4.92574 64.0251 0.0803952 70.2678 0.0803952ZM123.585 0.475153C128.357 0.475153 131.087 2.74589 131.087 6.69224C131.087 9.91621 129.373 12.0336 126.253 12.6674L132.933 21.5411H127.846L122.127 13.0745H121.585V21.5411H117.448V0.475153H123.585ZM6.07886 0.47499C12.7821 0.47499 17.4583 4.79905 17.4583 11.0186C17.4583 14.1198 16.0259 17.1202 13.6109 19.1103C11.5756 20.7855 9.25496 21.541 6.04681 21.541H0V0.47499H6.07886ZM23.498 0.474949V21.5409H19.3671V0.474949H23.498ZM114.718 0.474949V4.04237H107.12V8.71803H114.427V12.285H107.12V17.9747H114.718V21.5409H102.988V0.474949H114.718ZM5.24921 4.04241H4.13794V17.9748H5.24921C7.92328 17.9748 9.60553 17.4686 10.9126 16.2967C12.3432 15.0384 13.1959 13.0128 13.1959 10.9884C13.1959 8.96729 12.3432 7.01064 10.9126 5.7474C9.54149 4.51679 7.92328 4.04241 5.24921 4.04241ZM122.854 3.78805H121.585V10.1711H122.788C125.435 10.1711 126.834 9.03027 126.834 6.91495C126.834 4.86488 125.435 3.78805 122.854 3.78805ZM133.39 0.776218C134.276 0.776218 135 1.5092 135 2.39718C135 3.28883 134.276 4.01855 133.39 4.01855C132.489 4.01855 131.759 3.29617 131.759 2.39718C131.759 1.49859 132.485 0.776218 133.39 0.776218ZM133.388 1.07194C132.66 1.07194 132.08 1.66053 132.08 2.40167C132.08 3.13546 132.663 3.72813 133.388 3.72813C134.091 3.72813 134.672 3.13016 134.672 2.40167C134.672 1.67195 134.091 1.07194 133.388 1.07194ZM133.301 1.47461C133.755 1.47461 134.003 1.67488 134.003 2.04403C134.003 2.30263 133.859 2.49434 133.597 2.56327L134.218 3.33011H133.664L133.141 2.60855V3.33011H132.699V1.47461H133.301ZM133.228 1.81398H133.141V2.29651H133.224C133.444 2.29651 133.56 2.21412 133.56 2.05096C133.56 1.89351 133.448 1.81398 133.228 1.81398Z" fill="white"/>
</svg>
