<svg width="56" height="43" viewBox="0 0 56 43" fill="none" xmlns="http://www.w3.org/2000/svg">
<path fill-rule="evenodd" clip-rule="evenodd" d="M12.1013 40.5096C12.1013 39.7031 12.6295 39.0389 13.4938 39.0389C14.3102 39.0389 14.8864 39.6556 14.8864 40.5096C14.8864 41.3158 14.3102 41.98 13.4938 41.98C12.6295 41.9324 12.1013 41.3158 12.1013 40.5096ZM15.8469 40.5096V38.2325H14.8385V38.8019C14.5023 38.3749 14.0221 38.1376 13.3978 38.1376C12.1013 38.1376 11.0928 39.134 11.0928 40.5096C11.0928 41.8851 12.1013 42.8813 13.3978 42.8813C14.07 42.8813 14.5504 42.644 14.8385 42.2172V42.7864H15.8469V40.5096ZM49.5576 40.5096C49.5576 39.7031 50.0859 39.0389 50.9504 39.0389C51.7665 39.0389 52.3429 39.6556 52.3429 40.5096C52.3429 41.3158 51.7665 41.98 50.9504 41.98C50.0859 41.9324 49.5576 41.3158 49.5576 40.5096ZM53.2553 40.5096V36.4302H52.2467V38.8019C51.9107 38.3749 51.4305 38.1376 50.8062 38.1376C49.5097 38.1376 48.5013 39.134 48.5013 40.5096C48.5013 41.8851 49.5097 42.8813 50.8062 42.8813C51.4784 42.8813 51.9588 42.644 52.2467 42.2172V42.7864H53.2553V40.5096ZM28.2363 38.9916C28.8606 38.9916 29.2928 39.371 29.3888 40.0826H26.9878C27.0839 39.4659 27.5159 38.9916 28.2363 38.9916ZM28.2363 38.1376C26.8918 38.1376 25.9313 39.0865 25.9313 40.5096C25.9313 41.9324 26.8918 42.8813 28.2844 42.8813C28.9566 42.8813 29.6288 42.6915 30.1571 42.2646L29.6769 41.553C29.2928 41.8376 28.8127 42.0273 28.3323 42.0273C27.7082 42.0273 27.0839 41.7429 26.9397 40.9365H30.3492V40.5569C30.3973 39.0865 29.533 38.1376 28.2363 38.1376ZM40.2896 40.5096C40.2896 39.7031 40.8179 39.0389 41.6822 39.0389C42.4985 39.0389 43.0747 39.6556 43.0747 40.5096C43.0747 41.3158 42.4985 41.98 41.6822 41.98C40.8179 41.9324 40.2896 41.3158 40.2896 40.5096ZM43.9871 40.5096V38.2325H42.9787V38.8019C42.6427 38.3749 42.1623 38.1376 41.538 38.1376C40.2417 38.1376 39.233 39.134 39.233 40.5096C39.233 41.8851 40.2417 42.8813 41.538 42.8813C42.2104 42.8813 42.6906 42.644 42.9787 42.2172V42.7864H43.9871V40.5096ZM34.6712 40.5096C34.6712 41.8851 35.6315 42.8813 37.1203 42.8813C37.7926 42.8813 38.2727 42.7389 38.7529 42.3594L38.2727 41.553C37.8886 41.8376 37.5042 41.98 37.0722 41.98C36.2558 41.98 35.6797 41.4108 35.6797 40.5096C35.6797 39.6556 36.2558 39.0865 37.0722 39.0389C37.5042 39.0389 37.8886 39.1813 38.2727 39.4659L38.7529 38.6595C38.2727 38.28 37.7926 38.1376 37.1203 38.1376C35.6315 38.1376 34.6712 39.134 34.6712 40.5096ZM47.5407 38.1376C46.9645 38.1376 46.5804 38.4224 46.3402 38.8019V38.2325H45.3318V42.7864H46.3402V40.225C46.3402 39.4659 46.6764 39.0389 47.3008 39.0389C47.4928 39.0389 47.7328 39.0864 47.9251 39.134L48.2132 38.1852C48.0211 38.1376 47.7328 38.1376 47.5407 38.1376ZM20.7449 38.6122C20.2648 38.28 19.5926 38.1376 18.8722 38.1376C17.7198 38.1376 16.9514 38.707 16.9514 39.6083C16.9514 40.3672 17.5276 40.7941 18.536 40.9365L19.0162 40.9839C19.5444 41.0787 19.8325 41.2209 19.8325 41.4581C19.8325 41.7903 19.4484 42.0273 18.7762 42.0273C18.1038 42.0273 17.5757 41.7903 17.2395 41.553L16.7593 42.3121C17.2874 42.6915 18.0077 42.8813 18.7281 42.8813C20.0727 42.8813 20.8412 42.2646 20.8412 41.4108C20.8412 40.6044 20.2169 40.1774 19.2563 40.0353L18.7762 39.9877C18.3439 39.9402 18.0077 39.8453 18.0077 39.5607C18.0077 39.2288 18.3439 39.0389 18.8722 39.0389C19.4484 39.0389 20.0248 39.2762 20.3129 39.4186L20.7449 38.6122ZM33.6626 38.1376C33.0864 38.1376 32.7023 38.4224 32.4623 38.8019V38.2325H31.4536V42.7864H32.4623V40.225C32.4623 39.4659 32.7983 39.0389 33.4226 39.0389C33.6147 39.0389 33.8548 39.0864 34.0469 39.134L34.335 38.1852C34.1429 38.1376 33.8548 38.1376 33.6626 38.1376ZM25.1149 38.2325H23.4822V36.8569H22.4737V38.2325H21.5613V39.134H22.4737V41.2209C22.4737 42.2646 22.906 42.8813 24.0586 42.8813C24.4906 42.8813 24.971 42.7389 25.307 42.5491L25.0189 41.6954C24.7308 41.8851 24.3946 41.9324 24.1546 41.9324C23.6742 41.9324 23.4822 41.6481 23.4822 41.1736V39.134H25.1149V38.2325ZM10.1804 42.7864V39.9402C10.1804 38.8492 9.50819 38.1376 8.3556 38.1376C7.77941 38.1376 7.1551 38.3274 6.72285 38.9441C6.38663 38.4224 5.90647 38.1376 5.18613 38.1376C4.70597 38.1376 4.22581 38.28 3.84169 38.8019V38.2325H2.83325V42.7864H3.84169V40.2723C3.84169 39.4659 4.27372 39.0865 4.94616 39.0865C5.61838 39.0865 5.9546 39.5134 5.9546 40.2723V42.7864H6.96303V40.2723C6.96303 39.4659 7.44319 39.0865 8.0675 39.0865C8.73972 39.0865 9.07594 39.5134 9.07594 40.2723V42.7864H10.1804Z" fill="white"/>
<path opacity="0.8" fill-rule="evenodd" clip-rule="evenodd" d="M27.9963 3.65283C31.9822 6.7834 34.5752 11.6217 34.5752 17.0768C34.5752 22.5318 32.0301 27.3702 27.9963 30.5008C27.9967 30.5011 27.997 30.5013 27.9973 30.5016L27.9473 30.5016C27.9476 30.5013 27.948 30.5011 27.9483 30.5008C23.9624 27.4176 21.3694 22.5318 21.3694 17.0768C21.3694 11.6217 23.9624 6.7834 27.9483 3.65283H27.9963Z" fill="white"/>
<path fill-rule="evenodd" clip-rule="evenodd" d="M21.3692 17.0766C21.3692 11.6215 23.9623 6.7832 27.9482 3.65262C25.0189 1.37557 21.3211 0 17.2874 0C7.73128 0 0 7.63693 0 17.0766C0 26.5161 7.73128 34.1532 17.2874 34.1532C21.3211 34.1532 25.0189 32.7777 27.9482 30.5006C23.9623 27.4174 21.3692 22.5316 21.3692 17.0766Z" fill="white"/>
<path opacity="0.6" fill-rule="evenodd" clip-rule="evenodd" d="M55.9443 17.0766C55.9443 26.5161 48.213 34.1532 38.6567 34.1532C34.6229 34.1532 30.9254 32.7777 27.9961 30.5006C32.0298 27.37 34.575 22.5316 34.575 17.0766C34.575 11.6215 31.9819 6.7832 27.9961 3.65262C30.9254 1.37557 34.6229 0 38.6567 0C48.213 0 55.9443 7.68447 55.9443 17.0766Z" fill="white"/>
</svg>
