<?xml version="1.0" standalone="no"?>
<!DOCTYPE svg PUBLIC "-//W3C//DTD SVG 20010904//EN"
 "http://www.w3.org/TR/2001/REC-SVG-20010904/DTD/svg10.dtd">
<svg version="1.0" xmlns="http://www.w3.org/2000/svg"
 width="512.000000pt" height="512.000000pt" viewBox="0 0 512.000000 512.000000"
 preserveAspectRatio="xMidYMid meet">
<metadata>
Created by potrace 1.11, written by Peter Selinger 2001-2013
</metadata>
<g transform="translate(0.000000,512.000000) scale(0.100000,-0.100000)"
fill="#000000" stroke="none">
<path d="M2383 5101 c-95 -35 -164 -102 -199 -196 -18 -47 -19 -86 -19 -670 1
-341 4 -642 8 -670 19 -126 67 -323 86 -350 4 -5 15 -34 25 -64 11 -29 30 -74
43 -100 32 -58 106 -184 113 -191 3 -3 25 -32 50 -65 229 -309 613 -546 980
-606 36 -6 79 -13 95 -16 17 -3 307 -6 645 -8 647 -2 668 -1 739 43 49 30 103
87 129 137 l27 50 0 565 0 565 -24 48 c-47 91 -145 166 -236 181 -16 2 -267 5
-556 5 l-527 1 0 528 c0 290 -3 542 -7 561 -18 101 -95 200 -190 243 -50 23
-50 23 -590 25 -509 3 -543 2 -592 -16z"/>
<path d="M255 2948 c-90 -18 -180 -90 -223 -177 l-27 -56 0 -555 c0 -553 0
-555 22 -603 31 -66 96 -132 162 -165 l56 -27 545 -3 c300 -1 550 -4 555 -6 7
-2 10 -190 9 -537 0 -416 2 -544 13 -578 29 -98 88 -166 183 -213 l45 -23 560
0 560 0 48 24 c27 13 62 35 79 49 44 37 94 119 105 174 11 50 10 1261 -1 1313
-3 17 -8 44 -11 60 -31 183 -102 383 -186 522 -38 63 -112 178 -118 183 -3 3
-28 31 -54 62 -87 104 -216 222 -301 275 -22 15 -46 32 -53 39 -41 41 -388
190 -485 208 -13 2 -34 7 -48 10 -14 3 -43 8 -65 11 -22 4 -51 9 -65 12 -44 8
-1263 10 -1305 1z"/>
</g>
</svg>
